<mxfile host="65bd71144e">
    <diagram id="7ozkHSgYh5BkcQ2b4U0C" name="Page-1">
        <mxGraphModel dx="1642" dy="925" grid="1" gridSize="10" guides="1" tooltips="1" connect="1" arrows="1" fold="1" page="1" pageScale="1" pageWidth="1100" pageHeight="850" math="0" shadow="0">
            <root>
                <mxCell id="0"/>
                <mxCell id="1" parent="0"/>
                <mxCell id="3" value="&lt;div style=&quot;color: rgb(0, 0, 0); background-color: rgb(255, 255, 254); font-family: Consolas, &amp;quot;Courier New&amp;quot;, monospace; font-weight: normal; font-size: 12px; line-height: 16px;&quot;&gt;&lt;div&gt;&lt;span style=&quot;color: #773300;&quot;&gt;#include&lt;/span&gt;&lt;span style=&quot;color: #000000;&quot;&gt;&amp;nbsp;&lt;/span&gt;&lt;span style=&quot;color: #773300;&quot;&gt;&amp;lt;&lt;/span&gt;&lt;span style=&quot;color: #776622;&quot;&gt;bits/stdc++.h&lt;/span&gt;&lt;span style=&quot;color: #773300;&quot;&gt;&amp;gt;&lt;/span&gt;&lt;/div&gt;&lt;br&gt;&lt;br&gt;&lt;div&gt;&lt;span style=&quot;color: #000000;&quot;&gt;int&amp;nbsp;ceil(vector&amp;lt;int&amp;gt;&amp;nbsp;arr,int&amp;nbsp;key){&lt;/span&gt;&lt;/div&gt;&lt;div&gt;&lt;span style=&quot;color: #000000;&quot;&gt;int&amp;nbsp;s=&lt;/span&gt;&lt;span style=&quot;color: #776622;&quot;&gt;0&lt;/span&gt;&lt;span style=&quot;color: #000000;&quot;&gt;;&lt;/span&gt;&lt;/div&gt;&lt;div&gt;&lt;span style=&quot;color: #000000;&quot;&gt;int&amp;nbsp;e=arr.size()-&lt;/span&gt;&lt;span style=&quot;color: #776622;&quot;&gt;1&lt;/span&gt;&lt;span style=&quot;color: #000000;&quot;&gt;;&lt;/span&gt;&lt;/div&gt;&lt;div&gt;&lt;span style=&quot;color: #000000;&quot;&gt;int&amp;nbsp;result=&lt;/span&gt;&lt;span style=&quot;color: #776622;&quot;&gt;0&lt;/span&gt;&lt;span style=&quot;color: #000000;&quot;&gt;;&lt;/span&gt;&lt;/div&gt;&lt;div&gt;&lt;span style=&quot;color: #773300;&quot;&gt;while&lt;/span&gt;&lt;span style=&quot;color: #000000;&quot;&gt;(s&amp;lt;=e){&lt;/span&gt;&lt;/div&gt;&lt;div&gt;&lt;span style=&quot;color: #000000;&quot;&gt;&amp;nbsp;&amp;nbsp;&amp;nbsp;&amp;nbsp;int&amp;nbsp;mid=s+(e-s)/&lt;/span&gt;&lt;span style=&quot;color: #776622;&quot;&gt;2&lt;/span&gt;&lt;span style=&quot;color: #000000;&quot;&gt;;&lt;/span&gt;&lt;/div&gt;&lt;div&gt;&lt;span style=&quot;color: #000000;&quot;&gt;&amp;nbsp;&amp;nbsp;&amp;nbsp;&amp;nbsp;&lt;/span&gt;&lt;span style=&quot;color: #773300;&quot;&gt;if&lt;/span&gt;&lt;span style=&quot;color: #000000;&quot;&gt;(arr[mid]==key){&lt;/span&gt;&lt;span style=&quot;color: #773300;&quot;&gt;return&lt;/span&gt;&lt;span style=&quot;color: #000000;&quot;&gt;&amp;nbsp;mid;}&lt;/span&gt;&lt;/div&gt;&lt;div&gt;&lt;span style=&quot;color: #000000;&quot;&gt;&amp;nbsp;&amp;nbsp;&amp;nbsp;&amp;nbsp;&lt;/span&gt;&lt;span style=&quot;color: #773300;&quot;&gt;else&lt;/span&gt;&lt;span style=&quot;color: #000000;&quot;&gt;&amp;nbsp;&lt;/span&gt;&lt;span style=&quot;color: #773300;&quot;&gt;if&lt;/span&gt;&lt;span style=&quot;color: #000000;&quot;&gt;&amp;nbsp;(arr[mid]&amp;gt;key){result=mid;&amp;nbsp;e=mid-&lt;/span&gt;&lt;span style=&quot;color: #776622;&quot;&gt;1&lt;/span&gt;&lt;span style=&quot;color: #000000;&quot;&gt;;&amp;nbsp;}&lt;/span&gt;&lt;/div&gt;&lt;div&gt;&lt;span style=&quot;color: #000000;&quot;&gt;&amp;nbsp;&amp;nbsp;&amp;nbsp;&amp;nbsp;&lt;/span&gt;&lt;span style=&quot;color: #773300;&quot;&gt;else&lt;/span&gt;&lt;span style=&quot;color: #000000;&quot;&gt;&amp;nbsp;{s=mid+&lt;/span&gt;&lt;span style=&quot;color: #776622;&quot;&gt;1&lt;/span&gt;&lt;span style=&quot;color: #000000;&quot;&gt;;}&lt;/span&gt;&lt;/div&gt;&lt;div&gt;&lt;span style=&quot;color: #000000;&quot;&gt;}&lt;/span&gt;&lt;/div&gt;&lt;br&gt;&lt;div&gt;&lt;span style=&quot;color: #773300;&quot;&gt;return&lt;/span&gt;&lt;span style=&quot;color: #000000;&quot;&gt;&amp;nbsp;result;&lt;/span&gt;&lt;/div&gt;&lt;br&gt;&lt;div&gt;&lt;span style=&quot;color: #000000;&quot;&gt;}&lt;/span&gt;&lt;/div&gt;&lt;br&gt;&lt;br&gt;&lt;br&gt;&lt;br&gt;&lt;br&gt;&lt;br&gt;&lt;div&gt;&lt;span style=&quot;color: #000000;&quot;&gt;int&amp;nbsp;longestIncreasingSubsequence(int&amp;nbsp;arr[],&amp;nbsp;int&amp;nbsp;n)&lt;/span&gt;&lt;/div&gt;&lt;div&gt;&lt;span style=&quot;color: #000000;&quot;&gt;{&lt;/span&gt;&lt;/div&gt;&lt;div&gt;&lt;span style=&quot;color: #000000;&quot;&gt;&amp;nbsp;&amp;nbsp;&amp;nbsp;&amp;nbsp;&lt;/span&gt;&lt;/div&gt;&lt;div&gt;&lt;span style=&quot;color: #000000;&quot;&gt;&amp;nbsp;&amp;nbsp;&amp;nbsp;&amp;nbsp;vector&amp;nbsp;&amp;lt;int&amp;gt;&amp;nbsp;v;&lt;/span&gt;&lt;/div&gt;&lt;div&gt;&lt;span style=&quot;color: #000000;&quot;&gt;&amp;nbsp;&amp;nbsp;&amp;nbsp;&amp;nbsp;&lt;/span&gt;&lt;span style=&quot;color: #773300;&quot;&gt;for&lt;/span&gt;&lt;span style=&quot;color: #000000;&quot;&gt;(int&amp;nbsp;i=&lt;/span&gt;&lt;span style=&quot;color: #776622;&quot;&gt;0&lt;/span&gt;&lt;span style=&quot;color: #000000;&quot;&gt;;i&amp;lt;n;i++){&lt;/span&gt;&lt;/div&gt;&lt;div&gt;&lt;span style=&quot;color: #000000;&quot;&gt;&amp;nbsp;&amp;nbsp;&amp;nbsp;&amp;nbsp;&amp;nbsp;&amp;nbsp;&amp;nbsp;&amp;nbsp;&lt;/span&gt;&lt;span style=&quot;color: #773300;&quot;&gt;if&lt;/span&gt;&lt;span style=&quot;color: #000000;&quot;&gt;(v.size()==&lt;/span&gt;&lt;span style=&quot;color: #776622;&quot;&gt;0&lt;/span&gt;&lt;span style=&quot;color: #000000;&quot;&gt;){&lt;/span&gt;&lt;/div&gt;&lt;div&gt;&lt;span style=&quot;color: #000000;&quot;&gt;&amp;nbsp;&amp;nbsp;&amp;nbsp;&amp;nbsp;&amp;nbsp;&amp;nbsp;&amp;nbsp;&amp;nbsp;&amp;nbsp;&amp;nbsp;&amp;nbsp;&amp;nbsp;v.push_back(arr[i]);&lt;/span&gt;&lt;/div&gt;&lt;div&gt;&lt;span style=&quot;color: #000000;&quot;&gt;&amp;nbsp;&amp;nbsp;&amp;nbsp;&amp;nbsp;&amp;nbsp;&amp;nbsp;&amp;nbsp;&amp;nbsp;}&lt;/span&gt;&lt;/div&gt;&lt;br&gt;&lt;div&gt;&lt;span style=&quot;color: #000000;&quot;&gt;&amp;nbsp;&amp;nbsp;&amp;nbsp;&amp;nbsp;&amp;nbsp;&amp;nbsp;&amp;nbsp;&amp;nbsp;&lt;/span&gt;&lt;span style=&quot;color: #773300;&quot;&gt;if&lt;/span&gt;&lt;span style=&quot;color: #000000;&quot;&gt;(v[v.size()-&lt;/span&gt;&lt;span style=&quot;color: #776622;&quot;&gt;1&lt;/span&gt;&lt;span style=&quot;color: #000000;&quot;&gt;]&amp;lt;arr[i]){v.push_back(arr[i]);}&lt;/span&gt;&lt;/div&gt;&lt;div&gt;&lt;span style=&quot;color: #000000;&quot;&gt;&amp;nbsp;&amp;nbsp;&amp;nbsp;&amp;nbsp;&amp;nbsp;&amp;nbsp;&amp;nbsp;&amp;nbsp;&lt;/span&gt;&lt;span style=&quot;color: #773300;&quot;&gt;else&lt;/span&gt;&lt;span style=&quot;color: #000000;&quot;&gt;&amp;nbsp;&lt;/span&gt;&lt;span style=&quot;color: #773300;&quot;&gt;if&lt;/span&gt;&lt;span style=&quot;color: #000000;&quot;&gt;(v[v.size()-&lt;/span&gt;&lt;span style=&quot;color: #776622;&quot;&gt;1&lt;/span&gt;&lt;span style=&quot;color: #000000;&quot;&gt;]==arr[i]){&lt;/span&gt;&lt;span style=&quot;color: #773300;&quot;&gt;continue&lt;/span&gt;&lt;span style=&quot;color: #000000;&quot;&gt;;}&lt;/span&gt;&lt;/div&gt;&lt;div&gt;&lt;span style=&quot;color: #000000;&quot;&gt;&amp;nbsp;&amp;nbsp;&amp;nbsp;&amp;nbsp;&amp;nbsp;&amp;nbsp;&amp;nbsp;&amp;nbsp;&lt;/span&gt;&lt;span style=&quot;color: #773300;&quot;&gt;else&lt;/span&gt;&lt;span style=&quot;color: #000000;&quot;&gt;{&lt;/span&gt;&lt;/div&gt;&lt;div&gt;&lt;span style=&quot;color: #000000;&quot;&gt;&amp;nbsp;&amp;nbsp;&amp;nbsp;&amp;nbsp;&amp;nbsp;&amp;nbsp;&amp;nbsp;&amp;nbsp;&amp;nbsp;&amp;nbsp;&amp;nbsp;&amp;nbsp;int&amp;nbsp;index=ceil(v,arr[i]);&lt;/span&gt;&lt;/div&gt;&lt;div&gt;&lt;span style=&quot;color: #000000;&quot;&gt;&amp;nbsp;&amp;nbsp;&amp;nbsp;&amp;nbsp;&amp;nbsp;&amp;nbsp;&amp;nbsp;&amp;nbsp;&amp;nbsp;&amp;nbsp;&amp;nbsp;&amp;nbsp;v[index]=arr[i];&lt;/span&gt;&lt;/div&gt;&lt;div&gt;&lt;span style=&quot;color: #000000;&quot;&gt;&amp;nbsp;&amp;nbsp;&amp;nbsp;&amp;nbsp;&amp;nbsp;&amp;nbsp;&amp;nbsp;&amp;nbsp;}&lt;/span&gt;&lt;/div&gt;&lt;div&gt;&lt;span style=&quot;color: #000000;&quot;&gt;&amp;nbsp;&amp;nbsp;&amp;nbsp;&amp;nbsp;}&lt;/span&gt;&lt;/div&gt;&lt;br&gt;&lt;br&gt;&lt;div&gt;&lt;span style=&quot;color: #000000;&quot;&gt;&amp;nbsp;&amp;nbsp;&amp;nbsp;&amp;nbsp;&lt;/span&gt;&lt;span style=&quot;color: #773300;&quot;&gt;return&lt;/span&gt;&lt;span style=&quot;color: #000000;&quot;&gt;&amp;nbsp;v.size();&lt;/span&gt;&lt;/div&gt;&lt;div&gt;&lt;span style=&quot;color: #000000;&quot;&gt;}&lt;/span&gt;&lt;/div&gt;&lt;br&gt;&lt;/div&gt;" style="text;whiteSpace=wrap;html=1;" parent="1" vertex="1">
                    <mxGeometry x="20" y="20" width="390" height="730" as="geometry"/>
                </mxCell>
                <mxCell id="4" value="" style="shape=stencil(7VtJchw3EHwNrwgAhfUs2/9QhCiLYVlUSPL2exdMo6eRNZ0I+uSDbuQMchpLLVmJ6gd58/XD28+PD9F//fbl+ZfHP57effvwID88xPj06cPjl6dv+teD/Pggb94/f3n8+cvzb5/evfz/+e0YOf769fn38Qt/vuBCcDENVPR/vXzinY//fPDTy/iPT5/O46sdL+F6fExOcHz11+PFu1aW8TrBRsYX/P3geroen/Tn+jI+usbGZyfreHGdzD/p/sRlfHKZ7E9qrrVlfHahX4/P3qUE4xvZnxxck2V8cZn9fnR9nU+l+591OzqM75mMN/vZ54bdH1+cB3vgBqeAuC5YTTxxgPgVEF1iSy5zAgdAXGFrtoDkGl+01BWgp7xZdF4BxVV2zNlVAFRX2aKT67CG7jybUpp2cwJUBtBNXJ+goSKxbVVTXV1txAq2rRF9U52fBTt1niwIoAfnXVkPTsNFEeL+uiereWu8SCy+6K6vBzcCBg8wySOA2ZJGsLwe3AgZbA1lRvQDUKcPXsXUZgCdAdKMuQeg8W0Vs4ZOw2SKJswH54kDaR6BRUt0gT1BbWk9OJGZiq6m5GFKahoMoKa22pLkaV1XB+dXf5DqPFuDxmp4QqOLVp/GJ/QZqa4CWV09Lmm4Jx5XvMvrlHSjhZhGSfPrAxBdJgyg1EkQDoC4SqZUNQqtQUDtt5In1ISmoR7CSFI93OUAFJfIopudUqFpummaXh1Iw4IQ42sdeZsCCjG+nue5ngCtEkBDj9PQJmRb9Qk94RMYd+vVBW8AZJd0SkFwSp4DgF0l7kC9u/K6RXez6OYysdbglfCbRzDr6yZn3UjsFQDYyS2LXW1TaghgrFhPLgcEMJbYC2bFAWBryC4aAKOVXcxRd5rZm7XvPrn+fUBEsqGAQqakYQNoZT7O/j5AZq1wAmSySxr6IFYqhYpsSh7pzChYSBQoDes9ZXWFrKEUJH2alBit1AQBUUCprLAnhMn+D0DmPFTPdXWgUeUwtl6RSyugs7ybXYFdqpy4akECJ61hg5yDAhLYUqeJetQD6zlo6qaLVjrTEEBL3Tgt5wAEXgQFJEwlcoDHaFxkltdXhKmtcalk5zkA5JVSaCAbkRQAdZ79VT3QV2sdLsVopQZ3AGgwZrSyzU08ATovUeq6Bg0LjDsMwLqtGniEWGsysbVGznS1vugIqJsnwJSS8xvAuq01UwcagNW8K5dyBmA1b00AcTMlQQALM2OXQCxqlOkOwBoEaqfke5CX1TSap3l6lLvrLjUuCqSGlZ/m1U1BDRlIAZ1bKwhMTWYBfAWAcN/SzqdB1FT+njaLXk+6FRdIUhyAhgAa+RoyMuU3NPI1DMaNk8QRKj0CmPSr0RtoaPfT4C/ln3UN/Sjir1JWWE2jR8r5NCkCdVDaKMSWNLHn1bx74iJZxm1VJpvZEwRVNeXKTGvRbYVANtg4M29TWyrfjwxw6IAnABNcJaN5awnCgnE8uPwJwA7upuqfAIV43BA/GwJYEAjZWGufJ3NRyGEwPpV29/cVpfWxBrJLplAcx0B+36Ogq5ZES1Gz4kIVsoiBWMcHdrdkjiC7zjjujKHn8ayYmZTiPJ4VcMgmdf60LEbZtBeqswaPKugoe8kDFNDMjjIpYDzBHBlVTJCSDM2FpPOGAryOF/L7dd5JnMbT8GhMqNK7H0GWN8YTk46YyXU8M+mAOe2mSV25mDGJRqK7nw54Du7EpD2KGDqe5aeAwmTnvEJQlxwuQENWM9mMBcWC9HGMZ0KpC2Z/2C1XN5mp0NpoXF6aBbPKZbikCaI00XhjooUqKv8F4OGQG02WmspqRABTVKK5XBlKK+syMHe46jfMLsSjQKIA2peQ8Vp5RCJiSdKxXBuhkZF4wZJzRGtWiGTjbHlHvBCQqPcrIIJpCGUIuoYOi+aKyrh3A9MIU264DwgoIymJ7+wJ3oQYT7OsHlx/XSHiUTDclToeRZ5dMeVNfbcp1zxu664g9KYg3JScHnsadkWtN0Xtpmz26HG7wtxj9bUr/T0Sto24MEwDVCEuXwwAKCpcIJGO7UAbCUbMvdtG5BkA0J24jHTnCVyoGosGsY1LYXd2iYtt0rFG3ch5d6bEBcM758AlyQGAPisuetr8sJFVFYB6OBdupWP9tZGGFQDiwrg82UwJBPRM74eGi8ITEpckPbYdFZlV61VCQT2c9/goAHy6BB5mTG9J4R1pKeGUcufdKwmjd248i2ZzZVW54l6wDsi8bhvq3HoOOfMbKI9hRgGb654AT0jTWK6ULchA+hOMVeaKOS5vGv06Wuvtxuh+tRGQGes2MM5Xorkv9dTjiilYU6f3dMUoW+MCiPiDxmoxAEYdqol8owmCtYpkvIHa9WV4DPe7VpHvnR//Ar53fhjA/6/zQ0sebIXqtOm6mYbi2zXwfYBps7jdxF1FAUhyifPQasqs0QnP2iwKSieJKyGa+EGbGRcJ7Caj42WjJlYmvuVi/EF4zoqmZWdDNswtceIJQpfo120dRJMRpmAaWTl3GA2ZBkB5aEVNTT9JDFAwuEqh926SsB4QLoyLINm43QBdAXBKiVIyMb1W+hOselUAxCURXpdFVPclUp8WQVVNeH+MZGQn8Sgprg4O1hAbr5oq3pjEyp/QMPLFQtUctdZgmtNZuLdqTsycfPv59QFIlDANj8sIoJ3gcfrXARDavasAqMBj5P0xYnr+eVfd0O0CAmiZlcxJe97NnpDDhU3nR8Y1hMaVQRNmAu9AVgBUr4HfdikAmuQ2r+XcmqwPAH/x5w6Av1o0ALAGXtOkguXueD3qdVPadOCY2pKzn1sWP1Q4ShzUViFm8F5I9U8s8GluSHfesGOatw16iTaJaKYBlsFfEdKojlGYxiNdXsDxbL0x4Hsmgdqo2jxwSf5+Xccr2UCl6za/PQ1nLcomStD7ujKXNod7WhcWPFpPdcli341lJ1uQeXn6fk/BN1387iocJ8OaBSrePvlZ4V4cU8LhvHUBWn48PaZg7i94J8ur32Lejtc/bq9Mv3/6+PHljevz9/iKtX708nq2/Pg3);lineShape=1;" parent="1" vertex="1">
                    <mxGeometry x="382.59094135258965" y="73.94986037820468" width="32.35392787839737" height="213.65108756516943" as="geometry"/>
                </mxCell>
                <mxCell id="6" value="" style="shape=stencil(lVnbbhQxDP2afbWSOInj5wL/UYlCV5QWlXL7exxWmU6cnVPx1s7aE8c+Pr7MiW++399+uzul8P3l+enL3a/zx5f7E787pXR+vL97Pr/YXyd+f+KbT0/Pd5+fn348frz8/+22S/a/vj797G/4fdGrjXLtWin8uTxJJPnfgw8X+Yfz414+E7OT5wTkI5Xm5JMcy5dGZXk/ki8UxcnXBuQjcZnkmVI4ls9CWZy8RiDPlNMkn6nxsTwrlVm+kAJ72H7Ok7xQBPHi5P3fxoOr8kmJZ/kYKFagUCnNF4iRGjqBB2A2BaZagELwLoqFCjApCqnOCoIVCtU5CaKSgDuYxQ5FHdYgzOYTD1PDBYibUpqvYHHO4ApCdU4btrApyMsR1E2eKQJcFwphlq8UwPszhRlGBvQI8tgcOtuTzaHAP2l4b5MvlBHqSGb/5EYC7Qmz/wvmOWOF+b5GTArkC3Gc5RVCVCjM9lceeXeEHydfqQFeMYDqjGgJkHgtZ+LsIWHIvLGNnzcFMwnlffLUK5aVmIrKbFJLgzquB82y0pFjwWy6pE2Tceb1NIiUZ7c2JQVEkSvpfIImmGiGS3eC5pGrRxXWEbYa/aESvlW8TaFChq+6mCSwCEqmOkda22gzriuoh4Y2SI/NsKleAfGjxTVVf4cKTNLgS4J5CXUKFtciXiGAfLC4iouDsTJI0f6+mbTVuhNkUiVeFAKItCmIu4MRM6IlGaSyU6ggcBYmR3xdAZ2w0ExXAJFWo8qy3AFdWhcsMWyRTMFxqykUkKJdYTmh4ROay+mMy4P6tt8UCoJ3831nhyMOnKtwpgDdKqML3CugwFlNXE5ANd3QmttyaZRxRvdhcStSKAtVMmzndWnnOzRQHKovWR18OEWru0PCJomvcaYgWKFFr/BGinr2TnACMLSGlWZwApXqvQS5VQc2dwqMupkQrpArmpx7Ui9gQi33/yvIAteKczQPGtoVOUEpFxe/NoiN1pYc1dHpHxVqFa+AKoq1Ao5ndqE56jbSYhNCU21Le6KQBmpaaKCNduJ6T7ZSWR0142iN4ctigSf08WhhJkaLBh1I2BQibEQ5E7vuu42G5WjV4Apvq5DKbKgsM1kaWjIg/BT8FN0CbOKiVYg5IQR3fTGNxnZT2NxwMJe5EmRjFgp09b1GlXGng7k7L3MiGlCSh7bNoajTiMvcajEDDgoeFH1eAaBYWLXP6YBVw2DE3R6AgT8t/k4+wcKw3JcbnOuT5xYukIItCWdIM95fbk3XthfSEcED/Dj/2xM0irWxddntqVDNicvY012GCufWG2x83Ub/cLRoCLNJPUtBCKL4OSlmmDMrKMzIhFeYbttmbsjAq93pjohgh8RhnL+lMUQdLyM6zgKWsd7cbbXxGqP5LT6KWTZSmFERYWdegk8DzIrFaE6dPOoqSvNb7TDq5/WsWe6LW4pafP0OsJJVHWumV3m0lTd518QHODXLQqMBdjhyzf/AHpN3m7YIv6KYvFu/RrzNDp7mDD+oCQx+6I9v2e/wk+C4bPIpOHmU7xav5r9ioSrcN2b+/aitto5U/fsFdRH/+5XvTXn74/WT4qfzw8Pli+T+d/8J0h5dPl/y+78=);lineShape=1;" parent="1" vertex="1">
                    <mxGeometry x="422.34504523826024" y="173.87821729491966" width="6.919346643558701" height="12.447317370652012" as="geometry"/>
                </mxCell>
                <mxCell id="7" value="" style="shape=stencil(lVrZchw3DPwavaJ4gAeeHec/XGU5UkWxXLKc4+8DZourYXOnFb+tVuwZEkejAe5d/vD94dO3+7sUvr++PP9+/9fj59eHu/zLXUqPXx/uXx5f/dNd/niXP3x5frn/7eX5x9fPl7+/fRorx6c/nv8cT/j7gtMqQQcqhX8u3ySVHP775tcL4Onx6wFQgpS4AqrERABFiq2AJkXPATXMf18BXVImgLJtiQNakLxtSRsBqPSEhw4McN3AwayhnAN6kACAKC1SQFq3FLv0SrZk0lazxiaJbMnP0OoKKFKJp5sbcfVDzNKZH/x5bQUkCeTQLc8NXAFBIomlFiWvgC5Kort2sfXMVZqR9VXK6rYiSkxUVeK6XqcbbyePSYWwoPspKhZwPXt+RB9nicQB2qQVWN+J/TVLUjivkbzJTayD/QtbnySvz+80a/xxHUI0SiJZ41lY1g1F7rHob1gt5GmmnQDcQ+CyIEayxjCk3aaFHKFK3ehUyXpFnnAjK7Gp5+RKprmKkv1npEYNM8jP1q/PV50mPlkPLlajXK1S1xQoWTI5b5G2klZxB5OcbLM8XkM60mLTMR68vrGK7BRYANAnC5xFHNTLliQSi3rIA+06c0cSQiMJVp95bejkzNEkrUb1+pYJsXhe2hpFPdEoGsQDlUBnYtwGdIy7XqfdzrgorlTR+0zV24CKZGpe1InjNGEoWaR0qh3LjXm2Ek+XLRmszFPdJhfnR9hSpezisamwpTYfcSYSwhoa1ille+SYIaAQs/aCjDHewAA2E/h4BhJLbvUQ0UqNcfxGMuZlh/jBn4eedsFJzuAA9HSWxt7QsO6MWCJ+cCOGHcCsdK3dxy2R0DCbxHgAMOZzQNusxIjMAbb5gZH3AHQE9He2tGccoZlxaEVAZlvadLwDmGAYjusIYKwxQqNtABbedfN0oSQwwns7AyvSI4EMAYFnXN1Cg0nJ8YaAgEx0gAOQlzxFGaBuNJOp8nE/BENAZW9om5Uyd1yfUucIYKxhW8niPaEDatys9E7Gpc0PTJyEMJnxgKBmstlZH4OJ5+hPAnQa5VCCmOh2pVAhR432JS5e4gboDBAwRw+GO5uSYIUwyt91Gxj4qY0EeA2oyYzrSpfyyBuVcp9WyRv3sUN78xK3opVIMGXd3uD9ADm0N3wg111/FCZ1C0qs3mYXeyqmoYt2OmYNQccxQ8885+qUbAd9zzwdM2Z145Mb7+PruqUxXWIZNI1+aIJYZLT5+muXZXTIWObg4tDGMSdkVBourRkpJTyvt6GVtVhYTDw3lKixgDzsbTSTSgFl+mjT+fp1/55JzP4B/ZUrbQMiTua8PwvU/rpGqHvc2OhvtgjX9ZlGtE0JdRjz0B46b4MkPgvzpIQ3+CPYcHRsGMiRnngQEaQMzYBc9uEfK/0jAGAsP8cIt9cXTIFII7oEbBcCbei9GYbZX6ASsnQs4rxe1oQ8HagIrgXtH6lG8FYbil+idaNtFT/zG4WMsr9QinZC7uv6RjNyMD4MhWiGeUnB4W6YVeQ2IKFMi0mMXbroHOUepsFMf3gdhYbzbT58JtMy+LjTiX+vG28FqsgdALMIDwumP/zQBsyllFf6NrH1wGCTgh4lro4ekcGvpiDzx7SOhdJ+CWl0vtjSVm4CDdZqeB+Xr3R2ls149cKj1ekib1ti+VAMpakD2NSpFPR0DvwyOG3XTcbni5tadsfRC6R246qWFoW03ZjVWYZOh6oNAYzmNWJhfrsSOAPAqG0QJYmlAVAEsCmsbtd4o9QyQLpx7c/Usm75MH4nwA6dUM8O1mCOyyiYE2/8VTHjBoAkkCrWn3cu5V1gwLTjHeb76V9T/A+Af3j78caXx6eny28/jv/HH3v4V5cfiuSP/wI=);lineShape=1;" parent="1" vertex="1">
                    <mxGeometry x="431.28050148939417" y="173.55881533791782" width="5.827652751666257" height="12.615779266900164" as="geometry"/>
                </mxCell>
                <mxCell id="8" value="" style="shape=stencil(lVjbchoxDP0aXjWS5etzmv5HZkIKUwoZQm9/X7nMwloLJ8PbsujY1tHteFf69LF5eV+vAn+cjofv69/b19NmpV9WIWz3m/Vxe7KnlT6v9OntcFx/Ox5+7l/Pv99fumV/+nH41Vf4c8aJUiwdFfjv+Q1Tqv9ffD3b77b7mX1QqjLYK+V0316F+n8z+0ohA/tErIO9BJICAI1SHAGFFJwoRoo8ALoLAgCV2uiCMhW+D0hK6jiqFBUAKsnodMyUgNM5TKRPgBQpgR1yIR5ZsiUEOF2Eah4BjRgcqWTSNgBKIgkA0HwmVaYAjlSVwshStVA2AMhUXO5VYpB8jUlGH+xNA0439clnb1CkW6Y6Jl9LUzrec9pFujWKgNYapgPMAIwBMrLUKiVEa6CSPQCVqIUpjD2mlYmGe4GLzQMS8qFRYA9QFOlL9s8BEQCibwIGiGgHW28BQF2jh6l6Whk0MmEmZo+AZ2rUmgdUEOp+pkX2KXKiUKgekDGvtXgAPFKYSvjS76883EsOWTjRwIzr6bcAVNSZou9MBkDtuJdQ9AABkbtZpAXw2ttA9ADF3TW7yJUp5W8DEuVFkWYUh8vkn5cQSiYhiR6gqLtG4kVVwx3yJHbmPgCWemt8iKWHATYEq4t0mkbx7TlqieAqSKmACrJJnR2tMjXo24A4zeXZHFU02nkx2iMVQGu+SLaZFkCBy0pt9MHUBkqNZH1rjIPpGSREu6AafTDFhFhK7Pu3LZFBHGLyO5jqQzUdmbITonhSa/adz5RrBZ3P1Hoad+h6H9AarIDGESS4gIL4bDV9HwGttl4dI40bn4i/QER4oTEpP1IkUGnwpHSu5gGu7ib05XR3zMPoq50Orl6rM0+ImqU5Khn1YpihyotebDPU2ovrwidDnIS9OerTXqIyvLxY0gRvL6CwLGeTd1bR+g/esj+3t4frlf5tu9udvwjM//efAOzV+fOBPv8D);lineShape=1;" parent="1" vertex="1">
                    <mxGeometry x="438.8785381315257" y="174.5942255958457" width="1.4840642286562797" height="9.99235161020897" as="geometry"/>
                </mxCell>
                <mxCell id="9" value="" style="shape=stencil(fZbdcgIhDIWfZm8zQAg/17Z9j85U606tdqz9e/tmZ0c0uJ47xP0I5JwEBl59bp8/1kNwn6fj4W39M76ctgM/DCGM++36OJ50NPDjwKvN4bh+PR6+9i/z74/n6ctp9H74nlb4nbmSKZeJCu5vngmZ6jzzNAO7cX8FVKEsBuBKrgKg9oAE8gkCbLeUhEoEQKSUDZDLeWYRKIl8MEDRmHwfyBrBG6Amyu4+kDxxMoB3jhwgYu7TVAsVkFcWCs4CTBEoF4RctKeOxHIf8IXYpikHikAIf+MNUW94AGSSaoAoFIE3AlOyeWU+p2E5S9yfQZcQILVuQOwZdJNoS9Ls3wA5u2XZTIHECqeJ9kDpSaauRiNVcAY1QhdBzeLBli5WazpkSsBLV25uRaqWRyFawTQzRRIQYirJzq5atkBqLfouwqUxLBepthWb10vrWZY6UOAeyKCCtDV625mm9gmUC4Wc3VLJMMIE1BsA2FW9JraVlQB7n3c9oMKhCLEvIM1zBPZ25/umNQ1tVEC2G+fFCC8g398O2hNQuQlVu752DBfA+q0ptnqO5JFmeuIuo9DY7KjY71UxdJV4EntifPWorW++R/dC4t7V3DlIB5cHx2bc7eb3yvX//QNFp+bHDT/+Aw==);lineShape=1;" parent="1" vertex="1">
                    <mxGeometry x="439.23569932926034" y="169.42181789514783" width="0.3461140571937533" height="0.3455730530635332" as="geometry"/>
                </mxCell>
                <mxCell id="10" value="" style="shape=stencil(nVfLbttADPwaXQnue3lO0/8IEKcW6tqB47TN34eqIEfLhSZxb7a0I5LD4WOHcPeyf3jeDZ5fLufTz92f8fGyH8K3wfvxuN+dx4v+GsL9EO6eTufdj/Pp9fg4/39+mE5Ov36dfk9f+DvjHFOuE8rz2/xEH+R/D77P5w/jsT2fXHM+kEfnPbn2+5ViBOczOWnOu0ShbAPU3+ndCqBPKrDgE+XSAgpVvw0IfvneNeRElbcB0ZELDSBGim4bkHjhcAGkQA7EkIRCy1J2lAEg1+V7V4BQDtuAoiy1eS6ZqmwDqia6jaEGCsBCLZTaPNRKFbAkjkIrJVGWEgBEcq00JFNAgLSEeAWoWgFAYygGIORR0NWypBYE0SpdDJVKBTFogXYxZESrp8gWkBAgLgW5ZgnEoKz7zqWE8lBIOpYyClpZ72KooGsowGZaiQY1ra8lWQDUknQsCSUUQ7WNTAEw05lyBxAgPk1cafuSYyZGUXsquTOBUs0k3AGAmFTfobNQwEDRCrJiEigmrdHqLCAgl3r1CTEQk7pU2uY6qQ90Y2WJe32DoLX1la7kErIQqDgLgDXaTcXJApiKWqMxdTEg9SknHQD2e7FynfIALKzUvG7HIHO3I2om7vpxQnrVouuGUEQWHEk35jzoA6XalUkFKcCl4q2adFRHYCFn25pKIUb7SVcRum4UIL+oXaJ1SRcauGOxrWpdmTywENyiztVShvqGv7K+WvsEr67cWtDFEvVj3aVja0FXVwEu5aVvrXbjCBLtl5H2sXsnwCmTa3OAV/uudPDNge3mw584Y/ZPhuNWd8NojnvQvbxlUr0DrSjYXsdQ/lrylhk0ZdMyUr92vJC3oSJnqt2acahyG5GqYS7DDXnSrIfh6zL4j/vpJ+f1x8dl+Gk8HOa79Pq9vTzro/niHe7fAQ==);lineShape=1;" parent="1" vertex="1">
                    <mxGeometry x="444.71600780503775" y="170.3967438175416" width="1.9623250624319755" height="15.812770561242697" as="geometry"/>
                </mxCell>
                <mxCell id="11" value="" style="shape=stencil(7VnLblQ5FPya3lq2j59rBv4DiTBpERIUAjP8PXXV45t2uW8hliOx63RcbZ9X1Tn2yd58vX//5e4U/deX56dPd/+cP7zcn+yvU4znx/u75/MLPp3s7cnefHx6vvv7+enb44fL31/ebyu3T5+fvm+/8O8FZy74DRT9j8sX3vnLF+8uyx/Oj1fLg3c9TeuD81WsL87btD66EI/Xbz/Xp/XmWhbri4ttWl9cFestOAvz+WGRMMCya3UGFJcVoLs2exQmpH4MSAjBvAMOmUQMUnadfNRdKQLQXJwBr9/cBGTPUcvVRRMAnHh2a4HfkgBEl+MEqDYy6zbAnM2BbthTxCEntqFV15QN2fkyAXrSR8ouzbXQiyyem4AmAgdApCNVV9UOOPHs1t5cUjsklwjQByMcxaEFBmSVS0jvBdAUIDqjivOalJB9xXiLrgCo+QVQNMBWNwVRcrBxDYRIVwDSbPUWar0DFfWWTE0C6kxMPUij0x6nvYKKZDJ4ici4wksa8B9Z74A9MkeRjrMNJer8DszGyMciBALZl2YA6DaoIxnThlWXNZNRjZr/FQv4GRB3qroNKJxLUHUTyVfw7zkOwVwUyVcKs3F3JgJdlzajS5muxRXigCC5GIlW5ygEUKHYocVlhyY5oy3kHdOIy20A6pd0XdNYgw2k68V1EWfUb56pNSUp0924u0J9dBE3KCDJdAbbqyNlNhqpotgepNVnAHIliUiDR6nempfNzKYFs5fg6CiIcgMQs3rJ3QBUkpNdkY4AgXQd6aiNpgJFKFXBQTxIRAGoOg6scDYk7CjSZgxQVIxcSp2NrgpgQ8+u3FpV4MxlAngdB2jBbDRSI2lApy60jYHiyOgyswZowZQNmSsOoltVapShNtcqLZgPqZErA2RNN5eXTtqrI0EMPAPUNLB1hIHdqljjqiO8CrUaRLctqILCaK4PjaBkiiPjj9xEoe77ZHcUiBoYoLr7vqhi19MxkqkstFFUUaeRa1cAJXIA+MxeUu1St+VIQe/w24DI7RImxaxKbpkGapLZ1zq3raUN9rwNaMt4HKRQbzU/R3rrGgXPtMTXFKkMIjnqf+gix7oUCKgs7WC6k65t1PzeMDXJZFvTN3sJHZai7xqZvkOX1IcwBepzqwxcMY4DOmk196GTLnT7sxft7V69s+5a0ONxY3I1WCXSO1dWRUw0ckCp3J1sdynC6Fx4UMRUpmZXAKjTrftgdwiYjUbDn/UOrFm6l/5zmTMAfy5z/h+XOTTJQeub2qGxZm2dq9ph0SxIRlC3zDBx9hJkVCkKFKoQbZShMUcX35FUsUmRSza6+R2A5FNGBx4uU5TZ+sq9OxsnqSiWmCtjdVEBwnLvEOS8i9+jhml7sVBvKMYTRIiy4qCyxGQBI7hQlJAGM+65NJLroL1nm6ss0MgTDQxW5+cLgSIb+8C1meWdiV9aN5dEyoGMKONkS+/5Ii3J97RlTDJnIlCe0z/KydCzZ4LkID9eqV6XB2Fq4DbEy9kl8A2gly12ZK30cqr4zXfSXy7Hh9cn2Y/nh4fLi+71//kJF19dnn/t7U8=);lineShape=1;" parent="1" vertex="1">
                    <mxGeometry x="422.2301295417242" y="193.35668555975866" width="8.127803710877487" height="7.066448022593023" as="geometry"/>
                </mxCell>
                <mxCell id="12" value="" style="shape=stencil(lVfZbttADPwavRJL7nKP5zT9jwBxaqOuHTju9felKmytpeIp8qYoHJHD4eUpPrztn153k4S36+X8dffz8HzdT/HTJHI47XeXw9Wepvg4xYeX82X35XL+fnpe/n59mi3np2/nH/MXfi04zZTjjJLwe3kTSfPfF58X++PhtLLPQloGey4UEgBkCnl0EKjE+4DCFGQApECsAKBUwgBQ8wAANVDmAZCZsgCAEqcBYEEqAlRqdQBUpgZIcwgURhLNEgcQrRGPwrVCggBK6jxUigBQG6U2AhoJYs1UxANKA8pFT3qVh/erKZFk76KCmKy+E29IgAK32vEeLE2ARDIPxQsRAYeklJxymZgBwIQdy68laoj0VohItQJApRQ8IADS1tXqakP6ILnXpF4HgYOmRmrqAbWA+maKG9IKJpNlvWzSmgBpq5zsQlJIei5/5yFTRSGVzRQofZLcI+2Vrj1v76fVKDoOxgqEZMJ5HRo1oEMuxJspAKu1dl1XAKSDCoXqSRfcQCn5tGaQ1rlF3RCwgkcePgqIjcJIugoJCCmq36O2gxoYM9FW1Jgl292op8U4jACbIwI4cOsBrDa1Ag6c+yT9dwtwZ3VnLfbbYnVtoE292aKJGFC2WT+KEElA8wjxmCChiFYJZbfdSMHXjWwcyQY48Cyb7gKwDwB7izaLsw9ALWl+VODdHHOvlps9utuS9A652aOjKhV/VDGM38aEWwhMFcSv2sW/yZtB/B89nf9vbw+3O/3lcDwuZ/76//6ut1fLb4L4+Ac=);lineShape=1;" parent="1" vertex="1">
                    <mxGeometry x="433.08220826682407" y="194.62990622121765" width="0.7800046081948951" height="5.713780892715268" as="geometry"/>
                </mxCell>
                <mxCell id="13" value="" style="shape=stencil(fZbdcgIhDIWfZm8zQAg/17Z9j85U606tdqz9e/tmZ0c0uJ47xP0I5JwEBl59bp8/1kNwn6fj4W39M76ctgM/DCGM++36OJ50NPDjwKvN4bh+PR6+9i/z74/n6ctp9H74nlb4nbmSKZeJCu5vngmZ6jzzNAO7cX8FVKEsBuBKrgKg9oAE8gkCbLeUhEoEQKSUDZDLeWYRKIl8MEDRmHwfyBrBG6Amyu4+kDxxMoB3jhwgYu7TVAsVkFcWCs4CTBEoF4RctKeOxHIf8IXYpikHikAIf+MNUW94AGSSaoAoFIE3AlOyeWU+p2E5S9yfQZcQILVuQOwZdJNoS9Ls3wA5u2XZTIHECqeJ9kDpSaauRiNVcAY1QhdBzeLBli5WazpkSsBLV25uRaqWRyFawTQzRRIQYirJzq5atkBqLfouwqUxLBepthWb10vrWZY6UOAeyKCCtDV625mm9gmUC4Wc3VLJMMIE1BsA2FW9JraVlQB7n3c9oMKhCLEvIM1zBPZ25/umNQ1tVEC2G+fFCC8g398O2hNQuQlVu752DBfA+q0ptnqO5JFmeuIuo9DY7KjY71UxdJV4EntifPWorW++R/dC4t7V3DlIB5cHx2bc7eb3yvX//QNFp+bHDT/+Aw==);lineShape=1;" parent="1" vertex="1">
                    <mxGeometry x="433.01173392018745" y="193.40198205473104" width="0.39766295932899315" height="0.3970413801155488" as="geometry"/>
                </mxCell>
                <mxCell id="14" value="" style="shape=stencil(7ZhJbhsxEEVPo22BxbG4dpx7GLAcC3EsQ1am26cYgXKz2P0DLwN412rxNWv8HHbh5vXx7mW/8+71fDp+3f883J8fd+HTzvvD8+P+dDjr0y7c7sLNw/G0/3I6fn++v/x+uWsj29O344/2hV8XjhNFbpR3vy9vHIn7++LzZfzT4Xkx3keSNIxPVMP2+BAoyzCePeUIgErRj4CQz9tATJTzAKhJQbaBxORG4M3IdSBTHk2KnmrdBrInX8Yg+W7kOlCojibpJxikoXhKY1iLo+oBkKmEERCYOHHEcQBEA80ACOTHGaoGGs2gJo1hrYkY+FBdr5wrUCgVAAQqdQSkp3ILkAmowGkFkhuBSgxKo/rJBy140A8axJAtkIHTUqlMMwiYQQrJNENNAEhWA9g5cqBctTZkClMFLSdsp2hOgLi2cmULFOC1lr8RJgUSAspK5gLq0UJu8gE2hKba+JDJoVR7KiasHkpf69FoAZi4SHlqaqRkK03NfYXZKtfgLOBB9TWL6wSgptYliy0QEFCIswUSSFwTickHQUCdWk6XDJCH1i7eAglkupVatQBqanU6mtIIfRVbB9IUpUARS18UC8AVpU4tqnKLRKDYlb2ZhKo1TnqvTuNFLkxhhbrk7brbEodm0DQVC6BVUX1wJkpMBalGspuN1qJINcTuEVvHoUzzSgPBFg19L7IEUPFlihMQUXmrD1OLFmRSnZTPQzFerIELAlXf+4lmlGnSTAkH9mMH9LED+l92QCX1hXmxw6/IpOuitjhDBJC5XFd0gEEeciY/RkmTj8KqJzeTuFKhcCTp1XwFrifUdSD2IC5Oi/CILF2uF+dRASqg59s0mhRDl/T1U3vuIrE4UwsC2Aq4ntqRMOnfxmkWSiDTrDJkgEAOKBm7XgjXsEIxdn2bev0+rLxJ67nv0La+Pg53cEfpusC9DUc7JbYq7yiAEg22fhyU+Gib0sEG0COD2OFISu19Dx6uaU02kqi72HffFs4CgdCqMrdDDtYBRyr2xi0he955Q/fv8frwdh34cHh6utwmLv+314f66nL1GG7/AA==);lineShape=1;" parent="1" vertex="1">
                    <mxGeometry x="436.36699998579525" y="191.46298719803178" width="1.53756560075403" height="11.1038943723281" as="geometry"/>
                </mxCell>
                <mxCell id="15" value="" style="shape=stencil(7VnJbhsxDP0aXwltlMRz2v5HgDiN0TQOnHT7+1J1NR1RnpcG6KGH3ByFb4Z83DW7ePV0d/243wX39Hw6ftp/O9w83+3iu10Ih4e7/enwrL928f0uXt0eT/uPp+OXh5vz34/XTbL9+nz82p7w/YwTR14aKrgf55NEvv46+HCWvz88rOSrp8qDvHckZRtQPDkDKMR+G5AjBTcAgqectwGcyMURkCkAlZIC8gCIjgowOionfgQkKrINCEzOACo58AblxKiUHCUEcFSN3wJFRCulUaMUiZHNxKMXlDXkhUA1WPkSkbxP0/MZGHxBnwTs1aiMVt4lJP+b7jU/UN5ny78Afhw5Z+VjeI28ZgEIatWnWHkH+Fd7TfzoCeBf+RzTOAq0V/0VrDyjlLF8qnwEzy89GtfyKH4ChcmADAjSlJRqGXLIAg3gZAEVqBTDlPTKggMA6ZVzFaQVBFHKEyDDLGBNYxN2FbqNK6URwLhaa3mPI0vMMBFysSqxUAG0asfJo9FZSwXwdElUR5WyUAAslWLfoI9wQKXqbLUrmNYaiMfQ0JMKVKpqwxitNVNEjVwojQmqowBiSbSpjhVVQqfhMqBQyhaAbBDlZExRiVglTfmxiEmCsaQA0zWFYRdRgBhApgxSVAHZAAoVkA8KMKOC0lBAodd/uzGW9BGMjM5UswUIopVteDcAUinZ4aLRgFSKk+MqCQIEW+6VVgEZp4A4Vo1GA/K0Akx4Mw7v0P26Cr4EclqWgWIV3oxCI/VQWyWQIJW4m7hOUUTrNHY2qxCgUvDWBo+MFvJTTgsGWFoZDjLeTaNSK1U4qatxdenxuAUIY3FVHhLyXJ3iW+B0rgqEYgGwVma79Kx4+EeI1lO8dYWgJuR7U1s5GzbS2uN56VoCF6uSbYuoDGcsbcyma6mSKEt1eqijJ/SdKGB1VjDFrwS4uuVs0zprSQfltW3Eo0p6glhiscO3nlS0QnOfnRfAQvRlwLQ+cOyNb2vnLkYl35Pq8qw7VZqkWQjeED358Q2pdFdentdjD+bVcIx6ii82qxUQUWny00bAsAm9Ld1vS/f/vHSzzUnNUjjc9g17fQ0GOo7nfg+3ALQO4Rw2jMYE7/50505GJQ9Vaiv5+IZQ8Artu4sWQIC1NHsbde3qAUSptgsew87HviNvtVlTfAsxCFNdHU1bdnhbLbYFOgogLFReipF3SH4y+IXBRWxeOthg29ARrf6gN+mmHIKRh6uC61P44jB4XSDT5a7Hi4KfbsB7L/xredS8mz4mLftl2pa8mQMjLhOv/Ajxsrz++PPF4/Zwf3/+YLL+v/1Cokfnryvx/U8=);lineShape=1;" parent="1" vertex="1">
                    <mxGeometry x="435.8740408076991" y="193.57362596674278" width="5.0772869145610535" height="5.319647666161821" as="geometry"/>
                </mxCell>
                <mxCell id="16" value="" style="shape=stencil(7VrLclU3EPwab1V6a2ZNyH9QhQmuEEwZk8ffZxRH10c95/YNuyzYGaO2jubR0zPSXXnz9eO7L/d3OX59fnr89f6Ph/fPH+/KT3c5P3z+eP/08Gw/3ZW3d+XNh8en+1+eHr99fv/y7y/v5sr502+Pv8+/8OcLLmlIY6Jy/OvlN7WEpv/85ucXwKeHz0dAD0N3QA1SCaCGmHaAhJQIIIeyA1oMIxNADFV2QAlKABJa3teP0MkR7Mh1W99TqMRGLeT97/cWClnvLNR1meB0fcG/P3JQ8v05SNvX95A6Wz9gvYZI12vf1ksKjawvoe4xJxZz5PtbiLC+Lw+erh9oHxlhEHsqntfWC4vQEkbBD0qNJk3dPSw1FGIhS8vc0KRDiAtS0N1GQ0JmgBoqOLkEIUFqWdB3QJeVF+cACRXSxgKXAcwP+xlmXg4SRzF0SOS89jwHpBCBvMzTLFJTyHtoG9sV9kkplLgDcoiFAsAPNYVEgtsAwF41UgI2QO8IaCQ0DCCCgELCu2RXROL6zTVAiwiIfAegsAmIBGChlhyAmdUoyO3AypQBxJk1szPU5dcDoLLgqy6WrBCyQ1ekGQMo87QBdiKrl4A/BzRX/UvobIceFD5pUO4uskrBIacbSSA7Yge5ICulzgGufPZKy0M1ct/zYSRaP6sujrgABuUlOyKkqFzi9xzQll8vAFlF8hygmA+aKPP1HPIefFpDJ/XBNA6ULO2UZqx8xP0MOhafn5d1o63kAOTQJougoNgnDRIaoy2eOxyaKQErsrGjWTuJVjGuBm3SuVY1sbT74fVPnAPaSpdDYS/EDyZ28u4HywemBCzUOujtFoT4QZzAspRiakYjMp/RAqsPBoAqamKCMZ8B8m6lV5V87QxA97MTYn4wEtiJLKXFVFfNCoqMdg3mN3CDFRi2vmP65GXla4EEyVB5HFlBhEilPhOnGqxVpJEdsfjMToJ8kbUtUHysaDOdbgAw0SwWHABnbpfqcu0MqKIzJ4yMqmFwfShOZhhJsW7S4qLuZrU9b0R2BEc3StzGiRXK21gt4DmgYGhbcjBP6yXUDgDWEhuguR2U+EEVWwfhTbEBgIeFd/UGkIqAznfQ/ZOM1ZgImICBgEYowADD7aAcADxsvs/MrOLOkKgoNgAMD5QPG0wjaHEA9kkD+1YDsPbHANEBaGhcqt/BrExbGaA7P2TmadsBMk5pkzjPEBFA/XApTgcAE8UGEJjiyArHq56ODsBoRtDTr0x1NVrdoRl7q58UKZ1czYxzfmA0k2JER0wxxFlAXFJTcWWf7DIocepLLqkrs6tTMjPlWAZ9N6C6VuBGjroyOiUjUz+KbeWNAiGOBaywsm5dXHsvXM68jgAPlZ1N4EydwJzStAOTlHNmCJPoTGPJ+lqc1RdKTKNjCTKFxVSr7ZB3njENx5J6tmROJbKkNiuBzk2XOcrVHg7a+1CYXsq4AT+yxQ00ZHzWNQMTDsBzIeI8vdCueNZ8hfMmRnoJq1VKdCJjyZn35LTeigpK08x76szujWkr++89Ewq3qQGG60DpofOqfoceVxlvJ2Sk1unAcXbRME9va0ZzLS7gXmmO+FmgttX3XxgpUZ1uhIUUNpahr6UOdALTMzz9UYzx0LAjoqDURczXpkplz7ZDDT4fXPWlgQ9b0EmXa2eUB1OPKK60UenTBo4zzK6sWhlNn6gxdqfpPGf1iw3U60AeNmZmtGeFQFy1YiOZ6uYB856VXTu4aV1TfjnT0EpmN3o5U3GHednNRvZuRFmt+LAdftwX/Qv4cV/kAf+7+6KKUqNm7umCjevMB7aD94PcchzW3Uyb75LRrE1oRZm3zPsOnQusrLhD12Xoc8DABBqV1t1cXSegdGoy3xOAFOBvNJKi2JjtD3tE4cWG0OBLGWetyvPBTeyVM+VABTfHOPQZTtndLEoT2tHkfJZCDhxXyT+MWdnAJOKFg7mMaYDoPJboMyg3mRiXxuPKeng7MdqN9fjsKNMLE1fYutDCllGFzXtf+iwr7TljsmyQeHN3463Tvz9wBN34My7FTrgqfYZmXVcCeu+rbzoHFBxhzNcuLKKbK1GZJ/1Ylx2HAsK0hQFggFb5fDgJTiQmgH2SOLmTqALzTDfPwHbQk0/qzKwXbj4A2GV98hesmcrO5LjRAEw6T4Ag4MYZxIUGnXzqusv/j5Oh5O4aDHDDcd/51vU2wH54fVr74eHTp5eXucf/x6e49quXZ7zl7d8=);lineShape=1;" parent="1" vertex="1">
                    <mxGeometry x="442.93362262279584" y="188.614166932447" width="9.084195769589101" height="11.3911558321678" as="geometry"/>
                </mxCell>
                <mxCell id="17" value="" style="shape=stencil(7VrLbls3EP0abQfkDJ/rNP2PAHFqo64dOE4ff98hBF6Lh9Jxs+omQBayMkeX8z4zvCf78O3+09e7k4Zvry/Pv9/99fD59f5kv5xUH57u714eXv3TyT6e7MOX55e7316evz99Pv/99dOQHJ/+eP5z/MLfZ1zuEspAafjn/E2MMv70f7+eAY8PT5eALFkXQJOeiHwQDYt8ldJvy6citYJ8z0ReJTU4TyPntyoprwoHSZUAonSwkE2bXQVo2UxaxIwAglhaAP6NEhvFLLbaVNM85HVAmDY8AF0a8dpmJEvUC1nC6rTkGkRiVGnr76dDpRvyEBQeVpE4LUldg9TDVom8B93qgeJBQVzWJfdV3tOCnN9DRleFa5DCAFXyGtbVbdxIEOlMqwPgiUBU9jyxNUxblEJiwkMgrkZqJpE5rUsNG4A8ISUp+5FIXKcu0VDpSjIn2zTiAUii5Am5oA6l8nrnibXq4N9UkjpFxbbYTqSClSQ5YrJlBiiiq+MsTK2uA6o0qC9RAknn4n5YzRqV6uDRr6vSXjTJiWqcBfF4wMzwW/IZajBNN5ev0BUkkDiqKmENPE9n4mSXtwbyxs6vM4zf5Ol5vL7geag9TUpFedYP0nz8mzxjCS6fCshnEkAuX/E8nf1+nuq9+SsxfbNEBXmWxUMeWjKt7+M8q75eaFg8ZMyw/p6+0NC8QSRStwZgPZD3dGMeyFi3rNEWXgua1KuxsSMVSVuTNWakOmPyomnSrKmz4x2APg95HdCm1Y+G41qRPGt+gDUPeqSB0bbE7B5axEp+gAKRYdRxrSPB9iOx2tt1/t6htLc0RnY2xw2tSPb0itnZlPZAB2DjV1ovekPKPADErA7oFQGMHvU+/XqhNKWEHTltS5SjxhA2M2XaZv0R3RDwjhIFzlRon+pbI/fYUEI73a55A7D5zl3dt+hrzK4VM8gBjL14uJYNwIYLB8SyWYmZNWOdGX5gSmds58PTTOm8eTrRwuQ6KPjB5gx3C9C2HKU61Bn+/z3lYtwAPKnrlqOV1Zm+VQGjtKR3pHkO6Cw0+lY2EiWeAwB+yDNDbh5pCz5GZYbSoEOl3PDHAXmuK46OonR6fms4B6BQut0OanEA2kza64CE0+1F9byOiBgbbgfKmBrmqCtRieecbaiimdjw6RSrQ8qVWQxvseK2PqEei4dbtL5vjInZdcwNa7gWPktWxdLnrI8ye8U+6rySVWMHwKpkbKM4AGeByo8U0dMx0EXG/zJNslD9OU3+nCZX+0OFf6euKHbmaHQo8SoC+9Gxf2H71I1HWuQ7qoozRnIAqVwl4wYpR0raiiIXLpEu/nOfm8GLYsra4NgxQ/XlxDMHnPXacZtxfd+ZcVfo7KKwPfu+gq10jWwmOW0A4jjduqAfiZl11MJ9dCPZEzOyC2/VLDS8muPu3CbJurH9hyuk0ujIvS3zC2fCAcl8LjQutrkw8e1QwNuaZJTKK8473pLZNLKVRzt69HXuhe3GLczu5KLhRsKDhPGc2HDEi4UmjqYZMRcLanYVYW5TmNjoA6xs5YjOzSniQu+dq5FtLaQ0j720NNjIS2cXIwlpms594HX5OpP8iLnJt6+n2JYDhU79XpsNkp4uU1weIqJS4uvyDaoQ7YAuDzeojd/qbPKd7jrHeWDmoju5EjEexjU2VwCY/rgUZnc6YdaQAxDp1m9cmSYEsBVE3obryElC3nZy4wn8Mu4H3254H+Af3l6m+PLw+Hh+F+Py//HlC//q/OKGffwX);lineShape=1;" parent="1" vertex="1">
                    <mxGeometry x="451.8227000020506" y="194.24679273514795" width="7.188296946691983" height="5.680223929864293" as="geometry"/>
                </mxCell>
                <mxCell id="18" value="" style="shape=stencil(7VrJbhw3EP2auRJcq8iz7fyHAcvRIIpkyIqXv08xA7aaj9Nv4FsM6KalHsliba+KfUrvvt5//HJ3iv7ry/PTX3ffz59e7k/p/SnG8+P93fP5xX46pQ+n9O7z0/Pdn89P/zx+uvz+5WOX7D/9/fStr/Djggsu1g6K/uflDyW7VP77yx8X+Yfz405eXG6zfHJJjuWbq2GWjy74Y/mQxvYbwLtMNgjq/KxBri7HY0D0rvkZUFzLBJBdnY+U41jiOqC6Ou+QmsvkUlN0Zb6lVFxhgOJqmgFmyEYA1cl8S2ZJJdeag/MyA6KLgQCS83kCmGVECSC7Mu/Qbc92sDuZdWguJSIvLs3yyeVK5TPckQvkTk1eZiOEodGRfJ3XN09k6+u48Ff5wvS1+0b5SNzU4sQXkPckcEy+4Pqer99w/UDiLJs5FeQzl9cI8pU5XBvX/Wovligs8QQIgeHiR/IxgbwSf+7rz+dJw2GP5CEkla7f9QX/DK4yA7ex3i6EaQS04ZCbxjdC2PLgbGKLYWUx2ZxAKhUXuA5tTkOZF5xeXmYrWBxlonSxTDu7XS9pzG5xnHgDlGGZ64Ds4qyDeJrdi2AkSHBK6kcxwzUEMN+W6ATKcqUlTaxCCd6SEMOJjoq3q+ORARqGT+bOpx53sKoYSMLQgAnVCnUldtDo8gwwKhDYkdLwzQ2QaY40AMR0T2LsSHmouAH8sMwRALK8ARgjNECbnS9YDLIdCtZlAyiJB118yQBCIk6t8udlB3ZLMv69U9oz19AR8jtAIWlGFdOMGc6za7VqvgCU74A6mDveAIBrJO6tdqSMgMp2qMgJLR4ic406bn2LuDSu4RAA7N+ulelQkeRZxWDZWxsGUFHqfNU8B3Kr0CPVMGjaVtfToPfXAZtdB8D2ZGS+JnSNKpSb14JdWAuUS9p6wPVaGp3fdUBD8twyZW8tog62A6P/TQaz2JRuwzLXATo62Q1QR9W7DqjDrjsASwKtYhXtO7DuuSHXMB0Y/TGACAIY52sLSWyeppngN9a/8w16TQ37Z7NlYYZoWILM1Jk4kwHAEOZMrJUxQ+QFkJj36QiwHYAeyQrE4t+B3ZIgJTOlhTmTYNqwa62EOxhgNVxjtyTLtXpa2fuRIgI8B8ji34kprdiTWQSx1NeWqli3NvbQNfICYK7RsMgZgM2T2tI1mdJscNADSPFaEwmg6zFKk2VDEmfOFEmV64lmSfjUvxe63isEv6ZfBMhIXBtA6MDE1kOlK0+WAbvRfg3EEN0TYOTg+dDktTDvtqCAPLxzp7USJYw9QF20e7jFTyDmlDq4Lv5aeTtqpAw6M2sqbnDduHAsZUcS5OvWv7KW2nqOCO1oo5Sp900wVg6c61qJghluogxIN/ffsWlWtN6axQF4axZ/g2Zx4euxUF6pCz2JjQ6MzTXAvVOmj1e6DWO2mPZc6YjPXblQeqIBR30lDOJ4NPWC3q8IVVoU3Vs8jQcp2FLLlqmOZoN1june8LIjeWy0+iFJAFnHXRsCKhu5ljGc3AHYg1pJyFxF6PTRzJRmO0gaLfDRYBqe7PrIlT3nVIwHuwbGXLPi6LtrxQFxjgfbk81C8lZkd8N1+iQlg3Xuxvcs4gwARbG/IDPA8hIaEzVcD0goKEKn8X0H4HCBZu+uw3ytSqnG27vj27vjlFr+Z++OuWEyVS5fsUuygKEOveShUChPzWXhR56O9nLCHfpHHcyHPLZhsdHkmxTHN8YtWANt/4ann1TpU2jyS0cSKXWOgn7RMwfZoeedGdCfnInSoY6WfwNEOs8MGY9UMlU6eMyNRajzCSZrK5qZBGfAJ2/rC1nwhOXzpEq77YCDGJMXsv7id4X3eH6hg5WyiiX2+2sGCQSPudrkGQNeBk9mr0Ls5bHemzybGPrF4wotfn6xV7lxfhhIdgcltM5ji23yLHX96vd2t+Xth9eP+z6fHx4u3wbu/48fA9qfLh8Spg//Ag==);lineShape=1;" parent="1" vertex="1">
                    <mxGeometry x="423.4126228563596" y="205.92687497418768" width="8.924965253942572" height="6.0517710366521955" as="geometry"/>
                </mxCell>
                <mxCell id="19" value="" style="shape=stencil(lVjZUhsxEPwav05JGp3PhPwHVZjgCsGUgRx/n964tFizu+3wZmvV0hw9l3Z68/p497LfBff6djp+3/863L897vTLLoTD8+P+dHjDr53e7vTm4Xjafzsd35/vz/9f7qad068fx5/TCb/PuBSllgkV3J/zivdS67+Vr2fA0+H5AhCbJB0AVRrbH6S0YX+R6d/Wfo3iw7A/Synb+0OTWM35LpL9Xlwx8lcij48S/Wig0E9YBziJxqJZUtoG4P7xAohYMr0gjB4ISZInAHweXaDzEes2clLSCFDJRCTYPI86K1Ya8XIWP+oQuVVj6ufNgCyV+DlB6ZFHyXetVgE5SosjAH4jShfYZLRS9uKZo73EPAKSeBI7tUgbzZqrRELWpuLcGAxeAtGhzcE1A6I4IlJrEkalS5HoGFudlalGycRzkCmO3GhQgvAbWvsxBbRIAbV1HWdAptyAxCbkWpVCHFFqT6IzoNE0AzLpyO8Lw63ztYqqvSKSqM5qoxpKKAnShPMMALmV2DUhhkcl4JrMikPsn2duzFqtA3CeqT6lB9VW+WljzNUsygHFABKNaojkRitV7ZlkC1BNQARecpGZggU4pgNUNDd4SeyGshDJ97K61QWEbAGFAJKz6Rg6RGLWtEiWMGtk5PM2WSJqWf6e2DoWXni6sHjw/bwLLjV2g1vQGxmdcaktlK608MYqzpi19ZUtalg/XOnfwH5vAcysUW0dhdKMGgCYXqDybDyFqDFr4iIhCSxK0JU0kwxAaUVBiCZjpdBjcMus1fgBAcQAZSWmI+uYqm28AWB1F2y1fgjiWTx8GlAWqbJ0Q6+XrGB74+ZEWRPXuhFnANIMEaksRJq6CdY7xEXZRXdC/ICAtGwtNM20xcQE8rEAgsRqRqBGARApGUDsyXMdgCRg2kQkTxJAU/8zWgntCiNfcTZE0Y8X4gdQw5vuG9TgzUk2/X26lmYsAP09STO6yEvTjELoHeap6mIKYp0AJrk8Zg1tNOJaHxfm/TiB5TE7Dij3s7cFDtNsIG52dvjGjYH4YDE7BO5kb6MZs3dmk65lnecOSIsWmqoL848Mylx6tVMDFoh3fbVVJ/C5Xi2jHe1fpqedZPYzdTV29T72sxEG5C1WHhZgUy8SzP4rb1UmXOYBZd272oe6D/uzKQ8Dkrf+pR0nZkAzPHe+ruc4Z9+e5neWrf12dumVYWu/of+s0NZ+W46lsRztbBvlHQ1HGKiNAeB5cQXAdEUA0B6+2udCRLxnN6BDKRagDJDtiDoBmEipF7oLQGC0++yb7X8A8OPjifjh8PR0fmG+/G6flLF0fo7W278=);lineShape=1;" parent="1" vertex="1">
                    <mxGeometry x="432.5300368668268" y="206.58478875954995" width="4.671968894130337" height="5.724424975867766" as="geometry"/>
                </mxCell>
                <mxCell id="20" value="" style="shape=stencil(7VjbbhMxEP2afR35bs9zKf9RqSmJKEmVplz+nlkWF3scHwRCQkK8bTY+a3vOOTNjL/7meX/3tFuceb6cT+93nw73l/3i3yzOHY773flwkafF3y7+5uF03r07n16O99vvp7t15Pr04fRx/cLnDWeZsl1RznzZ3jgK/O3F22384+HYjHdMMXXjraEc5wCfKOUekCkBQPCUTb+iSCXMAdEQcwfwkZIFgEKudICQICBFsq4DyCcsWFK2dcUVkCRuBgAK+R6QmayfA0og5ztAiZTzHMBZA9iRAUyzRKkPK/v6ZgZQxHGoYpkBQh9WxkzLHkJPnLwxaIZIrDZdYFhli6WXNzMZIA22FIwGJERc0X4QAAPihNcSleMMGSCm4iuxzRTZAYDRphaABR4VuQar4+rBDDnVJNEw992EM4AioiQyaEmZsgIE8kCuYrDci6k4YqA++VulyiI2R8ylwaMWbrqIEsoAwHKNAyAjQKribDaNpCG8FqfDapEhWFtuTUyAOAEUBRCb47QR+1wpcTMo9SWyyg+munYWVqPShiWPTM1Vag0gIy1JhQoagEqQ0DTugcGS8rAkWWRGfshDWMXTqGalgThRF0oCuQax0RIjANc89wrw0NOi/tSnmTVuyHGxZvfGQAHxUKq/GgCaQaqsKnICQK2A1KzEeg8eVUUp1EOUEA9rhVIzxKquq4Cm4DRUlz+K+Hf7E5T7fqc/GbqH//3JX+hPcv1eyxwApEBFZRquVeb6KUVODD0Ra21HxxqRfx8lOYYwAARhrpdrMjUzXD/LieX6EhEYOsibGpPXo1mBVcsNPZYcOANQn02aaWergCeZSTeWNpIHUbJ6zxmK2+gaF+GGhzQZalc6Ga5Orr72EZO1236vDtLldDeJe5JAofeMgdlRmoOihsN0rc/cBiY6O5R+nISstLFGLwcLzevvo3bKildUWqQIUtavXsT8fLw8/Lj1eTg8Pm6XRu3/+pZIXm03TP72Kw==);lineShape=1;" parent="1" vertex="1">
                    <mxGeometry x="437.5080082134999" y="208.72250592862684" width="1.48877315597" height="3.2657674339136955" as="geometry"/>
                </mxCell>
                <mxCell id="21" value="" style="shape=stencil(fZbdcgIhDIWfZm8zQAg/17Z9j85U606tdqz9e/tmZ0c0uJ47xP0I5JwEBl59bp8/1kNwn6fj4W39M76ctgM/DCGM++36OJ50NPDjwKvN4bh+PR6+9i/z74/n6ctp9H74nlb4nbmSKZeJCu5vngmZ6jzzNAO7cX8FVKEsBuBKrgKg9oAE8gkCbLeUhEoEQKSUDZDLeWYRKIl8MEDRmHwfyBrBG6Amyu4+kDxxMoB3jhwgYu7TVAsVkFcWCs4CTBEoF4RctKeOxHIf8IXYpikHikAIf+MNUW94AGSSaoAoFIE3AlOyeWU+p2E5S9yfQZcQILVuQOwZdJNoS9Ls3wA5u2XZTIHECqeJ9kDpSaauRiNVcAY1QhdBzeLBli5WazpkSsBLV25uRaqWRyFawTQzRRIQYirJzq5atkBqLfouwqUxLBepthWb10vrWZY6UOAeyKCCtDV625mm9gmUC4Wc3VLJMMIE1BsA2FW9JraVlQB7n3c9oMKhCLEvIM1zBPZ25/umNQ1tVEC2G+fFCC8g398O2hNQuQlVu752DBfA+q0ptnqO5JFmeuIuo9DY7KjY71UxdJV4EntifPWorW++R/dC4t7V3DlIB5cHx2bc7eb3yvX//QNFp+bHDT/+Aw==);lineShape=1;" parent="1" vertex="1">
                    <mxGeometry x="437.8354332220491" y="206.93185551716454" width="0.39766295932899315" height="0.3970413801155488" as="geometry"/>
                </mxCell>
                <mxCell id="22" value="" style="shape=stencil(rVjLThxBDPyavVrtdr98JuQ/kFjCKgQQkNffx5PVDGPPTqFIuS1L13bbVXaX+yBXr/c3z8dDTq9vL09fjz9Pt2/3B/l0yPn0eH98Ob3Zp4NcH+Tq7unl+OXl6fvj7fnv55tp5fTp29OP6Rd+nXGVuEygnH6fv8gk7e8Xn8/LH06Pq+WNenfLOVGV/fWDql+fmUreX28/x8kDlCo4EDP15gCiJAUAhDQ7QLU90ZEaCTtAS6QDAAYNH0O3oAHAcpL9DiORKAAI1eoBRgwDQKXss9QbjQ4AjdgT1waVBAA9ZqkqNZDWSRobHjoKWmn4oEumCtIqTDK8NEztYAfJpOrFN6iBtEqh4dNqzGRQDtKjvE0sHcRgIQ6fJc7wSMXU7wFKue6vr41UvJQoA55boe5ZmCoQJNV0EzoMVyhuK5bsaWOFWu2Fij+Syb2CFtA7ldAzLKkgSVM5+iOVRAW1PZmVuQAGDNrqd3iAESMgaE2UPc/GjIB6U4lNxhKtIGit1EIbs8YGgtY+XwWLlArUkiqpl4b9RALVYIDQM3TMabgMGLF87CcYBd1JOQI6uH90QxynRAlFXWmUuMUAclXrMhoBGYjJAFxjmtCta9poIxIhoMsYIFBteYDMCfVAxNI792LIIUsCO6WlNYUd8kf61hEBBWsjSQQIAgxKNQIaYnpsCkIwDxprdMobahtWcv5etzSgTrZS84rqhrfoAdAx1Uop6HvAhj8VfSBiycMec1uA4qrmsQEg5hZnsQJUxFyZ2/sq6I52kOgqLaqOgpb5ElwRVzGghQpabON/AnCUht17io6UYskNhjU6euyV5g7QDnZFhXGgdegq7QBbo4sMkLmN5rtAzZSANLrEGEqBl1ZP1HyWZHF1lz1Zn6W2ANJ87+25vmh0cb+3Ean4LGWjEkjD7E7zO7DxANJaeWNE+zycXnbGbb4/Vr4SNbKyNOuVu09ofhibWTTBErVxIAUe2sz9ZYA1a981ikBPJosDW8TH0M+IxFZpVKIB3KyzeLU2xVPWhrj3CtkDsC/RUecR4TIgxZHDGg+6qHPZWIEG02piDrPo1AvRq8OIo+VYrOneq0OwAtZ4FKSVS7RkPcOatrktdj789qORaJMSsg4bu2RDU0WjKLFvGcbjQNP3/OSxlCd2VxzLecoAOL81LF9rAi/ojU8S2OXT3D/fH96QcUtxrGd4S6Vo6D94siJuYTlyChwzn+bXosvVQiJhORqQFtu+Wg5lUOPZ0dBZosqwKEt8wOTZ0+8s10gTumL+8fX1w+X24f2h9+708HB+J17/Pz4M21fnR2W5/gM=);lineShape=1;" parent="1" vertex="1">
                    <mxGeometry x="440.1202952117069" y="208.04030825540872" width="5.073294570066169" height="4.301529829394991" as="geometry"/>
                </mxCell>
                <mxCell id="23" value="" style="shape=stencil(7VrZjhw3DPyaeRV0UNez4/yHAa+zg2x2jfU6if/eVCbStEo91R4gCBAgb3OQ3ZRIFouUTuHdl8cPnx9O3n55e3359eGP88e3x1P46eT9+fnx4fX8pp9O4f0pvPv08vrwy+vL1+ePl++fPzTJ9um3l9/bE/686Ik3kpqWt98uvziT5a8ffr7IP52ft/LOWDvJe9O+3ZIP1VQ3yQcjgcr7OsmLSYnIF5PyJJ+Mq1TeySSfTc1EPps021OP5MNsj/PGsQXnbu9QEBPiXQrJCFcIZVYoR28os8+cLpo5uRiZFTSK7osKDaPCws6bGBcFsgaRvicbhb8jd18hmTzvkrd93/YVirEFd8mRUJXad30ojODaVYjWRIilZCx5Q3Q9V7axRIIvepMCRmskfohhWYM1mfhBFQrmj2UWifHzC7IR4oW4+Fnz31F5N0ee8Oer/QHk7YG8B7wrJBNUvqJ8ZPu52K8eYc/X5VmQP9ifDHljKgu52GP+Kl+4fKwoz+zXiPcoz/Yn9fKysZ8FdDIF98eynMz976u8Z/Gg4IvPj2y9Gu4YD5k9P5k6Pz/S+qfyGfPlYD+hFlSTWf6OdB0AoRHODNKCDxDE35CcqeDh1H/ZV4gd0saWRiOkhqfat2TkvJhKnJAFa4emUSGLzrU/b3hBH0EUSjR2LgWZ41CpaFJRpkfeUAOyBH2EEKSoEatTVapGUk0VAOpq6au6ZRJwL2ctLeJqcoJoVV+SVxR9xWKTI2/ICx7pshgApNSjeSg4E3lGy7yvJVNHSOxLHAqKYcQRGv6w6FwoyGiC+XlbW8QTlFdiA1U/O2qSc50kj4TIHPdMBRgT2rd4hKUGIwSHlXrN9jScInFhsS1SN0YqX+ayqUSAoV5AlFRyyHA7d5Y1ICxTCGtdyhwTGlaMqGkPAYVWObonCuqyDMxFs5W1IcqcZp9pY8JSTQ1Ic1BopDtW/LXXnTNH3+kJSCaLmRPGI/YVSof1oTAi6xa+AL/TgssIQ4N1IEiFdhWKJmkuh60FJn5QvIIW2w9ScwvoIZYUQJinG+bComMH8lsKIqjA0k0VgJarghAEqyPdf/QNFRHjaA0VmWfLEFYOa2fiGwVGrTbVcuMIT4KpVizRns8WasXqduTqunhuMPBbCtBmNwVGZDTllkVXHhthNYkRmbL0JKlj275CRhRQBZbUqoApl3jKZez8VYFyq7yMOyItKG3Ra46yDCp99LDNIAJ9tSDd85ynt9DIiwIpEC34VpM4CuQFNqin1wSKfdR1R46yorUDA6nPHH8UaBJloA3KloRgQ577FRYu4DNPao9DT61yrJ0pBft0raOOmFTGAHKjwGBDKzWMJLW0Z5LU2lZ6YBvuqNOF2UrwtFJHvwx7hFY5CYtCohQrDJY9FDTNiR+uyDhoIt8lt7RwEiivdKHX5Q1zZdS+4ARKCm1mIqK90kYhz/c4MWwzPtZd7bQOdEv7v0O+0DCS3tBuWh/HphkmzFGXAq0M2jrA5CDxku6Wkp4t7TX8coKRD7qlhMQ+Z36stfRLxfGxVcbJeUmdRuwnc8ZuplqKYGoxnFRVoYWhCAZ2TXz4UftodDP8oAU39LOvocC7SlVAk4SOY7XXgArdBlm8mwFir0DOYLvNRiCW5MgPUG8TH7FmjwQ0HoyIljNGRTB2QJcCHpJqo1vYVLZ2mrOpt554WiEoLadhbIATBRWc8EF0QIVKSbfKQ0OWaLf0bxzc4EHMP3xwAzD//8ENyP+3D27ywnOMY/GckXklHj8ZD0Yzz5elAlbKQpq/IOFdnxLfCiCoycrc6HROcK7tIsegJeVdokwwLgNDN4YHtwaGAfoWS7mg1KWrcLQmKxeFJqHFNVNY81j6wcy+gttpsz2bwxZEIn0D26WwHBe0XCa71M7jKu4SvfUjSw9sKadVhTRnsxsjxFsKssQS40aqENa7F2yXFoBXIm1JAqkCNJyV9i0qD2cMg7Pe8gLc7Yh0kBwWhOcnvSqPl364Cyr6jBNmGW3NVZ5VBJWPHuVZLjtk8Pwwsp2HCMof3HHKIO+YPR6PqS3NY1mYr6VX8Vrfjfaz+FF5AEfL73QtLNbR200qjxffKIdt64VrbHwY4ns6XeUT3//7rk4eyuuH6z3NT+enp8s1z+3/eK9Tf7rcCQ3vvwM=);lineShape=1;" parent="1" vertex="1">
                    <mxGeometry x="443.7116996843582" y="207.42542797506343" width="10.57699140446896" height="17.263372418117758" as="geometry"/>
                </mxCell>
                <mxCell id="24" value="" style="shape=stencil(lVfLctswDPwaXzEk+MQ5Tf8jM3FqT1074zh9/H2hqnRFUNpMb7aEJQRgFwB34eHt8PS637F7u10vX/c/js+3wy582jEfz4f99XjTX7vwuAsPL5fr/sv18n5+nv+/Pk2W069vl+/TCT9nHFdyeUKx+zU/8VTcnwefZ/vT8bywD9xeN/tCJW3bR0cp9ucn4gAAhVzvgB1J3Qak0F7fAZW4bAOyp9wDQqYMYs5ChTtATBRlG1AySZ/UFCmDLFUm6T3kQMkDQKHQeyhat7gNEE/eAARmSSK50gFqppIBIJPrY5BADADeOVtqUTYCbohQZgv4+2QdUKimHiAtD1tR12oBiBuaVxu1UAXc0CzmPq+LPGyRg8W6EBB1qRTiEASgX7lLcgFAIi1h+CQtBFKEtg1vAR4QXD2kPk1ay4SCTo2dC4BDHsQSXBmckeYC+WgBAXQmFWlKAwCLtA4eIvAgacVDBTFo1oO3WYJtQNp5C0DFGpVB1BFptFKqFiCASxq0DBqNKAZuZVpqFFW6DpUWOIOUGmZCTADwSUo+G7TA7qojxQ+dDJFPBVQGiVYE4DZAFoAA+tI6ACnOEw8TIoBKZ7GF0+4pQEBZ5dKzdUo0Gu3c9LWYo3DbKHZA6KSugN7J286XUhsZ6wtQtJNatw3U7kNqzf2+z2jnA+1eV7ZgVqwKyedVXwbg4Xrig90SdesrQA+xTY97oZsCV82HxYHJAR65ccfNoIXpvhmMuQens51UrilvI9RqzSOazTaTjhgQ2jvbfh3kgo/E1dqj84sl2z2568lxdn44uFnwMPcdFDArr+z31w+433+PNiVk/5/3o4/t9ce/y9jL8XSa73LL9/bypo/mi194/A0=);lineShape=1;" parent="1" vertex="1">
                    <mxGeometry x="428.24743219456343" y="221.5787172550838" width="0.870026524281089" height="6.4805351261718585" as="geometry"/>
                </mxCell>
                <mxCell id="26" value="" style="shape=stencil(lVnZchs5DPwavaJIgOdzjv9IVZy1ah075Th7/P22VsWRCM60K2+yjNYQV6PBOdmHn49ffjycNPx8e3358+Hv89e3x5N9PKmenx8fXs9v+HSyTyf78O3l9eGP15dfz1+vf//4crG8fPr+8tflF/654kySXUAa/h1flPD/F5+v5k/n5zvzGMTaZK9SM7Fv0sJkH6W0Y3utkubfD9Lqsb0VUW9v6dg+ZYnd2Udin02yOvtQju1LlFi9PYln6SPct/iEeGxfiz+/Se3H9g3hmPNbJZP4NxWbfz/qyPgRIDkH6gjZ4YnSXEEoIe5ymUMKH5oRQBKbj2RhHHIfECXFGaDSSFWUJuqekN8rC8szoEknYc1VrEyAFGiiUahx9iEhM6RzUpM6V3ZKtPQSmMEdKUsimYaLeXY6FakkcYYnOB+aBALQ5qs19RG3fYCOqA9ADlKIDxF5dQAdYdgH2OCTuyOxjrsQ3OoDqVZUv890p8Vn5jnmkntSS9aldw9IxAfkNVQPUJK4jCmQPSCS4kMDaVkAnFjD8oTGaCZLW0uDUWuUPjdQTiMM+4Ct+jdAG+y8C+jRk31RiSTTfanWUjigjkLYAH304D4A/3bzBC1FBcM2ADcE4kAQeITOccXIYMXUi/S55ZpJJ4noOg6wASolJmTOTRSkhh2pLsTUkySik+omKzZApWyMhmhzIvomtfZbLvm5i0A3Qn2pLpM9cDEDwq/FPyKTOWrV1wYAkcm97EcKvM4kTJYkL3EtbAYliS6u5T2AzXSMLmQS2pYmRW2wkQKN68RDN9pzyEOIHsAEEAi/FQ9QVhvRUxkAxtSG+WICoJGGgBhx8gRRyoSOIUay+TwwIQqAr9ZCqxUAt/ugljJJHHxIS48yFkCUfOL6KMejPOjacUyT9cWHTsNqdWmgTocWytuJh77RwlEDeSarg9CPAE59XyYAYw30tHM6v/cEXxpJOkmcLeIBgMjyUJfSsFG/R4nT5AHKqjWOA9wDWAP9LgBKeD1SIXnIKy9BPLC1KY0JdTd3EzkSNrk656H1Qc9Hg1pnbsWspwuy+QX/IjbIEyAtwipnmK4ER8zFB8HE1DcAbuWoNoTjoZxxIi7QtQkuFicTKy3v2qXOUSpGd0Wob52fkDsHINOz05mzN5SwzXmAIlIS1rLdPG0Ao1SJfgjmAaxasTb5lYPfvqFFQ/KAxtg7je32zmnG3tioQ/eASnpao890zoNt9xeC6G/UAEjsCs5LPvhs7MoxDCWybX6Vr+xtcPvdxQYTlbqtF3dXJ3Rl774ykvIBZMsGHrnUUO8DBkZgF0xhlOYGKHxlL0OvbQCjT8Cuqu7erlMf0KGuMpRfMJW+ACIlvrrczsZKr04AcCMuGp8nwa8PMVAFByIN/oKWbUDrBXPma58t7TOI81DkLvZsware4UzVHgjG3fwUOkk0jFa82bMXCLfr6ls8Obu4Ydv4HuP3+jZ03H50/MxplLp0NWcvJ+Lw7OYqK4Xgd7ZKDxN86Rd6XbBc85ShrI7M57RmytHBv+bJY04dmLu3TtgdSVaXkZRoz+pgpY0Jadx/8xXbu+b4cHub9+389HR9GXj/f//2D19d3xzap/8A);lineShape=1;" parent="1" vertex="1">
                    <mxGeometry x="428.4191305519638" y="221.0097566644434" width="4.1800760886274455" height="7.627444603289057" as="geometry"/>
                </mxCell>
                <mxCell id="27" value="" style="shape=stencil(fZbdcgIhDIWfZm8zQAg/17Z9j85U606tdqz9e/tmZ0c0uJ47xP0I5JwEBl59bp8/1kNwn6fj4W39M76ctgM/DCGM++36OJ50NPDjwKvN4bh+PR6+9i/z74/n6ctp9H74nlb4nbmSKZeJCu5vngmZ6jzzNAO7cX8FVKEsBuBKrgKg9oAE8gkCbLeUhEoEQKSUDZDLeWYRKIl8MEDRmHwfyBrBG6Amyu4+kDxxMoB3jhwgYu7TVAsVkFcWCs4CTBEoF4RctKeOxHIf8IXYpikHikAIf+MNUW94AGSSaoAoFIE3AlOyeWU+p2E5S9yfQZcQILVuQOwZdJNoS9Ls3wA5u2XZTIHECqeJ9kDpSaauRiNVcAY1QhdBzeLBli5WazpkSsBLV25uRaqWRyFawTQzRRIQYirJzq5atkBqLfouwqUxLBepthWb10vrWZY6UOAeyKCCtDV625mm9gmUC4Wc3VLJMMIE1BsA2FW9JraVlQB7n3c9oMKhCLEvIM1zBPZ25/umNQ1tVEC2G+fFCC8g398O2hNQuQlVu752DBfA+q0ptnqO5JFmeuIuo9DY7KjY71UxdJV4EntifPWorW++R/dC4t7V3DlIB5cHx2bc7eb3yvX//QNFp+bHDT/+Aw==);lineShape=1;" parent="1" vertex="1">
                    <mxGeometry x="434.30589740090545" y="224.9324684659677" width="0.39766295932899315" height="0.3970413801155488" as="geometry"/>
                </mxCell>
                <mxCell id="28" value="" style="shape=stencil(lVnbchQ7DPyafVVZli/yM3D+gyoC2SIkVMjh8vfILJ6M5Z0Oedtk1TvWrdXynOTNt9v3X29OMXx7enz4fPPj/OHp9iRvTzGe729vHs9P9ukk707y5uPD482nx4f/7z9c/v76vlv2T18evvdf+HnB1UitdlQMvy7/UdL45x//Xezvzvc7+1Io62RfKbdj+9woxsm+UGVgz5Sas496bJ8SBW8f6rG92Pmzsxdgb+GI1fnLGdgH0uTiieLDmWSOJwcqAQAiqQMIFYGAv7+3AZRSAQAh4QkQmRTEiBOpzIBMBQSJK6X5SL3qQJTsADwDxOoElKlllee0iVBNoC6Y8uyD5PHM64BKEj1AASAJtblSrRYZJC4HqnkBgF6wXuPiAQU4XZY8mFeo+Gr2pSGNEigNjZ4uUhyEcB2gVGYfUqYKnG5LP6RGDTjdjCBmQBYMUOLZ6awj99cBbeR145gIM20AnfNQcC0ZoDkWszzgJzRH2zKK5V8BhRp22pW3GpEh1giBwuy1plFeR4+o85m0UkNOqE+1VUtAT1imSbPqA4nQ4unenpkAk9Xqy7V7BcJUrCFmntkF7ogGEvtHIP42onG8YQAB1ZR4ZHbndQZxNfLV2YlmsgHxd/bVZG2b0EiRcYBd5lCBM3shYMlXVBtjQu3sGdCGUnUuC2a+JQkRKo1FmDSmgChgfLvZ4zIyHSJOGTZ4IBMa7KSPVQXWDW5IGwDVHZsWFA9IIAemdDh6QANJ5ja01M5pxGIxeHVlYUXaxwCOui1vFQMcAfSRh/LQxgF2lacvRGlphYKiVJbay4NpjzIdgwdErHJZ/ZEanCYkS3sKIGJrhyVI+VXtFiHlre3MQ2wd0cVSR6gXjI7m37dCRb/f+W4mSGuFippNKKkHoFXJVhnHqB2AKPi1gJiWZbVBTrW54+e5zTpQFSmMbW2XtgiOlOqY3nuJAZotZ6/1DIAIoyQvP3v/gzzUuLRzhLtPVc/0BkCZ7jot+bAWEFaTSW7RMOWGiNsAnoexNuwAV0tYfq6AFwTuFYDAdUy35Wsn0jMWk3nOQymwWnVZZYrA2w/N/jbGxGJBTotXPblAfavsec+2qwAaqKrfo02OBqSgk2eN3oOogZqnblspUbVax7mwpgT7IVeSubxt2UfKJy+qwQAMAPZ1ZA9AE1eSF9C2eKNrorjp6w3AWHGrv7kSTMZ9Ai3XE2gby363EoYKPY6riO1WacvLVfsw5t9mH+Hd57KvMparwbNkF7wgZ8v5t0XuQDG442TILibaXL4i7IK+gs3HCVCBiW3KxdmjBcx6yvHpC2vtNsSe7dEIKexvknj00BFNOH9N4KGpafF013Pwoso2/zSXW4Jc3YkxOXt4s9CG7niuhwCq2ezdTXuGo6Aua0WBysjs3Y2qzVd0t9j8rlahwLb4OMLSIemP4u+mqw6Be5RfL5ipovhnny+Fl1M1Lesy7K/Xvql52d4+PL8W+ni+u7u8Vdp/718j2b8ur6Dk3W8=);lineShape=1;" parent="1" vertex="1">
                    <mxGeometry x="435.6628518715754" y="221.02205475926985" width="3.7833637975807584" height="7.046693835186779" as="geometry"/>
                </mxCell>
                <mxCell id="49" value="" style="shape=stencil(lVjZUhsxEPwav07pHumZkP+gChNcIZgCcv19euPSejWym+JtLatXc7Z6dhdv3h7vXva74N7eX4/f978P9++Pu/hlF8Lh+XH/enjH0y7e7uLNw/F1/+31+PP5/vT75W7ZuTz9OP5a3vDnhAtNUlpQwf09rXgp+n/h62n/0+F5sz9GSTrsV3Ge7FdpbXy/E08OSEGyMShKTAQAAwygSCYmZS/RmNSkNgLIkkefwxqFy4AmxY0AleXnNUAJUkcfohfvCCBLKiMgS2QARCmMgCZaCKCKG09IqcftMqCJ9yOg9txfBKiTMOYh87AqYhJHgPZiuQbQOgCKp1HSIDGPgCSVJE6j6BhWBLpVAkDiRpMQBmUnNAmm4VCO+TqgBmmjDxUdRzJd13ZZAcg0yUNzveVXAIolEgDyOkap8Tx4hyPGDmoqnsS1gccM4AObimi0gEpoowUJY+bayp1X4+osoLLMTU5v4nCt/AwbL0eQMKE6c5ucYF2NatIpTOwEWNwswJMCz1OBI9WBlB9OMHSMXLJElNgtXgFZlJFltXQMgGdEk6SZYkq0mKq3PQeAstoArTgLaKSrl56L1ofEGkInk0pP5bWWM9wHQCNhXWrThFWp0/jbAqpk7rTNA6qLhRXvmwDKmhosMDX1B4Rf/AQgJpVJkQFQGABsPfngSfGhgepEfZH4gBaNExuzPCwA/ylA6hyxuSEYV+YgbiSBJZVM9TkrT3DLKXEa6iWMJoGfMynvVDqTbm5q5kPKXeNttEAjLQoFZtgbTMVkIgBGYi16hp9QxuJbFBMHGIkFTVZIHgBIYx6g+iggiI6ZTq3rwMuAqbyXuJE8xGovlMh7OpZJTGfaojFIGfMAfc+UK8Yy09OYIFi1htynqhWQxBGTMOdZAC9vr1YbY4VdipjbdMw0VhjznSfDzazIyLj0CeY8iyZCMq4LwtVjqotnNUZFg+uDwnk7u3mCHeBcv+suF7VUZ7Yz2aZW3GLWIi3jvR32XF+4vD/ZS43rVF97pDf7eXFm+/5AOALhMTrY0UkSlVPtfibXwio7NsklmvazX1U+3o+H8yech8PT0+kL0PZ/+8kHS6fPRfH2Hw==);lineShape=1;" parent="1" vertex="1">
                    <mxGeometry x="476.7261773040595" y="12.017086704315252" width="1.0295806533860918" height="7.977912562591429" as="geometry"/>
                </mxCell>
                <mxCell id="50" value="" style="shape=stencil(lVjZbhsxDPwavxKSqPM5Tf8jQJzGaBoHSXr9fWdhyDG56yny5oOzFMnhkNqd3rw93r3sdym8vb8ev+9/H+7fH3f6ZZfS4flx/3p4x6ed3u705uH4uv/2evz5fH/6/nK3WC6ffhx/LU/4c8I1CXkBpfD39ENSGadfvp7snw7PF/YxS6gGoEFiIIAuRS0AHvQ6ICXp3QK6xEQATaKNISep4zpAo2QH6JI6ARRRe6Si0kmWdEhIFjAkt+sAnFiDAdRMPeQiycZQh3Tmoc2/J6DlmehNQEmShwF0nXnbBlRRW+neadClS0veg5JK1yTNBt0AKASALFm21iqDAZAlBwiS43VAw99rapB+wIljtORrosxD8VnKgTZQ6xKKbaAym3YT0KMM6yEBQDz0IsUCYp2E3wYMaZZLKoVQaQRpNkk4IolgJC9jeABh3lCp3j6SGgwIQHX2gZ0fshqdfWHnQaO4hEolNB3DKxhYxe2HPX+mFFrsbStXSmrYq6UcVJ/VC3pr+RADJdCAf+sgxsnyaxWL3QMKK7FOrboAKNHHEf2cQgyVBQ0O2KBRRdZlaBpbBIgTiQD2ap9fZJAAYF/tzMkSGSmCLzImBCsBEu5qRuc4KhDs+YMk1jTZiwo4xEhavVSHObCuNfFwJJ0z91oTRJ+fyhg35oT/yD+bfjGc4/voysgYuipw5wn6rH32CUJGK6sYEmhlMfG1qDffxdisWI569jqxLEoMkFarXZxtuj1dx9yPz4A+xX4b0PwCjNWusQ1hJV0t8g0hebWGz8aXFjdekbdAmFT77MQzYFAP9SwNZ61rtBmwNQ0nv4G3M3Z2tQhoPjtTVt9v2E87ETBwzU3lpfiETJq9wiDTSkbC+iaCjTUSADoy2hbFxaKz21T2HkqefNwGrLiRx9z2tmUJo9mqAFqOzZGoflnLkbJvdZnSRoU4+giWNJOWDn45wpW2kvNg5bc1SLwZwGNLVFSxkoyuZB6Dn6lk8HqBuaAkP8HLPBaFRPID1XZzLdPNKK3iVToWdF42LuzZXMur56cpHtvaMteOi+ezZbNO+l7Ys1vmZ9+h/N8eHz5e2Dwcnp5O73su//cvePDT6eWQ3v4D);lineShape=1;" parent="1" vertex="1">
                    <mxGeometry x="475.30762923433485" y="16.439580266812534" width="3.8651876041594213" height="3.5612171101422607" as="geometry"/>
                </mxCell>
                <mxCell id="57" value="" style="group" parent="1" vertex="1" connectable="0">
                    <mxGeometry x="461.2641916657533" y="19.99714787996127" width="121.83756206500982" height="25.262696826427252" as="geometry"/>
                </mxCell>
                <mxCell id="48" value="" style="shape=stencil(lVlJcttADHyNrqgZYNZzln+kKk6simOnHGf7fcCohuYAZEu5UWJjFiyNhSd58/3+w7e7E4fvL89PX+5+nT++3J/k7Yn5/Hh/93x+0aeTvDvJm09Pz3efn59+PH68/P72YUEuT1+ffi4r/L7IReq8CHH4c/kjUAj//nh/gT+cH7fwSNIsPgF8o1gsvhzjOVMXi2/HeElU3Pr9GJ8ScTD4CO6bhbpdP8ZjfBHKyeL5GF+ZpBs8g/PUTi0bvID7NtWnPU8B+u+BcpzwEeqnq36CwdcK8JXqrE81IDh/b8O9Br5QE7z+fJ5Ogs5fiefzRIYO14vdIGYSdONiPS52CsAleqY6hyQLMYgxFUjzHbgOLzkSkNnIwlSwABuBSgWpVQVmmkiMtaR3mOM+VQpYoMxHypEKFmizWnOBVKSGs64XhhqOBOK8Q0lDDYeuMQd/aZSQpQvl2ZeUPxKyg3rrTBdV90TOp1o3Aso4OIDyfOkmkCGXiJ53aAW7d7OU0a4EUKc879Dj8K79JBXWpLdKCJTQLcRsobyELlEHq6wCDVtOSGbvW/ZETK+ZtlqBBryvRUsbGz3sJx8ZXLrZooMQUv8P7ASupFt/CaDXpPm2OwGwg4jlDRWoqCJh6m6Hirxp70gV1Qw7lkY5MY8Mu8UDHWWb4hSfgGMkag6PAlQzuDFyG0XHAT4Xiy9AP7q+Cx1Eq4m6wddhwgP9JLb4CtbXkipbPMqeStri8EA/nirqqAgO8Fafel+gz/XtRp8REcWoqLfUhZhoB49qNn+eThHo099X/Rne1+qzw+LF2+taPFp/6LAS8f62Jqwb/VkzAdCnj5cOe7S9eET+thfvKDN5PmmwxPZ8VWEO8HxYhwZu5FvFA33+L34nAVRIcDsppo4lbk1ia1AcpknHKRnYeEnEjuQSIjnZYV1BUaxlors0an3b2oluai6UZ5quV60ACjQtE0WsADpST3Y6oF0GCrXltTFcxHVjGlS7KX4FFb+u5NLyOiEBGeS2KeAZaUkG225bBNTmrOttmxDU9ItrQrTNQb0dDyVuGym0w9rvblo1QV0L27nO0gyiS7Pt7bTdjKilYNtuakOLaHjxnDketGVGsyYVyHM8pCvdY7TDKcG85ANoGSygS0cbosvoAtkhWl9i5REUQHGEy9rlaDWCfCmO4ngz4IGGi9b5ohoOO58ZjjRYnyq+zloteLzDduaXYD3b1nJltdoY8h7NFE32YdhBKT2YkRnDemGZiYrBIxb2M1eGBvMzXYz3M2OGLudn0gzrWT/z5tHK3zhT55FKb5zZM5xjuU8CDPOBGyNcWz3Y1RFphdEqvc6X0cQhWNeJ0DXXYf4rHFVFbkwUR6l6GzzAOHeHCZD/3VUD7OqdInH+cmYKMEacE+jdIfz/vjpdg+vD6weuT+eHh8v3se17+0FM/7p8TJN3fwE=);lineShape=1;" parent="57" vertex="1">
                    <mxGeometry x="115.88650938703734" width="5.951052677972449" height="10.25509775329758" as="geometry"/>
                </mxCell>
                <mxCell id="55" value="" style="group" parent="57" vertex="1" connectable="0">
                    <mxGeometry y="0.0061644641744571516" width="115.88282714410286" height="25.2565323622528" as="geometry"/>
                </mxCell>
                <mxCell id="47" value="" style="shape=stencil(lVnJchw3DP2aubIIEtzOjvMfrrIcTVmWXLLi5e8DZsJ287H7TeU2C0BixwN4ie++PX74+nAJ/tvb68vnhx/Xj2+Pl/jHJYTr8+PD6/XNPl3i+0t89+nl9eGv15e/nz/evn/90Cn7py8v3/sJP298NbnSOlfwv/77xeX47w9/3uifrs87+tJc9RN9caEQ+uBqnuizi4Q+Jydlok+uEXlScTUhfSP0sspTiTyaXZjt05zPhF5ckIlegotEgWj2izNDdo1IFNX5WeMQxp3HDOaCMDOYDxJhiOPvjaFRo8bstE4MdkRTYiXv4mwlO0I8YUgu68xQXAnEz6Y0iFRdJVbK4nxEBqZ0bsOvOwaaCtn5gkonEhpV0HFm1kxuqOZXUNqPO48ZTGLwdKY6GEOZ09+CT++INOsgzQkJvhaGmzaGOnx/zBCHEXcieRIadkMDHRKtScYgcw2wfEhMJHFxZrCkVRLezY/zNoatzh6btWHZtgyJJLyNQWY/JE8Ln3k6zYUymSuJ0p1hDm9LKSpSRU/nPErbmQ4KvcePgD8za5x1KMqDT7CQleISc5xF6+y46l1mwZdcnaPVOnBlIlmKzkqbVkrM2paGYncKKWRm1gQtro4mecygWPlac5n4wYwIxVi8FSZiV3NsE7yiklqZ4yhDO4bIGkRymlBrVo21OJ1dbZbOxEyWwnlOuZZdIWayRi1zuPZoIVYKC1hqSm+w2gstyKpnI8EkC3wzBs+gAPYHyxBPJAoLvBKugRNF+kCqkh81a5c9iSi8heWWnjy0PcrTqxqJIu9KQnpW88was8OqhSEJ6zisvaP3RF/FKm8Nm+V+RvBp9AwlFUQkJg/rtdVpRHp2flv0NYRC5G8ugL7mX9ZoXYP496MMnNAD/Lf4FFYaUf4e/+R8w8GQL4EiPEXo0sEMic8wbt/JQwuE0yV/mX08xpvZsxD5/Zi2dv5qxL9Gr0gvNN8T5HsdFelEX0B2Fp+ZnB+wBxi9kPzVRd88eudJPKz5y/z1f+lFMQHMQMyg3UIBPcBafS8Ri8vYyG9YWhZE1NjwuMzkPcmIk9WyHrBBoF3DoDGgOmuTDGhmXfImUjBRZMxl+87NCqkciHQH8PtF6UZCzxh07ZXshjTO2xh0lLMzoFlmx5lWbBasEcO7VAoPakC8Uu6IJJgPBlWZ44whLVOOcAaARH2OYjoI1ngLR9ZzjAHGIpsFC5vUZGCO3bTJukhngP3ONmScigQMOpDVqZXmWOqtnTVyQSRitZbmQ8AbpNKJoq9SgUHHSHyMRTIWAbkzCzYccoSXyt2Ytdt1MM/ZECRzFYh+DEpnSsBioa8PmZmWDXK8k6MJZxD1AyWeuhrCNfDNnCDqUaWoMC9bLUuIQJI6LWO/bp34mMHjtNlvYEDP4zyrkU4uNm3iDZ7We8P+GRxXRoocM8QlNHhHCcvCM/CUM3iVgMEGVlJn+qZvjiUp1A9hXc9vrfuYoWELEo6IzSawN6s0uq2SwkioA/OegRnoJ0In8lTQpnxVs+aCp9CnJIRvniJQ6+mAfPiDSl1GvEg7uoFH2IEr1bcJjmxK/dWxpgd6Btx+L0y27sy7SMAFYabPQf18BfrKl9kwwhQazx2MF6BnE5vRC4A8utTtAx3ATo4667LSoQ9BdXsQ3NEzYLG0ff6Cev/F1T78fq79dH16ur327v/H51376fY0HN//Aw==);lineShape=1;" parent="55" vertex="1">
                    <mxGeometry x="112.02884406442456" width="3.8539830796782653" height="6.772758060613718" as="geometry"/>
                </mxCell>
                <mxCell id="56" value="" style="group" parent="55" vertex="1" connectable="0">
                    <mxGeometry y="0.5562009197293918" width="107.86348686027344" height="24.700331442523407" as="geometry"/>
                </mxCell>
                <mxCell id="29" value="" style="shape=stencil(lVnZchw3DPyafUXxJvjs4z9cZTnaiiy5ZNlJ/j5gtjgaNmc60ttaRs+AYKNxzCV++Hn/5cfdJbifL89Pf979df36cn+JHy8hXB/v756vL/brEj9d4odvT893fzw//Xr8evv3jy/dsv/6/vS7P+HvG06jON9Rwf1z+0uWFP77w+eb/cP1cWdfq6Q02SfRROyjFA/2pZzblyahgn12xD5JQH8i8T+rlAb2gdkHieiP9+f2KUue7aO0dm4fVWpAe/L8GMRnsNd6bh+KePRHiT/BSY3oD7lfn6UpxMeReLbx9h0dIqGP1Pm0Rj/GBny6D1KJ90XqHBxfBj3O7OfLCl4CY7PUmfyv13FmPwczevEkmkUakCFTNlTxEH0nkYY/gX0a6X9ir7M/ScXpub2O3NvEx0si/qjk2Z9s6kD8UWlltq/U/zaiMeyLG+l2zH4nblafkod+nQGKmwGN6qcBdHapKyoJqQHaHKNa+Bs2im0Ac4mQzgAgiRokM5fCkPANUIZKHgMK3rO2Eehj1YqDZgPQ7GbIxRkzQEYNwOpMTEgNA7CwJovSfIZmgSZaYakSCwIiOUPOWIoNQGtlkJAXALm4Yi6tbyCAzk2HAKrvdg8LQEn90zTK0QYIPKVN4eANUSI5Q6vLxWVa8psu92A3Qy6uWY8DbC2jCzsDaEBAJWH1zugPp66SWV1uI+wbQGkj1Q8BdLUcJT71MHkEMDL1i1je0JhLRcL8hl0cjhF50Q2ufc26m4YA1pF0siWMayUthtG5BQTQuAZRCFOVwABR/EI/yteINcjiRs+QpBYERH4PeIZM9duO6MK7ADpyeO8Szzm3HJopkwHKGlbG74atc784rhttyVFHSkrnpiKAnmGZRvojWD5UHBd6AjHyLaX9DTmK8troiPRugOqix5UOSTY0Zzh1oXOGTc1lYR/TGSukBzWFTSZrqc5Uvw+aAZ4Qvd1YEiISl3pDswBYDeot05LUbFkQ00FSKwH0gUYR0Ahdbb5blYzdtLWudQkrVWNJczPd5ZnYZ2yYrDXORDS29cCu92Yja8RcsOa+ERWL43RvnB7i6GnfOJ5EHEEtNSp9PuhLdXQhEbHbswmusAXMMvE52n9adZ7jaSNoJc8PqMA24lYS/4D7JhuhC/UHujBLUzaxBrzflEaPf2IP+8TkBsOPE2bZN/Fe2I/mfbciYUXT4QogGP+JatkYCCsbP9rQE3sYJLsCkPgsjblNx2zl4TBfVArbSKB5pmwwQZ6jww9rvkLb5UY//MbtoNkzsi3bR75/WbebTgKb4sMYwXf2JPh9O7v4w0peRvVxdH+Xw+iudvFh16XYifPeqaTVHxb/0lB9HO3ba8IFnqPiYOM+DOOObsd1qV4mbiSemjB7/SjHx/YZxzkvjcRHl+1+oGKiW3fxas+Wd1abl+0+40+v5Q7sM/OnYPeQKN/Mf8WvK0zMdVt8vNori3/C+Fh7w/xZtnB5tL1n/IGZLNNi/d6vYf9vbz9eP719uz483L7c7f8fP9XZn26f+eKnfwE=);lineShape=1;" parent="56" vertex="1">
                    <mxGeometry x="2.3568052696961104" width="9.191016812697136" height="13.20664473078587" as="geometry"/>
                </mxCell>
                <mxCell id="30" value="" style="shape=stencil(rVfbbtswDP0avxKSqOtz1/1HgaaLsSwp0uz296NmKLVo58Qd9uYoPOL9kBr44W3/9LobnHm7nE9fdz/H58t+4E+Dc+NxvzuPF/ka+HHgh5fTefflfPp+fJ5+vz5Vyfr17fSj3vBrwqVEJVeUM7+nE0sh/D34PMkfxmMvH20nHymb2/I5kFH3+3ayDijkTQ8olNNtQGEKrgO4RMYDgLjQa+BAjgGgkOs1eE9sISD3QQpMCZhkjSHT2xSZLFIhce1VJEsFeW2IfQ8oFB3MXOYOkCNxAQBL3Ke6WMoIYMj3GsSrAoppEaSSyQIFjmzq5a+pXzeIAmt5A0rPZvJ9YZRIMd4GsGnNMgN4kOZaaEkDGKQ5JEoLkzzwIUq/BQ1IoEFTJnY6Sqh9MjcXZwCkIfuW1VmeGQEMhawBBbGYa39fARIGENYopWQ0IKPEFbKxp7H3Hl+vjUDBfggh9R0WXiCjrKW4dBvEiRdhkriC+jbkopZHlGHabfPKAPJBD6taeohXfbtuY3HLNPNZA1D78ILq7zUot4hspIAYVjQgkkmBUtBRMgCQpbgXYQ2IuP2CuHO74v8A7LKSrl7domKjiNLCxUSaR3F3HW8gD3XR6QEyQNGqxLbdNxvRGTjNsaVpvgSAEV0po8903TOQSV5PuDpgAHez02QvOhmFNemwygnyoQ7pvh9k3yuoNKJeZKTLEQnEj22ssV22cSEmp/fnO4XNfcpMW7PW5YNuBNPW3fVwWkqs5B3gL1c0HcnMAa3PSTMqnlE+6s7H8sHrrRPbI4PZa3uQvzHrkYPjmbg9PrblK8W2hW+rh394f92Rl4/3x97LeDhMb8X5//pxKEfTw5If/wA=);lineShape=1;" parent="56" vertex="1">
                    <mxGeometry x="16.47529565027014" y="2.331316600367259" width="0.32204696895956375" height="7.384855678236322" as="geometry"/>
                </mxCell>
                <mxCell id="31" value="" style="shape=stencil(lVfZctswDPwavWIIgudzmv5HZuLUmrp2xnF6/H2haqiIkLydvOnAkuBicXCQh7fj0+th8O7tdr18P/wan2/HQb4M3o/n4+E63vRpkMdBHl4u18O36+X9/Dy/vz5NltPTj8vPaYXfM04SpTChvPszf2ES+ffh62x/Gs8r+1gp1M4+kfj79jmT9PYs5OJ9QCl2A+8ogB1qJDaAQgkBCuXYASRTBC6xc+RchwiJMmCpVpIeEBM5BEhUU09roOoAgKn2ccvKawW8CgXpAMWRJBC5SKXntSSK+T5ACrnSAZTpBM4gTMX3gAp38KEFdhHTR2j2Q5fJB7tFCSjWFKIFMN8HaJhyb58bb/sbNNIX+0Qe2G+kVwNFdGJy5sCeMrAPJMZ/XQHEoNp6USrlAvxZjrcAClUA8LLZYUnYfRm5likrlxjpLrcSt5xZWUYx9uSjJUkASUFrkokCrnoKyJswF7SDtN8rHSUgbFl0v8pORukcNkpaqtp+4PIm/ytVUIhZtZQ3AFCS2Ld6sgIEEDilhO2ZBZDkWy9bkVqAQ862nqkZAX+crcEqC5T8KhrjD1MEuZM3KlIPUY2nVD9jL0JsmohAQFDJ9JrI3AaC/fliU4+0EXoQMm2soZdpjFB1Coi9KEKGiaAulR6gnQ6lWuQmygXgmtL3WVKXelo18hXoaFpvM1WhQ29GnkIF6ChSMFGjiiow+f68mjXA3Ns6ESlBc1NLA5wHdc7pc0C9QwNt614L9cTAmWqdYahOFtv9HB41lWhrz8B79dbMjXgemgLJdn2U8J6iXR/N1p+9TvzfXh8+7i4v4+k0X33W/+1dRz/N9yR5/As=);lineShape=1;" parent="56" vertex="1">
                    <mxGeometry x="21.26365065849859" y="6.889522006624034" width="0.793450082766527" height="3.2228211586610866" as="geometry"/>
                </mxCell>
                <mxCell id="32" value="" style="shape=stencil(rVhJbhsxEHyNrg2SzfXsJP8wYDkW4liG7Wy/T08ETsQaseQAuY1GVcOlq9ed3rw+3D7vd8G9vr0cv+x/HO7eHnb6YRfC4elh/3J4s6edftzpzf3xZf/55fjt6e70+/l2QS5PX4/fly/8PPG8aFtIwf06vXDi3J8Xn07wx8PTGTxLKQPci/dzuFdJiK+N4Jv4cTtBNMzxtp/oAV/qHK9J3IhXCWmOj1E0AT6R7yeVFgBfyP6zSm6IJ/dTgjQFfCXfr3573qoEXyTjeVuZ45tddxzwUQLZf8uiiKffr92cHZ/7hV3Wj1vl2wlNGjFYa5LGDfkrJ67ixhvyhZp4OfJoMvOBSFysRYngA0kCN0ICQpNIVN0cWk1Nh2RLtYkD2RXqB6ajOPp9tENnQsjigJAkshUielpsktkKpvzRFVKk11pN20BooiTYmbPlkZBjt8xlgtsQWj/VZfdvUkbxFS4NI4Babc1EzlCqpNHSNXWXnRHc6KEmlkzEVzbyNh/0nBDGWzIfZFoyAmypFSoNI/jx0Oa0lW8J0oIRPHEgI4CWWpLECAkToRHoCqlHoZVgHsIOnXvmO1vBMS1Z7lcksDBTSq8Nzm7JkexjhO21Fralgum/8bi0rLDRknKCG0OlqdWxDG0JSpGQ2aHzRnwWBJjHJQz3Z1lvxoDgakvQMiNKDkjQKz7a8F4LdwjURumlzZTgkOBZrLQtZRQTjWSxS+dM35lpw641ICGw4Jqw2Fh8lK2QN5FsLWBnhO0ZlNmhbOql1PPkfyKsR1wTRKU16HJLkILMMkx8uQthzYqt63dGqEAwsTDCpizOV+Rdez21EpRLo2HYSIVX6g47hxR6rzWrTiqU3oXW0lYwQWCKSps9MxM2D5V3Jxmjhkaad005EI3VcULr7eZaGlt8ZrW0xyrxSgfatJcWazTm1YlFIYitPvSK6DIh9XSw+gPHBzRD4VVowQ0VXhdvekoLxCyubnrW0oU17Ykr4onslp7bAd4RAyw9PfgmzTymSdh/ptHF/tYAeM9nHhDkE51hWIMaHeBZP5k3rRhvobFWUBrpXC8kzgYk5OvWfQSAs/LLoam039UE7kdPWVu4CRy62kCHF5vRwhpRZ3CYLPRR2/v27ugcwmEhu/aSs3vHr7NW1qKqAzhrPnwvid83RPzHmeNVuD38HW/eHx4fT9PR8/9xHGqvTqNU/fgb);lineShape=1;" parent="56" vertex="1">
                    <mxGeometry x="25.599471409841954" y="3.230820200811962" width="9.355344132401239" height="6.1737189616845844" as="geometry"/>
                </mxCell>
                <mxCell id="33" value="" style="shape=stencil(lVfLctswDPwaXTF8kzjn8R+ZiVNr6tgZx0nbvy9UDV2TsNbyTaYXFLDYBanBP3xuXz42gzOfp+Ph5+bX+HraDv5xcG7cbzfH8SRPg38a/MPb4bj5cTx87V/n3x8vE3J6ej98Tzv8nuMc5TwFOfNnXjBkzL+F5xm+G/cXcJvI+AbvyIZlvItkUofPdhnvBd/mE8gCfIhUSoOPZN0yPmYyrsOXuIxPmXJs8Il8WcZnJhM6fE7L+MJUWj5z3eAqnjMF2+A9RbA/F3Khq5cZ4rnl0/ra8esBXN9/brAnRhUwcVdBpggoteYsyXMNjiJosryitE2WNlpUNZPnJqCYqsMlmjpZTI0EvpG+catrjuRR4yTjVhicyKKURJhdgFgTSFsSSG1A8dCbEtCllG2l4XpAoNJqQ+wX0RtUQHAUgDZ0Su4s+JVFy0Rz6A2K1gwHhu6brw5fKYxACe2vlGcNOcSp0rblWwbt3ONdXVlr0CB9Rm5QMyBJn3FO3ZTJ6ZZBuzlWUl1ZOShFjAYNGTWJRSqwhnsD9NkgjmYwM/Thwx66QZ9uEpDuOj6FJTRk9Pk8eRz0QV8AxLIFzG59wxCiHQjQVxgJKIBWdUW6EPxCgG3tIOKKgCRLIfccOSBuQ9w2oYi0QNdMv38uFED+hmzL6KQTMMP0+ZygdfS48HUIrstHBhLmp6tXGI5AEYpPK/cLsL/qV4T0KDlIPFDDnTfym3B5+H/5fxt3u/nb4fL//mNBluYPDf/0Fw==);lineShape=1;" parent="56" vertex="1">
                    <mxGeometry x="30.76499596342353" y="6.596480925804727" width="4.31629617046235" height="0.24069599645424122" as="geometry"/>
                </mxCell>
                <mxCell id="34" value="" style="shape=stencil(lVfLbhsxDPyavRISSb3OafofAeLURt04cJw+/r50F1pb9HqC3tYyRyKHQ4qa5OF9+/S2mTi8n46H75tfu+fTdpIvE/Pudbs57k72NcnjJA8vh+Pm2/Hw8fo8/357Oluev34cfp53+D3jtJCEM4rDn3lFKMi/ha+z/X73emWfC0UZ7CNTBoBSKbcR0Ci2+4BaPIAzpXgf0JQijyEoSQaA2h3oAGXScB8QQ6AwspQCJRB1a6TjEalSSwBQqI0AY1oYABIFHQAl4aiZJA6AKn2L9UREf4KdWQFNpZA6gK0UAIieJUtNBanO0h1YAK2rZRWQEsU6qu+Sy1WE5p7YqyMKSIRUKukmiAoAVjDF05QATWzSiT4RDdDEpTuwAKxGQNDcblzi3hfWY7D9nEuBCigIDZ3ERX0NVpAaiQ5gKwCQjMTkAQWJKVOI3iXUmYr4XmlBMyqIekNrpIxLzsXQ7EwgjbrsdyWNT1xqTt6ZGnDJgi4u6EqKaU1OGtYMQeuzzhhvirqBTqaNJHkAqjiNvuEbgFFNK2n2QQcQgxVQLZ5WBVqyEvU1rVCt1gSKc4mpohP+FyCt19dSD0wRiE+X/ZYrSGG/13RzyZn4QB7O08lIq4kFXUEGaGPQdlE3JI1MeWyVKj336wDx0pAMpWH3g7sVGY8CNoGVERBzv2LWAf6Ow5NDIBnNcx/p7pi70UdhrdnQ4OihjNjxEwDDWc+mz7HyrWGCUGOkOlIZIJOxEFdnz4Abcz9mZ4+GC2sTblQ1e1Aw1odcSYYupnsl7ORv6UDq135ZXOxh5y1+hsSvhc9fF/ZxeZq87Pb7+WVz/b9/ytjS/AySx78=);lineShape=1;" parent="56" vertex="1">
                    <mxGeometry x="37.68707635630426" y="6.663708100166517" width="0.6692309728593936" height="3.200168179628753" as="geometry"/>
                </mxCell>
                <mxCell id="35" value="" style="shape=stencil(lVrLchw3DPyavbJIgs+z4/yHqyxHqiiWS1Zef59mqThaNnda0W13llgSQANogHOxTz/vv/y4u0T/8+X56fe7vx++vtxf7JdLjA/f7++eH17w6WKfL/bp29Pz3W/PT39+//r6/ceXsXJ8+uPpr/EP/7zKWXHJD6no/319kvJ88uurwOPD92sB7zoJJBfSuUDMruRVILqiBKKLtENwRRwpNJdJwLtUhUByNS4C1l1QOwQX2ypQpQ557n+sT86a2MDldX3srtr5eu/8qnHE/wuNsb6v6w+NTs5TbFkfsgtZoMLFsK6P0qB5nnau7y7G8+XNhXV5kdaHu/rqX1iniPXFRTK/K0EgNDhbzR+k9XFcihnvsrC+RdcLrVfWBHpTpPVerE/FeV6v0JAjJwkkAYHOvPkLDhH+KoDPCrfjwe311eXVPkCngE89jjvXV9cEHirsT+eHg7sQMD4Q4sWEB7BDowCDD9UOiNc1i8JGRWCudOfXHaC0dAIqATkhSh3gtUJJsbgswqbADWuWQJ7Owm8DR2kVSBPptwUy+yE1iaRsMy0fSAquCmjg57JmUuzphdLZc3HK8IMItgQgrDoMu4ncCxXTqkNBRRZHSpUdh4BS6Rf5guPHy4QHASrhI0KUDlvBrEUWQAChrvFQu2tK6cTx0BCDIh6Ssacb0o4IUehQV8d1P/PIGTQoCfSowVcmEA4Bk34AcppngSJ2KABzYoEmoIE0w5XcXBV+qGmGy7UOAhoVSaCzlVT1h18pa/QwKehtgTyxeeU4daTxM0GjuCZiepx49QMOWQWWINDWEIUZolC6H3zrEMBfaB2ooJQmExnQzwJHhNwWMGYlgKMXOiCCCRpIlSrdI6kQj0cyNk0cqBfJR+W+LRCc3+pDF0rnNJFzCHidl+oMl6Nk9cn+bgsETpUQUGUXRTZ2FlCFHXQyblW0Kr66VSAIKAIKAUrGMIMXSqPdIkY8OKzAEnYgSo/0LHdokx1dcY0ozAorcSNsuj6ETWmbhr4tEGfI/1+Bjc2MIymuAbRuSgdd46hzGE9Unc7bDkWmGQhQqz2goZlASywgCRYqEEGjybILI1JRRABF7en20RAtm0DS4MtbxCmlAe/qWUDpYDv3rrIHsroFUJEzj7EDxUN+T4B462gHBP0ZVqLREyqG4q1+MosrAVMkMWzgM02lPyxwpN5rHVRLkyfDu7JSETvkvoUo2mnhhxK3zJcn4M9ay0yeLnPAdFbYjQRQYhSF8xyiKLtVkcQ8y/gVE1BEFxyS0ApyIgmWMTMuXkZc34Ziw9CK81XmS6DvTZTd3tjT4HyqB+qduXcN0/dnAnXdoWZZp4PfRplgumpYhy3aiu8WJJiGEquZWpqDiDO70jS2NVmC4DliWGDXTdP7sDVBahLS2rZDlsQVKhJxhVZyRtYneTkEmhwKopGr1Pn1OfY7axWrsUAVRypbZb9Cy1m/Sz1K12Q6b4OKcSYR1WMU2lggqQrRtha86XFOZtbXNfpQtLijTjIdo1JTrwi4KtZnhR3RkvTcKO1b+6pa8MG+af6T5QgepZ3Qh35X9Ypj1Ljiu+g7h9FnUb+bNa+MW78bJ2E545WUZ0YpVtBIPDAa+FXQKJzwgV81uQda6WZjEFE9wyobiWt64kohCkOreACfoaHX6B5VC97YrJY0nwl8O2ZeDlCLTXJ+zNazzPdAjq3QiFHGNBgTkbhxyakGFZVbv2CSbSC5Eq/s0zFnRqL4qbLqgh1RAdLdQN6IcZ5z8LM0SROyozU9TRiB16sBgjGTyZKB3rqjVKCLxpCoEtWhzPL95i91ngB/UfGMegrKDSJ2VJjeADcusRVf2EIgzwunk/NQzzCeaIUpZCzoO/fKuc70xCd6NpFpEgad6e5nNMmqqkXO16ajcvzf9uqDmoAid1IYj8Kodujb2xhe69C3SYO+PE1b7/ZORRgDTRqZRumHGwKmx1z+xqhOdVZQeh9NqC7Gts7qrbifOm4baErSVjlBjks25bi6TXzyJLtntPCD7w69L4APb68qfXt4fHx90+n6d361CY9eX4uyz/8B);lineShape=1;" parent="56" vertex="1">
                    <mxGeometry x="41.50027485360749" y="2.3059899683770766" width="5.610480757984588" height="6.619034973994297" as="geometry"/>
                </mxCell>
                <mxCell id="36" value="" style="shape=stencil(lVfZctswDPwavWJIgODxnKb/kZk4tadunHGcHn9faFQpJmStp2+yzBVx7C7IQR7e909vu4HD++V8+r77dXi+7Af5MjAfXve78+FiT4M8DvLwcjrvvp1PH6/P0++3p3Hl+PTj9HP8wu8Jx0q5jCgOf6Y3kXh68XVafzy8Xq1PSpG79Zkab6/XSkn770eqbRtQAnHqAYUaiKgaIHQAy0kqAFTiPiQRSnEb0BKl1gESwx3aKmmNVNI2IIZAoU8iRwoKtmgUHaBRQwCdI5gBxeoaACCQSgeoiTJIwv7+V5QF0KgAbhiXSg+wrFCrk4XEKwAISZQ0e0ACnZNIqa+S9RIlzZW0108rM1tuA8qsrwWQKYKQDOAUanysoKy8VH0ByBzk7aSF2AGYFHBJCpVeEM1EDXIwvTT1gAwkl+pckytAAWVV2yH6HAQBMmX1VRLQaW0U2PcBVckAxZFPoeLMK2uvaeMSo5Cy98rReZAb85zilR5Q0qmQRg+402nuk77yti0yxVVMGWmUKTefNbI+E4SsNIoaYZLzPmNsEQgQRyaFY9Rso7qQBFqfGdOa3zUDgLlK8YAAACn6OTpqFJTVAHHlAghgI83N0cqwcbl4utrMCsA2SrwxFQsoqwGqO84sE+B2SMbNHmCaymCHnLwLJIEK0uJDsimGJkpq3lyNXXc67fRghz4FZWWm0h8F7BDXEPl8kTL0sTiP2KWmMOFAqW8yPpesjlYyZ7P1dVdNqmB59MPWKoPMy5/CTHXg69mnGqAPNdLkljPoa+TZcz7XI6uOmdSHg+QYjZni40E2KhR8/BnQ7H8vL/fX28PnTenlcDxOF63r//3Nyl5NtzJ5/As=);lineShape=1;" parent="56" vertex="1">
                    <mxGeometry x="52.091325123590195" y="6.233331465766383" width="1.0055962648893761" height="3.8967437026571043" as="geometry"/>
                </mxCell>
                <mxCell id="37" value="" style="shape=stencil(7VlJUhwxEHzNXCtKu3TG9j+IAMyEMRAYb793tgc1rdJMgg/44PBtFmWr1qyld+Hsy/X5/eXO65fHh7tPl9/3F4/Xu/Bu5/3+9vryYf+IT7vwfhfOru4eLj8+3H29vTh8vz9fTi6fPt99W57w44DLXrQsKK8/D794Se33Dx8O52/2t5vzKUoJw/kqmZyPTaoO510QHwkgSK0jADfoaUAo4scbPGRMpwG+SUsDIDhxmQC8xDYCiiRyg0tSR6NCq8wA2m2yApo4YtYiOp5PuCCw82VUORWJ5LzLEtQCEgHA5k8m3ACUGDUEcaONUhZPANHbwEiJ2ig562cYqREdskpwIwDJUAmg9L9XgBMlgBIkjgD4OTkCqOJGP8QijaRPRRyMOkRkA7FSTTaUIuxGRKqxS7wClN8AAaIFsHyDSH6MpdCoH2oW9RagTKQszWR0lUJIpsIPzgIiyejabCwBEIjjmkryE4Do0JzkYgGMupuXMonE8qGFznIbswbihxZtTgPAorUdiyXGrAvAMCu4m4kEpUezxkSZsk0FESnKqHLxg2GN2F15CmBCA8TDmA+AOOZDBj1zkerouOIlMLPi71Hpsgb8qdDQkchAPJEDDBkjpZSFBsh9BECrRFK0ZcmjlfCIyvxQpI4kgEcoMyvSxVsAI4HWetVfASiKxEpOVVQt4inNT13Rxn4MUlJXty7yBtBYBlUb33gEdUSx7RIAlYmEwj/adWOHUzRgtW4vUZlpgBbfsPBDtzFp7ZgjvG1DYbjEAM7WoOeAfO0NpRvutTogRxgAVsoW4DgdWz8g5xiVwdUTgDUPUDGpBdCSMocr7mQ3zAmRu91em3KIeCLSsawGvTJHzMSB/oQnqaWmxmlgJr/Wnf9aem2cN5KEtwUsFcQo7WlNqciXscxV3pShT8xm2uWDXJ0mPxRSVqrRHLepVLMOCACjNJoBNkJAYmcAypX2ve/cNjTsBtczctMyKaG+5QYDiH1N8H/m+NdmDrWAvzBzsBvefuaIvRXerH88u0HtUg1TfiH1oU77H2RcY7G09v+bTQXb25Xc6/hmeeJJThe1CZR4Tmdvp5plAUTMCgGsSIX2cCCVZLZktefg8Z1UtPucZTIjIvnUB4YV4OgoN28GASjMrLY84DyrJ35aw6G9Ic+fOpO0dmjHFbDJk3xfaR13Wu+9NpHNhjKn0kyyebrlc6W3tGv+Zzo7+NibinVf3GhXHOYVeaA2AsXlMe4gJBssEajB7LwdFSlOPWumgQ2nGgpTmpvL7jaZ89TLxdYFpRZCHhqFlTYMCGJn5WE+TlOLrtQBSPNJfjb3LEkYzflA5Mf5avXNhCbAjd4EBN0b4LyZkpxEzr2GGR0deRauNu9YxPPzf/RW6eXz+PD8Cutqf3NzeAO2/d++8sJPh9dl4f0v);lineShape=1;" parent="56" vertex="1">
                    <mxGeometry x="57.907902360997355" y="0.9776374370494096" width="3.7055500838619264" height="7.06044615799356" as="geometry"/>
                </mxCell>
                <mxCell id="38" value="" style="shape=stencil(lVfLbttADPwaXQnucp/nNP2PAHFqoa4dOE4ff1+qghyTkifoTVE4a3I4HK4GeXjbP73uhshvl/Pp++7X+HzZD/JliHE87nfn8aJPgzwO8vByOu++nU/vx+f579enKXJ6+nH6OZ3we8blTrlNqMh/5jeRavn34uscfxiPN/E1ENv4ECkEAGhUqgW05YhNQCvLedeMEkWQUteMowFIoMgAUKmIBTSq9T4gMBOzQaRCCSB6p9YNIAs1ULXmJJbXEih0WHVygEZRAK+JpBhAzcQJdC4uGS+AFkjifUBhStkCCmWgjVS9NroWne8DIvuUlGjEUihUogc0BIhe3wroiCWq4uMFxCdiy1FvsORAySqvK6dA3LzKP1EG08MU7bSpsDJocqDqzmcqqMd+1lonRjJd5uoaXyH/Ya3SushwG1A9owoooGIt2Vlk0yRBCVpzz77mCkSnIgqO1ACbpiyxU51ggBbt2pwpAwOL2fvR5FCoBl0D1l5U2A2wNK0Ba5E6ORUBtEQLuPHlbY+ksJpNpNW8akOD8XGZ3BuOGHDE3oG1CREob7V1tMtosal5uvgAz79q5kanyK+r38w6CBF6o8vnk3hh3zDdOAk1LPjVX5UhsGaLmqf9hZLgTpvOszXrIs94a5ZkAClQQ1tTFm+43nc6Lpr95p8sDQy/3m7YptRIgENKoeZuChSQjAqJ9ewM7U7ji+U0QceWStnOmSyDuh3f/VxGeNHRBonNJ8ArbRLqVtcM94HeFd3O1MEG/Up9Ix6MfV5dgHWpA2/PmVJy8Q3wk+tyO/7gp4D+/u83xefx+vDxAfMyHg7z98/t//0Hj76aP5bk8S8=);lineShape=1;" parent="56" vertex="1">
                    <mxGeometry x="65.04794218721088" y="5.757821874397777" width="1.3880250951890076" height="3.1008798276195" as="geometry"/>
                </mxCell>
                <mxCell id="39" value="" style="shape=stencil(lVnLchw3DPyavbJIgs+z4/yHqyxHqiiSS5aT+O/dzIajmeZOK7lJu+hZggAaDczFPny7//T17hL9t9eX59/v/nr4/Hp/sV8uMT483d+9PLzir4t9vNiHL88vd7+9PH9/+nz9/+unYTn++uP5z/GEv6+4Xp0vAxX9j+snyfX2zwe/Xu0fH5729t6VeLDPztdz+1ZcCmRvJuyDK0b2uZ/bVzzfk31Pwj44nw/2xVk+ty/ZRSP7Vs7tc3fh+PzqUhT25lI92LcZkJv2CV9Hsi/i+Sm61g/2OKC4H2suJrIv4jxmrh+fH7x0AM9rxoB/Q3gbEF1uDKjC5VCcJwCCLn4BXxfyITovkq65dryjgKQTRVA5BjG4JO4I9seaQVIHVQSuHR3GJUdVZJxDiKJJf+34fKszS26TBPubTOZEMFcJkOUPBCTlscpSciWIJKrLL6DwBM9ZnM/bAHFm+m3AVuc7gKocfB2MAYoqUnG1MMCE0zm4uPig4pzzfN4OkEUcwHbEvoNvhNOluEyA5IIqhTgrZQMUF0Qx1zpLZQO0mY5nHSdRx4muimtt2aVj+ecqj9RAucdrLfpa+0ZwGyBrQGTKK81V1cZtaVPBdZF8ANRj4CpKVDgNQDweCRdt6hf8/HoDFFlxDUrl6EMPUivgAHSkrnkPuURE2fGbgliRrZR8vcwavF0PlUsUgkxRNzKHAtfB5gKQl3oAQLVPZH8gBYBuooisskQC4B1NQpEGoCkyriw6g/eypaOhrU4oXTh6emNAFbkBnVzr4rVQktAIuS6BEKohJOYZAJLqimhpFOo6xdZtQGQtNsYBpZTAWwSA2FJHWtpoz1OAn/lATIaSU4IVgEbXalJP4lo7ZR86uwJsDWcHqApQnS0AGYdFYA32VIIJFZkZ0NW1dtY/uFZ5pD4V7S5wTTDZ+AU6UpEtCIBAv1B1AbWFvpvsKIhDWABycsiL0007jUv0DMjKaZt3sqdvLY392iAEL4VlXEIcTNHMpkV2kTblQ1yoMk0JdeYDH8lkg8C15iW9VZND4OpaogoAaREWgEq+MjniPwLGyObZh6wHY26jSBY1qttCMza9OmujTDNJ0n0KC2uYbNTQ5twfbHa9sxHFL7+gRt2ceTZGHJToK37e+k4lqpqG1Gbp4CW3ls6NvXU5cVTjptja3EDcBnQuUUjjKAqoLayBT7IaUfKyVvKzxZwOQUenq1YCUOuU3mMVp3wIrtBMk6Veqo1nyxKk1qiJ6X6IZXEkyHtPy0Y9vZbGmxCoa6+SL3Fjz172uNxYGqcuh9FRccdcwnxcFAlUdhqALI409h7LBK4au7VlE9Jc10vHUtlpU+q+L0uBLjUf1D31OMRBEVn0rlHgwlQfZ12UFqcAKL1UljB0KTUQBYrz1lVvH4h3DmB/tV0Kc++/WwqqduWZ9EYURZA976IQRKUyPJ/nnaWp5/vEJ2oD4nm/B0mgxKTNjNytreX+gwf7oueeRfIkPeBGlzLbq41pZ3WRZMUMNUI1KYeksS9tZK924mNdyvaK3MdWgpbWckMMYqYXT6Z5tPHqM8rhHMyeKX90N/PcYMOcl27bZxaoXj6/Ba4vL8sLiiOwvZpDIJpocevlJgxTCrVKveHpy05Iv3cas+JyfpE/sO9G9opue+c1spY3Y71Eb6n0irfP97Jv+aa0ym5D9gZQfDV2cEfCMsn/sKeEttkCz+w9E5B8fls2/7PrnyVEZYJQhPW/33y/a48/3l6zf3l4fLy+pd9/z6/l8dH1lb59/Ak=);lineShape=1;" parent="56" vertex="1">
                    <mxGeometry x="70.38296834016433" y="0.828010581381676" width="5.164332558997705" height="6.296789995903465" as="geometry"/>
                </mxCell>
                <mxCell id="40" value="" style="shape=stencil(lVfLctswDPwaXTEkQPBxTtP/yEycWlPXzjhOH39fqIpUE7a205tMYUVigV3Cgzy87Z9edwOHt8v59HX3Y3y+7Af5NDCPx/3uPF7saZDHQR5eTufdl/Pp/fg8/359miKnp2+n79MXfs44bhTChOLwa16JlNufhc9z/GE8XsWnStzH20Lejs9MjfvvJ5K4DSiJtHQADtTADrVRkw4gSkm3AU0p1g6QBAMqaZ+zRiq8DYgheFbVTgmybo24T8J4SCDrZiz2OzSmkgCAKWsPUGIAMF6DAxRKAQCEal+5tjbX/VIXyskDPj5xHxApiAc0UIicqNwAIii1lUmaTzoLAKhvV6NVwZFUKPfd12Qhegvw0TkrIFACLGle6rpKtFJAGrXv9RqtGQPstQMk6BqFF4FdAQICNF9pAwigtSqFnlZbEUDrZBt94WqBR7IyOduwT6AdJom6SkeqFe6QXLemZeU+IHhaW4YmYJwUpzjzNgCwOhSnh0YZSVS8kV2Z4VYzFfVbJFCIHH33WRIMzNUE4X3GJIIUlHwzWWkayME0qo6mSIJs478BhaqTXFgOuSVq7WnNhRh5ZfA3uwp0Y3tdeoA0eFPbNZv73rDhIYPu4xtRR9yuuuhrjWfYe+KvuBiogJTjYotr1aApBW9iBY4NN0MDdmEbi/oWwhMD+zGJF/wGlcXNbYtM71sRxf4wgSogPpqZJhePJBwLiY9HhbXTqo+PIFtLV6OLR40wjc3R0YMuwH+P2fbwd0Z/GQ+HecS/fu9nelua/w/I428=);lineShape=1;" parent="56" vertex="1">
                    <mxGeometry x="81.73346392057704" y="4.853638236714033" width="1.0100155849164085" height="2.5896104742271864" as="geometry"/>
                </mxCell>
                <mxCell id="41" value="" style="shape=stencil(lVnLUhwxDPyavapsy88zIf9BFUvYCgEKyOvv01MbD2t5phNuC6jXltRqSeagV6/3N8/HQ3Cvby9PX48/T7dv9wf9dAjh9Hh/fDm94dNBrw96dff0cvzy8vT98fb88/PNYrl8+vb0Y/mGX2dccRLSggru99/fiDv/4vPZ/uH0eGGfg8Rg7XXfPgXJ0dgHv28ftR//bp/cvr0mSW2wr5LCvj3+XPxg74OkSABJ1ADgMTvB9wt0QFDRug/A9+URoE5cJoBkc4YoKANod7EDopNKsgaAzyMgiye0AKCOV0LifeE+jFdKTQo7ARcYE51VSiOAJs6NTPKUesFJqSMgiWOAIMXUAthF8gAuxzGsNUokJ6hKLCOgSGPlAx90ADQUOCFfRLmMJzREiYQ1VesDAIVkOlfJM4D4UEovlwsfWKYr6stEqdHE1YlLyAMjHwDBUKP1MGwDoqTR6QIhZCcEq3s5iyO6BKrpeEJ2klhYVfJYDylLI9KaS6/gFYCKI1cCNYzTyUskMgPyWZlpVJcUUjnSG1/BAJBeU9MAZFbTXvIEUCZkuPHYH2LpNbgNqJat0FYWVr92wBWQaI8DQA0giucdyEYpSGVO186cFeCp09DWjQ5EToC2JrUAJSIQopWZBcAaO6LuLIDpEkaHmKzTkYQ1NNsfENZEVAN931IDfZX4oKuLF9RgmcaVzDgG8kWiS3BaTR4KlRmENZko1T6u7CUuNgtILNNhilKlMyLIF531obHRofZ+cwHw5ISlgILNQ+M1HcwJsUvbrgiYxGmv8j0fTJ8G+RwTgSZtorfng26dappSQ6cTXB+udwHTCQygTcKkGplUXHJT4riQpWL79FLT5EpZJzFW2oFyEz/VNFs4SpzEOFNtxbxk6gF9mpUo5i8/9geMDpVwqUUbVoShEqdbsWschnVP8tDq1rBO6qG13mQvRjjHepxzdoFA4AIp6jb1XQSOeY0x1fC7ZVGS6uq6DK2ASveBhUxm+F7LfI/fZpG7iMP2EJd7X744IvKV3WgfAsdmY6zgpvGCX4wcyyZnAL4Pv3vLpZkFau1daW/fjePUh4m/Mf1ex50VwGtu3SRXuhZKjTzRW7sWbie6k3+t0EYXRbVdOuMbWJe2Sc7rer0dIBtQSAxbK6fixOoQuL1R1dBzvnMf84qjuevyTnzq6C9mM3afYocYzEEsnt5vvEOx9uwxgYwKCQ6yiSFMT2+xD4vbHq8b7XoAF4ogcUyBo31tfjrkQjQ/TTo6C89Pn66L5ba9t+stvoDZBztFOjr9o2CNRHj6tFqiVTlPZbQk+2IQ6Lsk7PN4H+3PJv9pH/ncMt0n0l1+9jd9MJ6Z82HKV6az48yHTFvrR5/a/22PD+/v+nenh4fzvwUu/27/D4Bfnf+HoNd/AA==);lineShape=1;" parent="56" vertex="1">
                    <mxGeometry x="88.47077252882423" y="0.3467708037160122" width="3.299143452887819" height="5.230356675310703" as="geometry"/>
                </mxCell>
                <mxCell id="42" value="" style="shape=stencil(lVfbbtswDP0avxKiqOtz1/1HgaaLsSwp0nRb/740DCUWHZ+ib77wiCLPIUUN8vC2f3rdDd69Xc6n37t/4/NlP8iPwfvxuN+dx4s+DfI4yMPL6bz7dT69H5/n99enyXJ6+nP6O63wf8ZJICcTyruP+QtTmT/8nO0P43FhH4Vy7uwLOd62T4Vy7dePFOo2IFfi0gF8IJ+2ASWR5w4gQiVvA6qj0gOCJiECQGg7boD4BSBTSR0gKcABQKXcs5B9W+IugJ1rC155cBQAIlVy/Z7UafQA4CkYZdyc3tdGpJitiwK4DtVSpwAPPIRgo64Fbik4igaQKICoRdNkYgiUMKDEHqDUoS15yr3AKxMHAMgUQ091bQreqtHUM1cKVaQNlQ5bQCoAkInrygOqaiEvqxjAlnKm6m2WkDRU/qYxTTyANlC41cuC6Qw8aGeqPQ+TllDQicR4KK0I7wNUCEatWg9AGum64wWgohLNrbsvASCGyJY4BaCgw7oJFAqgWQZuvxdprUB8WnFigo5tk5sA40EooBJliqsSTYA4DdrWtGutbSut5kjRemDMw/cAWtPeABwJyFJiW9NatAKCjqqcnmmVI9RSItdnSU8MRh54dVLH1qnu85Ba673OAhF2Pj0fpK9pn6E0vCqnj4H1fABtJlh1F3j+MFUzCJCAWnBtsSsFUHaroSE0CjfMTXfR4Q90Ix0Yej14SqgX2c7C0Hw1SDp4zLJvxN/s0RjJ2U4KeNjR4DhYe5ScRImNvYDci6MUjT3sit8c5L+214fbreFlPBzmS8fyv71l6Kf5hiKPnw==);lineShape=1;" parent="56" vertex="1">
                    <mxGeometry x="96.02281471324568" y="4.646391411003137" width="0.8335662861962162" height="3.117849017307224" as="geometry"/>
                </mxCell>
                <mxCell id="43" value="" style="shape=stencil(lVfLbuMwDPwaXwlJpF7ntvsfBZpujKZJkab7+Pul15AbyvEUvTkKRxQ5Q1Ia+O59//i2G4J7v5xPL7vf49NlP/D9EMJ43O/O40W/Bn4Y+O75dN79PJ8+jk/z77fHyXL6ej39mnb4M+OEkkyg4P7OC1FX0v+VH7P9YTxe2XshDj3A121AcJSiBXiqBQAyCRuAFMphG8DSexAhB2KQQJIMgAsV3gZER8EeiZlCBoBCzhmARhXBkVKkYHkIvjFzE5A1iTZon0gADzlTKRbgqIC0Fm5/N0AiBjFXbjls9po1B+wjxdLZcwT2eUUCeUBaLZS8sS8U0P61MbQkKJIHQvXOrVhmWAvqomQbgicBLCsgWA9cyYEzadDO6khUWehIiWJXbbXV322AULFp1Xp2WBfO8qzl5JAHT9EGLSptoNSqQrPMiTYd4KHUVQNgqA0FBBt0iLDFKCDa4tHyrDgGttKolBDRvrXpJWZyiGfuc+Qoo2qIvbYXsW/pKNsMeRxvaZVy1V08rAS25/GhedwCVMuARiC4/qvVacBzRwFiAZzg7NSYxXIsjIWdm8iuRiHMUiSxWYq4yX8bkCvl7sJQWkO4DeDW4RaimTJQakr9oEqZKgDE2vcL9ZmAVrVhJas9jQqlVWkqNoYiVAGAYy++qUeBRj/Npq78pR3yNsCT7zxk8sCDXty6casAVKFLhJ/3BdwClFYr1qlAUAh9B9MDZbD/ijVNEapPR9X1HGQwFbQDdyQri6Cclym22DtI2eq2kHU0w/MHe8NLtVXGhn3u7JVCMJhXYzbpDuhi3t/Lo95pQUPlfv8YW//bENz3niJf2+vH57vneTwc5mfT9f/9O0mX5jcWP/wD);lineShape=1;" parent="56" vertex="1">
                    <mxGeometry x="98.82909322276066" y="1.99714469956389" width="3.4336997713883948" height="0.7257739822496962" as="geometry"/>
                </mxCell>
                <mxCell id="44" value="" style="shape=stencil(lVfbchsxCP2afWWEkJB4TtP/yEyceqeunXGctvn7sN3ZxmhjNnrbC0cScDigge5e9g/PuyGGl8v59HP3Z3y87Af6NsQ4Hve783jRp4HuB7p7Op13P86n1+Pj/P78MFlOT79Ov6cV/s44yZDChIrhbf4SIcV/H77P9ofxeG1PEKuxR/3iARBKthskSMUFIBkARSAPEADFABJCdo5UBbL1OeOyxC1AQAPgAMU5Uq3A1mkWYA8gUNkASgHMjtMRqo1SJcjJAWSQaAHiZhpDgGDDJAXIS7X+ttyQClh9r0MLEMeJUiHYMIm4XjMt1LkCCN4GpALRkukqDp8iCCFJu0V1tsACTC3AI7gygdsoFedESubG5wLi2IfWZbUP5MQI2DJJ2C0fVYjSpFlVx+FFZMjNiRKIUw1a8A25FeDVW1Zihh5AIUjUc6TKQNjjtP5uq4chOmlT1pRmBz9vSptGMzaIMYlM6mFeVaVe1adHba6tFG8UT47AnfXJwNhu4UmA1o+s6tMTGVw1oA0Zi6sT+TrZK8S99gmCZd5GayitwGz0nilAlkcb3Q0RqKt/6g5iU7DRoRXQNwP8p+VXhwyoNkYbU0yF2DUmMRSreBtzmMpbz5y3mhZw0Y5b0QmNefQ6AkOwy4dlgc8LJkHExj45JUy06NqHPToETQkyNfaepuS85OZr9sxtu/HPUzIU6fBX609qRzx1ZI49+ZKVQuDSGW71sr5bxaa9PnxcYZ7Gw2G+AV3/b688+mm+LtH9Ow==);lineShape=1;" parent="56" vertex="1">
                    <mxGeometry x="103.57857669771056" y="0.30149961047283114" width="0.26955134233666156" height="5.023994457256384" as="geometry"/>
                </mxCell>
                <mxCell id="45" value="" style="shape=stencil(lVfbcloxDPwaXjW25Otzmv5HZkIKUwoZQm9/X1HGgHTOWSZvB6O1Le3q4pU8fWxe3tcrDh+n4+H7+vf29bRZyZcV83a/WR+3J/1ayfNKnt4Ox/W34+Hn/vXy+/3lbHn++nH4dd7hzwUXM/V2RnH4e1kJVPr/ha8X+912f2cvQj0Ye90gLdunTLEb+04pLtvn7PePQlyXAaWQVAuoVIEHNVMrBsA8zpwFNHVZLKBRA4AeKLIBSBpbzAMycTaAFCkhQKNir5R0hZcBMQQKjrdCsYAjOmXrRBF4RNewWyJqoIoAGhQrjVopNQCIxFarSk0G2miFsqW6dQrgSqo+jlZMt8DNI+K48lXfnQqIqxLFlggls2WYQdUSoZEuQBwp+TB1pRrlaKJg5afUZHRCngB4lJF5QKVotaFcFuB0DpOyoXUJUJ1lpOQdADmdNYhxAgBOF1WfTK4ETihTHtRpoCUtZSlNwoquVCfiS5RQsawkLkqFAiCuaDl2Uaow5bRIJJtyHRfLEnzKnRMIEadRstJ4mKM8WtrdEQ3puxOzB0TgdZoy1yggQPIFXIlACZHEF0ttGg9OyE4bAqur+iCTpA6okmlMJinXUVIz5ewBDE5QqiV5AJLrpwGa1Mn60Nrwan560P0scS1SBE5X8XXmPICAK9UyYnJtvJ0qiJJ2zWaZ1iQUII2qLchqSePWEKAOqV0BgQT5kEjcfHJdmeeh++FB2igkS8XVzYk6mTKSRhv9426KEzAnqot+7BNYjXVmcykaO5xEdT8/bTCslWlMFlcpUQcxYqrZmTO4TvSquBa1WXNVgL1Mhq1nMn8mOOFqYbCJLJCs6AXKI68XIpMstXEMuwtxdxkZqIE3TPG7h9F156fU0Ytu5mhGjZGEvT3YXt9PTgZhDDLz9p98ET6214/b8/Ntu9tdXq/3//vnqi5dnrry/A8=);lineShape=1;" parent="56" vertex="1">
                    <mxGeometry x="106.24357383771144" y="3.6282946303004024" width="1.6199130225619982" height="3.844148272513778" as="geometry"/>
                </mxCell>
                <mxCell id="51" value="" style="shape=stencil(lVjLchtBCPwaXakZmBdnJ/kPV1mOVXEsl+28/j5sVLMWrNQp3+Q17DLQNM3s5Ob14fZ5v+P0+vZy/Lb/dbh7e9jJpx3z4elh/3J4s187+byTm/vjy/7ry/HH093p7+fbxXL59f34c3nD75NfJ+XFidOf0wNu1Pq/J19O9o+HpzN7pdycvQjJuG6fE9Xg0EkKcGBKPqKSiRk4yAx4dajEDThUquodlBJy6FS8Q2VSAQ5KIt6hUwKH5ky5OIeWKYG0MlMf3qHQUOBQSHxa26ABDs2Vuj90Z+zQiat3aNRBlnhQT85hGFgA9iTFtI4ywXLZgYmDgwWZgEOh7LOkiTI4g4E5wFstJFCHYkf0XxiDUgYO6/tWByZBX7D3hTpUEnBoA7NkD41GCupgYM6+cPZkgC80q0No0TG/edmhxxYVa1FQB8Nm9ZU2sBRwhr6y0Ep81tPgDCNT8WnNBm/QD4bNQK05UwchGTYDkVklkb2S+ogqBLcKZf/+PB9csx8e24kaKJohf3Cwh/FU0hLsUSeowS5He4AJHcTRngGnqm7fj/jL7LuEfAoaVMni9X3D88G1DwwN9h3bF18AgaPWEtSi/aiwAM3Hb3QJmEhbbJkCu94AwWEwzwpeAxyXGD+KR6hIzA+y5404gh2vm6HMsIEtnuQBl6GWMvuQ/zQ/eC0/ZQR7BFDLf40NnxAeWmyAhPHct4SSUfymUCJBVJR/jfHn2dHX7AOBYoJe7D2BMpwxZt98fQWKiQ/byxTGq/igjs6b4tw27YwSNKyBQ0L75OzLDhyVsrUwgpCN4eFTKpkqcpBI0gUrNJO5yTeBqX3U9U0iC9UBaaVqbOP3b152qDOAM6VckcNGoQ0hRaLRJoc/tImFAQpXeoSekQeaHSZLQ+GW6YCUcotnOJuHl/cDG2e+/Y1w0Nq1rCyhHzIpWlkkKpCBS70QeiiE1RJQwMK4Qb1namjX1KgRlhZBqmIzlK1FFDm0SborXBVmKRfqniZtP0D4NlYJm6AtAFAZ5c2CPebGcOUWovu61TI3vcusQeqPXBMsW4s7V2lQuZS4fRSmDFhM5gXFynoDTkKetwerfYGtk+IdimVAQDxbYdqgskhRWZs9gwKnSQ2rfYVKNsf8LKsNarO5CJyNHcgUG2FX4OSUSKdmj8jOyHETT0MEH/HMK71ewWetMT9Iia+3Hmf2aJXbbKL2RSQUPnqL+H97+/F+ZXl/eHw83Xie/z9ecdqj0/WofP4L);lineShape=1;" parent="56" vertex="1">
                    <mxGeometry y="18.86965428972313" width="3.481049393311488" height="5.830677152800279" as="geometry"/>
                </mxCell>
                <mxCell id="52" value="" style="shape=stencil(rVfLbttADPwaXYldcp/nNP2PAHFqoa4dOO7r78utoNTcjSYO0JuiDNckZzhcTXL3sn943k3sXi7n09fdz/nxsp/k08Q8H/e783zRp0nuJ7l7Op13X86n78fH5e/nh4ZsT99OP9oJv5a4SCm3IHa/lxeFQv374vMCP8zHK7hnqj3e5208M8Vg8Ilc2sYLE1eDDyRlGx+YAhu8kA/b+KjnJ4NnciD/xCTe4D0xwGemYs93VPw2vggF1+FD3MZXLU86vHMAH0mkqzcxwOe+/94Rox8oVCwB2qEKGKiVsu2QJEoCJOdeS1wjlMUMmqo/EW1OqVBEAYWkUzWvb94O0JSLCahKPKo6ULI6ao0DVet5YolojUM1KE920hr3YHRK6aVXEgmgumRy0QRkVS8St55nU4qFHEppCAgqpndS6sY5UQTEjUV7oQQMr7XVFh3wAA28uXWibhSGh4Y6Ki+TB4bapG3xPlPC89kNj3iKgIM35jPk1TVvtIAka9duNJlcoG2PNlYq9OHRJ/UImNJgxFd9+E8R43Jo5IDtMG4fDfCginG9aaszsKVxf2qfKggYF7QquHzoBqDcoIkbrxjaabSBxjtM9dCLhzuS4tE6CauNvuIdNFYhZ0lQH8yAZs3WjnTxcBpcX6/6dgQ27PpZSIEyYGDczxHqevSLQBWodMhHIjHMv6tXl0IA+Q/99AVqWvmyktYdwkBwox4og/Z88Er+Llwf/t3+n+bDYfl4uP5//7Wgr5YvDbn/Aw==);lineShape=1;" parent="56" vertex="1">
                    <mxGeometry x="6.794122106855298" y="20.747252296648483" width="2.7770734389588534" height="0.38201688748284013" as="geometry"/>
                </mxCell>
                <mxCell id="53" value="" style="shape=stencil(lVfLctswDPwaXTEkwOc5Tf8jM3FqTV0747ivvy9UjRQDqraTmyxjRQLYXZCDPLwdn14PA4e32/Xy9fBzfL4dB/k0MI/n4+E63vRpkMdBHl4u18OX6+X7+Xn+/fo0RU5P3y4/pi/8mnFCpU0gDr/nF1yp8983n+f403i+i49MORhALFQyADQqxQA6jOdM3E18ohL344WXz60ZUAbxKZDY70eYcGoUqouvaT8+52X59/gM4ovuX1w8g/2X7vcfqMp+fNX9VBcfwn580+WTi+8gvmff30KtgPhKzDbfQK0BQKNsG6yUqgjQPUWVchVQTgHdiiCtTdkF2BxyWViyBxCbQ1llsZe0WBbVThG1ofgttUKMtpRJLO9apwSI2tUqLPFaI0Z9YIoOwNQ6ACjTLFWrUEONCxQtQNUUgXg0xWYBKm9IvrBUfQHIqqc9QLPyUYvNqNNMwflFgjloH5Jlq7YBCzTaBQoltKFC1TKpU8D6jE6fmSpaoHuHUc9vWG7NZiwNemQMq8etAo1UgMtPnmG5WhIcU5p1tSuo0XYkn0rJCTSR4L45rqreoLMm4o2iI8rhowC1FHHUY2gB2+FT1zLsTbfkyqp0RONQnTp5APK9aT6LBwRQVnWIyB4QAV31hJE3OWRQJT3CdNlUCRil6qVbttZGHQmi+yGtjYuArVGoW1Fr7xE11GQsMyZFgTYkb0p3mv13kZYmrQvoiARMUlu1JVK2o5muxx5XIayFsJxK7ysKehZ8gaqWANBu42BFiQvyDYtJ3x1J0CkpULL7V56j8b+ZzSnCfq2n5NWz0+JnO/1yDBXdIejXRy8u/4/Xh/db0st4Os2XrPv//a1KX803Mnn8Aw==);lineShape=1;" parent="56" vertex="1">
                    <mxGeometry x="6.413417681970145" y="22.859273649372113" width="3.2286787114376887" height="0.3942779474389551" as="geometry"/>
                </mxCell>
                <mxCell id="54" value="" style="shape=stencil(lZfdbtswDIWfxrcERf3yuuveo0DTJViWFGm6rW9feoaTiHbO0DvH0WeJR4cUNcSHt+3T62YQfjufjj83f3bP5+0Qvw0iu8N2c9qd7WmIj0N8eDmeNj9Ox/fD8/T79WkcOT79Ov4ev/B34qRSayMl/DG9CaT134vv0/j97nAzPiYqbjxTDPeBFKjEHmhUMgAqsXSAJMoAyDZD6oAY5kWuA5ma9oBSATGUS4gzYIvMQKUSSUsH2JyCgEbSL6kIVRBDFUr9PhSLoQCg+H2omTTdBxpTyx3QAiUFQCHmHigUQAxq36sdoDy/WQfUx6AFWsMA526teIZG0c1gbxCQKfRutTlDBABTYQ8gtzZzTvIAStGqKzMoskYiaYslAcCs1hZBM7BGKVR5IasAwIJ2+2Abh4HcJ9BoDQZApepiyHMdWVfJ3NoXAU0wgSzjpHoAmc/yq6oHBFmjUlwAEWXcomoYgMrMKGLyKiVkb3N/8vsgIEUDsy8bttUBuG/0mpuiEeMgYvZAA3Y1mWTh7wyito1g9YCCE6UtSt+NDutusmq9SNIKgjC/huoBdFJbRuTiZcooqy3nnEyWVECmLwNZF9U1zJa/d7Sn3ht2BimQNYtXybZGUXtiqvczWJ5HUAZS8RtXeTbwOhCp9EuydiKgnky9+0wG1M9YE6e9rNbPKJBV1NfvhGOwli32MUSBMYRLB3bp+i4n6zpQfBWwT6AWq81F5aZxRRvNXlSBbeuiigk8EXn2/bXtzkhPfxwGYmRSf1RZ0wG0rL5m89yN3inZvl9gWH9D9G0bLnWhei0ZRmt/B/XrR2JGYr8eKH6eE/w6HjlHypxM191K6PtfvIP9f7w9XC98L7v9frov3v7vL4j2arpcxsdP);lineShape=1;" parent="56" vertex="1">
                    <mxGeometry x="15.43546115770539" y="19.547443132849068" width="0.7631626914997989" height="4.639726427607944" as="geometry"/>
                </mxCell>
                <mxCell id="58" value="" style="shape=stencil(rVfLbhsxDPyavRKSqAd1TtP/CBCnNurageO+/r7cbuVaYnZqA72tLY5EDskRNfHD2/bpdTMF93Y+HT9vvu+ez9uJP0wh7A7bzWl31q+JHyd+eDmeNp9Ox6+H5+X369NsOX99OX6bd/ix4DxJmkHB/fzzR6Dqf//zcbHf7w5X9oWSjPaR1+19pFx6AFPN64DgaF7rTxBwgrrkhhAihbQO4Eh1ACQKsg6ITD73gEwOuJQ8JT8CUgGASimOAMRS1uWBpQKDLtyWrwAeuFSEMo+01rgOECY3lIanAmgV5aSPQYhB6VXdrg8hEAOOaqFYO3tHzgF7oVCH/XMA9pXckGWtXXRAbUVwOcBDShVQ+xM4t6y8323uEmJDpEAFkVpbczVAlla8a4DY+ySaBlBISmvpaa3a0Chqac11AQhUAE30IBnqJAw6N826ABIxKFVdLr0CaPEySrUqSp9qbcCIXEpjMSVp/XQjIGox3eVSwKJkg1bpzvUeWiNuIJM31zrwxsLwUMJs5ZUm5DeWtmpkxv05NA+r8oMcvNOfsWDRMxKQmRiRZERGldwhloyMiYaFXDI6qYmELhkhvuLhfyHM5VBx7uzto1ug6rb3m0ir3xtvUNGeBfVn72jBo4+dAhRQwBRg54w5KsCSnWQUgOY9OyspoILys9OYRCqAVjvvKa0oaDtRCh597MyqxYJYMkOxHoCU1Qzdau9A6Xlz5ao/gCJHdfAntBNX7HO/fylUgP+OuCe0eCgxjrzRMA/9GYeYSBHuP4pqogSK1PijYxWaSEy8OqlWuP/Ap06SAdoP+Zpnc8CPqYf5TQVmhXsfef+214+/L8qX3X6/PEiv18cXqP61vF758Rc=);lineShape=1;" parent="1" vertex="1">
                    <mxGeometry x="588.8384797857545" y="24.41035334251589" width="8.398022233739589" height="0.42228251999355004" as="geometry"/>
                </mxCell>
                <mxCell id="59" value="" style="shape=stencil(lVfLctswDPwaXzEkwRfOafofmYlTe+rGGcfp4+8L1aUjQNZmcpOthQhgsQC44bvX3cPLdpPC6/l0/L79tX887zb8ZZPS/nm3Pe3P+rTh+w3fPR1P22+n49vz4+X3y8OEnJ5+HH9OX/h9sUuVSpmsUvjz/x+q7d8fXy/4w/55hudEqRu8UK7r+BypssHHSrGsG5RMMViH1CNwQm3UqzXolOK6QU/+BGZKsm4gmYI9gYU4rRvEECjYI7LmGfgk+tqmqRRKIE2dicUYVKYAiGuFcrIGeiYIogZiG3XTE0AMGmJu1kCGk7drKVO1LvVCJawbaLGyNZBAAmojCol1SRqFDAwWxSQduhSLZ1oEpjWqIKyAZtVym2pK2Z/QO1CQr1bFR0BDGgKe5UjA9wO1aPEV0rzQguqpQHx2+EQNkUzdcRwpgO9nSjbeLtSQcohtvL2TQPX7BKlBRUW3aHnTCUD8WqWRfQidoQ7yIkcRcKwkdPEkdECCspCsS8pyRVUXFmWn/QMYxD7GwEyaAdVFpeC6hQwp3TbQEKM3ENS1ifsCD0Koo0PP8BmwwAvld8qI5sHpLKWoPQaKLl4dOqATKd75w2NGrPiTFlVXkXI+i8/ETjgBEjAxYDPUtBuAE3TQuxGl6wbaRsq1t10NIpyatVO3SS1YOK35qiiBCihrnfxiDTIOumafJU0DMsjX17ONChWGboXFVp5qCfVUXRWCjWGiEjHdfHvROReQdip1uwhHHtW11ubdqqD7FBgjindJKnAlVLzrFnkMxjW8W/A+8D+OBfN980/I/zT2mmuCRvtbnWr2+2FsPqvtOjs8WuN1HrgqxWvU1L2qx4Mhq+lY4BnkR9MtHi9Alkp/dgVHDUjgsze1j/H68H4tfNofDpdb5fy9v0bqX5crKN//BQ==);lineShape=1;" parent="1" vertex="1">
                    <mxGeometry x="595.8072165195833" y="22.44360993707913" width="2.7251873368568833" height="5.085804552063368" as="geometry"/>
                </mxCell>
                <mxCell id="86" value="" style="group" parent="1" vertex="1" connectable="0">
                    <mxGeometry x="610.0041916657533" y="16.43714787996127" width="121.83756206500982" height="25.262696826427252" as="geometry"/>
                </mxCell>
                <mxCell id="87" value="" style="shape=stencil(lVlJcttADHyNrqgZYNZzln+kKk6simOnHGf7fcCohuYAZEu5UWJjFiyNhSd58/3+w7e7E4fvL89PX+5+nT++3J/k7Yn5/Hh/93x+0aeTvDvJm09Pz3efn59+PH68/P72YUEuT1+ffi4r/L7IReq8CHH4c/kjUAj//nh/gT+cH7fwSNIsPgF8o1gsvhzjOVMXi2/HeElU3Pr9GJ8ScTD4CO6bhbpdP8ZjfBHKyeL5GF+ZpBs8g/PUTi0bvID7NtWnPU8B+u+BcpzwEeqnq36CwdcK8JXqrE81IDh/b8O9Br5QE7z+fJ5Ogs5fiefzRIYO14vdIGYSdONiPS52CsAleqY6hyQLMYgxFUjzHbgOLzkSkNnIwlSwABuBSgWpVQVmmkiMtaR3mOM+VQpYoMxHypEKFmizWnOBVKSGs64XhhqOBOK8Q0lDDYeuMQd/aZSQpQvl2ZeUPxKyg3rrTBdV90TOp1o3Aso4OIDyfOkmkCGXiJ53aAW7d7OU0a4EUKc879Dj8K79JBXWpLdKCJTQLcRsobyELlEHq6wCDVtOSGbvW/ZETK+ZtlqBBryvRUsbGz3sJx8ZXLrZooMQUv8P7ASupFt/CaDXpPm2OwGwg4jlDRWoqCJh6m6Hirxp70gV1Qw7lkY5MY8Mu8UDHWWb4hSfgGMkag6PAlQzuDFyG0XHAT4Xiy9AP7q+Cx1Eq4m6wddhwgP9JLb4CtbXkipbPMqeStri8EA/nirqqAgO8Fafel+gz/XtRp8REcWoqLfUhZhoB49qNn+eThHo099X/Rne1+qzw+LF2+taPFp/6LAS8f62Jqwb/VkzAdCnj5cOe7S9eET+thfvKDN5PmmwxPZ8VWEO8HxYhwZu5FvFA33+L34nAVRIcDsppo4lbk1ia1AcpknHKRnYeEnEjuQSIjnZYV1BUaxlors0an3b2oluai6UZ5quV60ACjQtE0WsADpST3Y6oF0GCrXltTFcxHVjGlS7KX4FFb+u5NLyOiEBGeS2KeAZaUkG225bBNTmrOttmxDU9ItrQrTNQb0dDyVuGym0w9rvblo1QV0L27nO0gyiS7Pt7bTdjKilYNtuakOLaHjxnDketGVGsyYVyHM8pCvdY7TDKcG85ANoGSygS0cbosvoAtkhWl9i5REUQHGEy9rlaDWCfCmO4ngz4IGGi9b5ohoOO58ZjjRYnyq+zloteLzDduaXYD3b1nJltdoY8h7NFE32YdhBKT2YkRnDemGZiYrBIxb2M1eGBvMzXYz3M2OGLudn0gzrWT/z5tHK3zhT55FKb5zZM5xjuU8CDPOBGyNcWz3Y1RFphdEqvc6X0cQhWNeJ0DXXYf4rHFVFbkwUR6l6GzzAOHeHCZD/3VUD7OqdInH+cmYKMEacE+jdIfz/vjpdg+vD6weuT+eHh8v3se17+0FM/7p8TJN3fwE=);lineShape=1;" parent="86" vertex="1">
                    <mxGeometry x="115.88650938703734" width="5.951052677972449" height="10.25509775329758" as="geometry"/>
                </mxCell>
                <mxCell id="88" value="" style="group" parent="86" vertex="1" connectable="0">
                    <mxGeometry y="0.0061644641744571516" width="115.88282714410286" height="25.2565323622528" as="geometry"/>
                </mxCell>
                <mxCell id="89" value="" style="shape=stencil(lVnJchw3DP2aubIIEtzOjvMfrrIcTVmWXLLi5e8DZsJ287H7TeU2C0BixwN4ie++PX74+nAJ/tvb68vnhx/Xj2+Pl/jHJYTr8+PD6/XNPl3i+0t89+nl9eGv15e/nz/evn/90Cn7py8v3/sJP298NbnSOlfwv/77xeX47w9/3uifrs87+tJc9RN9caEQ+uBqnuizi4Q+Jydlok+uEXlScTUhfSP0sspTiTyaXZjt05zPhF5ckIlegotEgWj2izNDdo1IFNX5WeMQxp3HDOaCMDOYDxJhiOPvjaFRo8bstE4MdkRTYiXv4mwlO0I8YUgu68xQXAnEz6Y0iFRdJVbK4nxEBqZ0bsOvOwaaCtn5gkonEhpV0HFm1kxuqOZXUNqPO48ZTGLwdKY6GEOZ09+CT++INOsgzQkJvhaGmzaGOnx/zBCHEXcieRIadkMDHRKtScYgcw2wfEhMJHFxZrCkVRLezY/zNoatzh6btWHZtgyJJLyNQWY/JE8Ln3k6zYUymSuJ0p1hDm9LKSpSRU/nPErbmQ4KvcePgD8za5x1KMqDT7CQleISc5xF6+y46l1mwZdcnaPVOnBlIlmKzkqbVkrM2paGYncKKWRm1gQtro4mecygWPlac5n4wYwIxVi8FSZiV3NsE7yiklqZ4yhDO4bIGkRymlBrVo21OJ1dbZbOxEyWwnlOuZZdIWayRi1zuPZoIVYKC1hqSm+w2gstyKpnI8EkC3wzBs+gAPYHyxBPJAoLvBKugRNF+kCqkh81a5c9iSi8heWWnjy0PcrTqxqJIu9KQnpW88was8OqhSEJ6zisvaP3RF/FKm8Nm+V+RvBp9AwlFUQkJg/rtdVpRHp2flv0NYRC5G8ugL7mX9ZoXYP496MMnNAD/Lf4FFYaUf4e/+R8w8GQL4EiPEXo0sEMic8wbt/JQwuE0yV/mX08xpvZsxD5/Zi2dv5qxL9Gr0gvNN8T5HsdFelEX0B2Fp+ZnB+wBxi9kPzVRd88eudJPKz5y/z1f+lFMQHMQMyg3UIBPcBafS8Ri8vYyG9YWhZE1NjwuMzkPcmIk9WyHrBBoF3DoDGgOmuTDGhmXfImUjBRZMxl+87NCqkciHQH8PtF6UZCzxh07ZXshjTO2xh0lLMzoFlmx5lWbBasEcO7VAoPakC8Uu6IJJgPBlWZ44whLVOOcAaARH2OYjoI1ngLR9ZzjAHGIpsFC5vUZGCO3bTJukhngP3ONmScigQMOpDVqZXmWOqtnTVyQSRitZbmQ8AbpNKJoq9SgUHHSHyMRTIWAbkzCzYccoSXyt2Ytdt1MM/ZECRzFYh+DEpnSsBioa8PmZmWDXK8k6MJZxD1AyWeuhrCNfDNnCDqUaWoMC9bLUuIQJI6LWO/bp34mMHjtNlvYEDP4zyrkU4uNm3iDZ7We8P+GRxXRoocM8QlNHhHCcvCM/CUM3iVgMEGVlJn+qZvjiUp1A9hXc9vrfuYoWELEo6IzSawN6s0uq2SwkioA/OegRnoJ0In8lTQpnxVs+aCp9CnJIRvniJQ6+mAfPiDSl1GvEg7uoFH2IEr1bcJjmxK/dWxpgd6Btx+L0y27sy7SMAFYabPQf18BfrKl9kwwhQazx2MF6BnE5vRC4A8utTtAx3ATo4667LSoQ9BdXsQ3NEzYLG0ff6Cev/F1T78fq79dH16ur327v/H51376fY0HN//Aw==);lineShape=1;" parent="88" vertex="1">
                    <mxGeometry x="112.02884406442456" width="3.8539830796782653" height="6.772758060613718" as="geometry"/>
                </mxCell>
                <mxCell id="90" value="" style="group" parent="88" vertex="1" connectable="0">
                    <mxGeometry y="0.5562009197293918" width="107.86348686027344" height="24.700331442523407" as="geometry"/>
                </mxCell>
                <mxCell id="91" value="" style="shape=stencil(lVnZchw3DPyafUXxJvjs4z9cZTnaiiy5ZNlJ/j5gtjgaNmc60ttaRs+AYKNxzCV++Hn/5cfdJbifL89Pf979df36cn+JHy8hXB/v756vL/brEj9d4odvT893fzw//Xr8evv3jy/dsv/6/vS7P+HvG06jON9Rwf1z+0uWFP77w+eb/cP1cWdfq6Q02SfRROyjFA/2pZzblyahgn12xD5JQH8i8T+rlAb2gdkHieiP9+f2KUue7aO0dm4fVWpAe/L8GMRnsNd6bh+KePRHiT/BSY3oD7lfn6UpxMeReLbx9h0dIqGP1Pm0Rj/GBny6D1KJ90XqHBxfBj3O7OfLCl4CY7PUmfyv13FmPwczevEkmkUakCFTNlTxEH0nkYY/gX0a6X9ir7M/ScXpub2O3NvEx0si/qjk2Z9s6kD8UWlltq/U/zaiMeyLG+l2zH4nblafkod+nQGKmwGN6qcBdHapKyoJqQHaHKNa+Bs2im0Ac4mQzgAgiRokM5fCkPANUIZKHgMK3rO2Eehj1YqDZgPQ7GbIxRkzQEYNwOpMTEgNA7CwJovSfIZmgSZaYakSCwIiOUPOWIoNQGtlkJAXALm4Yi6tbyCAzk2HAKrvdg8LQEn90zTK0QYIPKVN4eANUSI5Q6vLxWVa8psu92A3Qy6uWY8DbC2jCzsDaEBAJWH1zugPp66SWV1uI+wbQGkj1Q8BdLUcJT71MHkEMDL1i1je0JhLRcL8hl0cjhF50Q2ufc26m4YA1pF0siWMayUthtG5BQTQuAZRCFOVwABR/EI/yteINcjiRs+QpBYERH4PeIZM9duO6MK7ADpyeO8Szzm3HJopkwHKGlbG74atc784rhttyVFHSkrnpiKAnmGZRvojWD5UHBd6AjHyLaX9DTmK8troiPRugOqix5UOSTY0Zzh1oXOGTc1lYR/TGSukBzWFTSZrqc5Uvw+aAZ4Qvd1YEiISl3pDswBYDeot05LUbFkQ00FSKwH0gUYR0Ahdbb5blYzdtLWudQkrVWNJczPd5ZnYZ2yYrDXORDS29cCu92Yja8RcsOa+ERWL43RvnB7i6GnfOJ5EHEEtNSp9PuhLdXQhEbHbswmusAXMMvE52n9adZ7jaSNoJc8PqMA24lYS/4D7JhuhC/UHujBLUzaxBrzflEaPf2IP+8TkBsOPE2bZN/Fe2I/mfbciYUXT4QogGP+JatkYCCsbP9rQE3sYJLsCkPgsjblNx2zl4TBfVArbSKB5pmwwQZ6jww9rvkLb5UY//MbtoNkzsi3bR75/WbebTgKb4sMYwXf2JPh9O7v4w0peRvVxdH+Xw+iudvFh16XYifPeqaTVHxb/0lB9HO3ba8IFnqPiYOM+DOOObsd1qV4mbiSemjB7/SjHx/YZxzkvjcRHl+1+oGKiW3fxas+Wd1abl+0+40+v5Q7sM/OnYPeQKN/Mf8WvK0zMdVt8vNori3/C+Fh7w/xZtnB5tL1n/IGZLNNi/d6vYf9vbz9eP719uz483L7c7f8fP9XZn26f+eKnfwE=);lineShape=1;" parent="90" vertex="1">
                    <mxGeometry x="2.3568052696961104" width="9.191016812697136" height="13.20664473078587" as="geometry"/>
                </mxCell>
                <mxCell id="92" value="" style="shape=stencil(rVfbbtswDP0avxKSqOtz1/1HgaaLsSwp0uz296NmKLVo58Qd9uYoPOL9kBr44W3/9LobnHm7nE9fdz/H58t+4E+Dc+NxvzuPF/ka+HHgh5fTefflfPp+fJ5+vz5Vyfr17fSj3vBrwqVEJVeUM7+nE0sh/D34PMkfxmMvH20nHymb2/I5kFH3+3ayDijkTQ8olNNtQGEKrgO4RMYDgLjQa+BAjgGgkOs1eE9sISD3QQpMCZhkjSHT2xSZLFIhce1VJEsFeW2IfQ8oFB3MXOYOkCNxAQBL3Ke6WMoIYMj3GsSrAoppEaSSyQIFjmzq5a+pXzeIAmt5A0rPZvJ9YZRIMd4GsGnNMgN4kOZaaEkDGKQ5JEoLkzzwIUq/BQ1IoEFTJnY6Sqh9MjcXZwCkIfuW1VmeGQEMhawBBbGYa39fARIGENYopWQ0IKPEFbKxp7H3Hl+vjUDBfggh9R0WXiCjrKW4dBvEiRdhkriC+jbkopZHlGHabfPKAPJBD6taeohXfbtuY3HLNPNZA1D78ILq7zUot4hspIAYVjQgkkmBUtBRMgCQpbgXYQ2IuP2CuHO74v8A7LKSrl7domKjiNLCxUSaR3F3HW8gD3XR6QEyQNGqxLbdNxvRGTjNsaVpvgSAEV0po8903TOQSV5PuDpgAHez02QvOhmFNemwygnyoQ7pvh9k3yuoNKJeZKTLEQnEj22ssV22cSEmp/fnO4XNfcpMW7PW5YNuBNPW3fVwWkqs5B3gL1c0HcnMAa3PSTMqnlE+6s7H8sHrrRPbI4PZa3uQvzHrkYPjmbg9PrblK8W2hW+rh394f92Rl4/3x97LeDhMb8X5//pxKEfTw5If/wA=);lineShape=1;" parent="90" vertex="1">
                    <mxGeometry x="16.47529565027014" y="2.331316600367259" width="0.32204696895956375" height="7.384855678236322" as="geometry"/>
                </mxCell>
                <mxCell id="93" value="" style="shape=stencil(lVfZctswDPwavWIIgudzmv5HZuLUmrp2xnF6/H2haqiIkLydvOnAkuBicXCQh7fj0+th8O7tdr18P/wan2/HQb4M3o/n4+E63vRpkMdBHl4u18O36+X9/Dy/vz5NltPTj8vPaYXfM04SpTChvPszf2ES+ffh62x/Gs8r+1gp1M4+kfj79jmT9PYs5OJ9QCl2A+8ogB1qJDaAQgkBCuXYASRTBC6xc+RchwiJMmCpVpIeEBM5BEhUU09roOoAgKn2ccvKawW8CgXpAMWRJBC5SKXntSSK+T5ACrnSAZTpBM4gTMX3gAp38KEFdhHTR2j2Q5fJB7tFCSjWFKIFMN8HaJhyb58bb/sbNNIX+0Qe2G+kVwNFdGJy5sCeMrAPJMZ/XQHEoNp6USrlAvxZjrcAClUA8LLZYUnYfRm5likrlxjpLrcSt5xZWUYx9uSjJUkASUFrkokCrnoKyJswF7SDtN8rHSUgbFl0v8pORukcNkpaqtp+4PIm/ytVUIhZtZQ3AFCS2Ld6sgIEEDilhO2ZBZDkWy9bkVqAQ862nqkZAX+crcEqC5T8KhrjD1MEuZM3KlIPUY2nVD9jL0JsmohAQFDJ9JrI3AaC/fliU4+0EXoQMm2soZdpjFB1Coi9KEKGiaAulR6gnQ6lWuQmygXgmtL3WVKXelo18hXoaFpvM1WhQ29GnkIF6ChSMFGjiiow+f68mjXA3Ns6ESlBc1NLA5wHdc7pc0C9QwNt614L9cTAmWqdYahOFtv9HB41lWhrz8B79dbMjXgemgLJdn2U8J6iXR/N1p+9TvzfXh8+7i4v4+k0X33W/+1dRz/N9yR5/As=);lineShape=1;" parent="90" vertex="1">
                    <mxGeometry x="21.26365065849859" y="6.889522006624034" width="0.793450082766527" height="3.2228211586610866" as="geometry"/>
                </mxCell>
                <mxCell id="94" value="" style="shape=stencil(rVhJbhsxEHyNrg2SzfXsJP8wYDkW4liG7Wy/T08ETsQaseQAuY1GVcOlq9ed3rw+3D7vd8G9vr0cv+x/HO7eHnb6YRfC4elh/3J4s6edftzpzf3xZf/55fjt6e70+/l2QS5PX4/fly/8PPG8aFtIwf06vXDi3J8Xn07wx8PTGTxLKQPci/dzuFdJiK+N4Jv4cTtBNMzxtp/oAV/qHK9J3IhXCWmOj1E0AT6R7yeVFgBfyP6zSm6IJ/dTgjQFfCXfr3573qoEXyTjeVuZ45tddxzwUQLZf8uiiKffr92cHZ/7hV3Wj1vl2wlNGjFYa5LGDfkrJ67ixhvyhZp4OfJoMvOBSFysRYngA0kCN0ICQpNIVN0cWk1Nh2RLtYkD2RXqB6ajOPp9tENnQsjigJAkshUielpsktkKpvzRFVKk11pN20BooiTYmbPlkZBjt8xlgtsQWj/VZfdvUkbxFS4NI4Babc1EzlCqpNHSNXWXnRHc6KEmlkzEVzbyNh/0nBDGWzIfZFoyAmypFSoNI/jx0Oa0lW8J0oIRPHEgI4CWWpLECAkToRHoCqlHoZVgHsIOnXvmO1vBMS1Z7lcksDBTSq8Nzm7JkexjhO21Fralgum/8bi0rLDRknKCG0OlqdWxDG0JSpGQ2aHzRnwWBJjHJQz3Z1lvxoDgakvQMiNKDkjQKz7a8F4LdwjURumlzZTgkOBZrLQtZRQTjWSxS+dM35lpw641ICGw4Jqw2Fh8lK2QN5FsLWBnhO0ZlNmhbOql1PPkfyKsR1wTRKU16HJLkILMMkx8uQthzYqt63dGqEAwsTDCpizOV+Rdez21EpRLo2HYSIVX6g47hxR6rzWrTiqU3oXW0lYwQWCKSps9MxM2D5V3Jxmjhkaad005EI3VcULr7eZaGlt8ZrW0xyrxSgfatJcWazTm1YlFIYitPvSK6DIh9XSw+gPHBzRD4VVowQ0VXhdvekoLxCyubnrW0oU17Ykr4onslp7bAd4RAyw9PfgmzTymSdh/ptHF/tYAeM9nHhDkE51hWIMaHeBZP5k3rRhvobFWUBrpXC8kzgYk5OvWfQSAs/LLoam039UE7kdPWVu4CRy62kCHF5vRwhpRZ3CYLPRR2/v27ugcwmEhu/aSs3vHr7NW1qKqAzhrPnwvid83RPzHmeNVuD38HW/eHx4fT9PR8/9xHGqvTqNU/fgb);lineShape=1;" parent="90" vertex="1">
                    <mxGeometry x="25.599471409841954" y="3.230820200811962" width="9.355344132401239" height="6.1737189616845844" as="geometry"/>
                </mxCell>
                <mxCell id="95" value="" style="shape=stencil(lVfLctswDPwaXTF8kzjn8R+ZiVNr6tgZx0nbvy9UDV2TsNbyTaYXFLDYBanBP3xuXz42gzOfp+Ph5+bX+HraDv5xcG7cbzfH8SRPg38a/MPb4bj5cTx87V/n3x8vE3J6ej98Tzv8nuMc5TwFOfNnXjBkzL+F5xm+G/cXcJvI+AbvyIZlvItkUofPdhnvBd/mE8gCfIhUSoOPZN0yPmYyrsOXuIxPmXJs8Il8WcZnJhM6fE7L+MJUWj5z3eAqnjMF2+A9RbA/F3Khq5cZ4rnl0/ra8esBXN9/brAnRhUwcVdBpggoteYsyXMNjiJosryitE2WNlpUNZPnJqCYqsMlmjpZTI0EvpG+catrjuRR4yTjVhicyKKURJhdgFgTSFsSSG1A8dCbEtCllG2l4XpAoNJqQ+wX0RtUQHAUgDZ0Su4s+JVFy0Rz6A2K1gwHhu6brw5fKYxACe2vlGcNOcSp0rblWwbt3ONdXVlr0CB9Rm5QMyBJn3FO3ZTJ6ZZBuzlWUl1ZOShFjAYNGTWJRSqwhnsD9NkgjmYwM/Thwx66QZ9uEpDuOj6FJTRk9Pk8eRz0QV8AxLIFzG59wxCiHQjQVxgJKIBWdUW6EPxCgG3tIOKKgCRLIfccOSBuQ9w2oYi0QNdMv38uFED+hmzL6KQTMMP0+ZygdfS48HUIrstHBhLmp6tXGI5AEYpPK/cLsL/qV4T0KDlIPFDDnTfym3B5+H/5fxt3u/nb4fL//mNBluYPDf/0Fw==);lineShape=1;" parent="90" vertex="1">
                    <mxGeometry x="30.76499596342353" y="6.596480925804727" width="4.31629617046235" height="0.24069599645424122" as="geometry"/>
                </mxCell>
                <mxCell id="96" value="" style="shape=stencil(lVfLbhsxDPyavRISSb3OafofAeLURt04cJw+/r50F1pb9HqC3tYyRyKHQ4qa5OF9+/S2mTi8n46H75tfu+fTdpIvE/Pudbs57k72NcnjJA8vh+Pm2/Hw8fo8/357Oluev34cfp53+D3jtJCEM4rDn3lFKMi/ha+z/X73emWfC0UZ7CNTBoBSKbcR0Ci2+4BaPIAzpXgf0JQijyEoSQaA2h3oAGXScB8QQ6AwspQCJRB1a6TjEalSSwBQqI0AY1oYABIFHQAl4aiZJA6AKn2L9UREf4KdWQFNpZA6gK0UAIieJUtNBanO0h1YAK2rZRWQEsU6qu+Sy1WE5p7YqyMKSIRUKukmiAoAVjDF05QATWzSiT4RDdDEpTuwAKxGQNDcblzi3hfWY7D9nEuBCigIDZ3ERX0NVpAaiQ5gKwCQjMTkAQWJKVOI3iXUmYr4XmlBMyqIekNrpIxLzsXQ7EwgjbrsdyWNT1xqTt6ZGnDJgi4u6EqKaU1OGtYMQeuzzhhvirqBTqaNJHkAqjiNvuEbgFFNK2n2QQcQgxVQLZ5WBVqyEvU1rVCt1gSKc4mpohP+FyCt19dSD0wRiE+X/ZYrSGG/13RzyZn4QB7O08lIq4kFXUEGaGPQdlE3JI1MeWyVKj336wDx0pAMpWH3g7sVGY8CNoGVERBzv2LWAf6Ow5NDIBnNcx/p7pi70UdhrdnQ4OihjNjxEwDDWc+mz7HyrWGCUGOkOlIZIJOxEFdnz4Abcz9mZ4+GC2sTblQ1e1Aw1odcSYYupnsl7ORv6UDq135ZXOxh5y1+hsSvhc9fF/ZxeZq87Pb7+WVz/b9/ytjS/AySx78=);lineShape=1;" parent="90" vertex="1">
                    <mxGeometry x="37.68707635630426" y="6.663708100166517" width="0.6692309728593936" height="3.200168179628753" as="geometry"/>
                </mxCell>
                <mxCell id="97" value="" style="shape=stencil(lVrLchw3DPyavbJIgs+z4/yHqyxHqiiWS1Zef59mqThaNnda0W13llgSQANogHOxTz/vv/y4u0T/8+X56fe7vx++vtxf7JdLjA/f7++eH17w6WKfL/bp29Pz3W/PT39+//r6/ceXsXJ8+uPpr/EP/7zKWXHJD6no/319kvJ88uurwOPD92sB7zoJJBfSuUDMruRVILqiBKKLtENwRRwpNJdJwLtUhUByNS4C1l1QOwQX2ypQpQ557n+sT86a2MDldX3srtr5eu/8qnHE/wuNsb6v6w+NTs5TbFkfsgtZoMLFsK6P0qB5nnau7y7G8+XNhXV5kdaHu/rqX1iniPXFRTK/K0EgNDhbzR+k9XFcihnvsrC+RdcLrVfWBHpTpPVerE/FeV6v0JAjJwkkAYHOvPkLDhH+KoDPCrfjwe311eXVPkCngE89jjvXV9cEHirsT+eHg7sQMD4Q4sWEB7BDowCDD9UOiNc1i8JGRWCudOfXHaC0dAIqATkhSh3gtUJJsbgswqbADWuWQJ7Owm8DR2kVSBPptwUy+yE1iaRsMy0fSAquCmjg57JmUuzphdLZc3HK8IMItgQgrDoMu4ncCxXTqkNBRRZHSpUdh4BS6Rf5guPHy4QHASrhI0KUDlvBrEUWQAChrvFQu2tK6cTx0BCDIh6Ssacb0o4IUehQV8d1P/PIGTQoCfSowVcmEA4Bk34AcppngSJ2KABzYoEmoIE0w5XcXBV+qGmGy7UOAhoVSaCzlVT1h18pa/QwKehtgTyxeeU4daTxM0GjuCZiepx49QMOWQWWINDWEIUZolC6H3zrEMBfaB2ooJQmExnQzwJHhNwWMGYlgKMXOiCCCRpIlSrdI6kQj0cyNk0cqBfJR+W+LRCc3+pDF0rnNJFzCHidl+oMl6Nk9cn+bgsETpUQUGUXRTZ2FlCFHXQyblW0Kr66VSAIKAIKAUrGMIMXSqPdIkY8OKzAEnYgSo/0LHdokx1dcY0ozAorcSNsuj6ETWmbhr4tEGfI/1+Bjc2MIymuAbRuSgdd46hzGE9Unc7bDkWmGQhQqz2goZlASywgCRYqEEGjybILI1JRRABF7en20RAtm0DS4MtbxCmlAe/qWUDpYDv3rrIHsroFUJEzj7EDxUN+T4B462gHBP0ZVqLREyqG4q1+MosrAVMkMWzgM02lPyxwpN5rHVRLkyfDu7JSETvkvoUo2mnhhxK3zJcn4M9ay0yeLnPAdFbYjQRQYhSF8xyiKLtVkcQ8y/gVE1BEFxyS0ApyIgmWMTMuXkZc34Ziw9CK81XmS6DvTZTd3tjT4HyqB+qduXcN0/dnAnXdoWZZp4PfRplgumpYhy3aiu8WJJiGEquZWpqDiDO70jS2NVmC4DliWGDXTdP7sDVBahLS2rZDlsQVKhJxhVZyRtYneTkEmhwKopGr1Pn1OfY7axWrsUAVRypbZb9Cy1m/Sz1K12Q6b4OKcSYR1WMU2lggqQrRtha86XFOZtbXNfpQtLijTjIdo1JTrwi4KtZnhR3RkvTcKO1b+6pa8MG+af6T5QgepZ3Qh35X9Ypj1Ljiu+g7h9FnUb+bNa+MW78bJ2E545WUZ0YpVtBIPDAa+FXQKJzwgV81uQda6WZjEFE9wyobiWt64kohCkOreACfoaHX6B5VC97YrJY0nwl8O2ZeDlCLTXJ+zNazzPdAjq3QiFHGNBgTkbhxyakGFZVbv2CSbSC5Eq/s0zFnRqL4qbLqgh1RAdLdQN6IcZ5z8LM0SROyozU9TRiB16sBgjGTyZKB3rqjVKCLxpCoEtWhzPL95i91ngB/UfGMegrKDSJ2VJjeADcusRVf2EIgzwunk/NQzzCeaIUpZCzoO/fKuc70xCd6NpFpEgad6e5nNMmqqkXO16ajcvzf9uqDmoAid1IYj8Kodujb2xhe69C3SYO+PE1b7/ZORRgDTRqZRumHGwKmx1z+xqhOdVZQeh9NqC7Gts7qrbifOm4baErSVjlBjks25bi6TXzyJLtntPCD7w69L4APb68qfXt4fHx90+n6d361CY9eX4uyz/8B);lineShape=1;" parent="90" vertex="1">
                    <mxGeometry x="41.50027485360749" y="2.3059899683770766" width="5.610480757984588" height="6.619034973994297" as="geometry"/>
                </mxCell>
                <mxCell id="98" value="" style="shape=stencil(lVfZctswDPwavWJIgODxnKb/kZk4tadunHGcHn9faFQpJmStp2+yzBVx7C7IQR7e909vu4HD++V8+r77dXi+7Af5MjAfXve78+FiT4M8DvLwcjrvvp1PH6/P0++3p3Hl+PTj9HP8wu8Jx0q5jCgOf6Y3kXh68XVafzy8Xq1PSpG79Zkab6/XSkn770eqbRtQAnHqAYUaiKgaIHQAy0kqAFTiPiQRSnEb0BKl1gESwx3aKmmNVNI2IIZAoU8iRwoKtmgUHaBRQwCdI5gBxeoaACCQSgeoiTJIwv7+V5QF0KgAbhiXSg+wrFCrk4XEKwAISZQ0e0ACnZNIqa+S9RIlzZW0108rM1tuA8qsrwWQKYKQDOAUanysoKy8VH0ByBzk7aSF2AGYFHBJCpVeEM1EDXIwvTT1gAwkl+pckytAAWVV2yH6HAQBMmX1VRLQaW0U2PcBVckAxZFPoeLMK2uvaeMSo5Cy98rReZAb85zilR5Q0qmQRg+402nuk77yti0yxVVMGWmUKTefNbI+E4SsNIoaYZLzPmNsEQgQRyaFY9Rso7qQBFqfGdOa3zUDgLlK8YAAACn6OTpqFJTVAHHlAghgI83N0cqwcbl4utrMCsA2SrwxFQsoqwGqO84sE+B2SMbNHmCaymCHnLwLJIEK0uJDsimGJkpq3lyNXXc67fRghz4FZWWm0h8F7BDXEPl8kTL0sTiP2KWmMOFAqW8yPpesjlYyZ7P1dVdNqmB59MPWKoPMy5/CTHXg69mnGqAPNdLkljPoa+TZcz7XI6uOmdSHg+QYjZni40E2KhR8/BnQ7H8vL/fX28PnTenlcDxOF63r//3Nyl5NtzJ5/As=);lineShape=1;" parent="90" vertex="1">
                    <mxGeometry x="52.091325123590195" y="6.233331465766383" width="1.0055962648893761" height="3.8967437026571043" as="geometry"/>
                </mxCell>
                <mxCell id="99" value="" style="shape=stencil(7VlJUhwxEHzNXCtKu3TG9j+IAMyEMRAYb793tgc1rdJMgg/44PBtFmWr1qyld+Hsy/X5/eXO65fHh7tPl9/3F4/Xu/Bu5/3+9vryYf+IT7vwfhfOru4eLj8+3H29vTh8vz9fTi6fPt99W57w44DLXrQsKK8/D794Se33Dx8O52/2t5vzKUoJw/kqmZyPTaoO510QHwkgSK0jADfoaUAo4scbPGRMpwG+SUsDIDhxmQC8xDYCiiRyg0tSR6NCq8wA2m2yApo4YtYiOp5PuCCw82VUORWJ5LzLEtQCEgHA5k8m3ACUGDUEcaONUhZPANHbwEiJ2ig562cYqREdskpwIwDJUAmg9L9XgBMlgBIkjgD4OTkCqOJGP8QijaRPRRyMOkRkA7FSTTaUIuxGRKqxS7wClN8AAaIFsHyDSH6MpdCoH2oW9RagTKQszWR0lUJIpsIPzgIiyejabCwBEIjjmkryE4Do0JzkYgGMupuXMonE8qGFznIbswbihxZtTgPAorUdiyXGrAvAMCu4m4kEpUezxkSZsk0FESnKqHLxg2GN2F15CmBCA8TDmA+AOOZDBj1zkerouOIlMLPi71Hpsgb8qdDQkchAPJEDDBkjpZSFBsh9BECrRFK0ZcmjlfCIyvxQpI4kgEcoMyvSxVsAI4HWetVfASiKxEpOVVQt4inNT13Rxn4MUlJXty7yBtBYBlUb33gEdUSx7RIAlYmEwj/adWOHUzRgtW4vUZlpgBbfsPBDtzFp7ZgjvG1DYbjEAM7WoOeAfO0NpRvutTogRxgAVsoW4DgdWz8g5xiVwdUTgDUPUDGpBdCSMocr7mQ3zAmRu91em3KIeCLSsawGvTJHzMSB/oQnqaWmxmlgJr/Wnf9aem2cN5KEtwUsFcQo7WlNqciXscxV3pShT8xm2uWDXJ0mPxRSVqrRHLepVLMOCACjNJoBNkJAYmcAypX2ve/cNjTsBtczctMyKaG+5QYDiH1N8H/m+NdmDrWAvzBzsBvefuaIvRXerH88u0HtUg1TfiH1oU77H2RcY7G09v+bTQXb25Xc6/hmeeJJThe1CZR4Tmdvp5plAUTMCgGsSIX2cCCVZLZktefg8Z1UtPucZTIjIvnUB4YV4OgoN28GASjMrLY84DyrJ35aw6G9Ic+fOpO0dmjHFbDJk3xfaR13Wu+9NpHNhjKn0kyyebrlc6W3tGv+Zzo7+NibinVf3GhXHOYVeaA2AsXlMe4gJBssEajB7LwdFSlOPWumgQ2nGgpTmpvL7jaZ89TLxdYFpRZCHhqFlTYMCGJn5WE+TlOLrtQBSPNJfjb3LEkYzflA5Mf5avXNhCbAjd4EBN0b4LyZkpxEzr2GGR0deRauNu9YxPPzf/RW6eXz+PD8Cutqf3NzeAO2/d++8sJPh9dl4f0v);lineShape=1;" parent="90" vertex="1">
                    <mxGeometry x="57.907902360997355" y="0.9776374370494096" width="3.7055500838619264" height="7.06044615799356" as="geometry"/>
                </mxCell>
                <mxCell id="100" value="" style="shape=stencil(lVfLbttADPwaXQnucp/nNP2PAHFqoa4dOE4ff1+qghyTkifoTVE4a3I4HK4GeXjbP73uhshvl/Pp++7X+HzZD/JliHE87nfn8aJPgzwO8vByOu++nU/vx+f579enKXJ6+nH6OZ3we8blTrlNqMh/5jeRavn34uscfxiPN/E1ENv4ECkEAGhUqgW05YhNQCvLedeMEkWQUteMowFIoMgAUKmIBTSq9T4gMBOzQaRCCSB6p9YNIAs1ULXmJJbXEih0WHVygEZRAK+JpBhAzcQJdC4uGS+AFkjifUBhStkCCmWgjVS9NroWne8DIvuUlGjEUihUogc0BIhe3wroiCWq4uMFxCdiy1FvsORAySqvK6dA3LzKP1EG08MU7bSpsDJocqDqzmcqqMd+1lonRjJd5uoaXyH/Ya3SushwG1A9owoooGIt2Vlk0yRBCVpzz77mCkSnIgqO1ACbpiyxU51ggBbt2pwpAwOL2fvR5FCoBl0D1l5U2A2wNK0Ba5E6ORUBtEQLuPHlbY+ksJpNpNW8akOD8XGZ3BuOGHDE3oG1CREob7V1tMtosal5uvgAz79q5kanyK+r38w6CBF6o8vnk3hh3zDdOAk1LPjVX5UhsGaLmqf9hZLgTpvOszXrIs94a5ZkAClQQ1tTFm+43nc6Lpr95p8sDQy/3m7YptRIgENKoeZuChSQjAqJ9ewM7U7ji+U0QceWStnOmSyDuh3f/VxGeNHRBonNJ8ArbRLqVtcM94HeFd3O1MEG/Up9Ix6MfV5dgHWpA2/PmVJy8Q3wk+tyO/7gp4D+/u83xefx+vDxAfMyHg7z98/t//0Hj76aP5bk8S8=);lineShape=1;" parent="90" vertex="1">
                    <mxGeometry x="65.04794218721088" y="5.757821874397777" width="1.3880250951890076" height="3.1008798276195" as="geometry"/>
                </mxCell>
                <mxCell id="101" value="" style="shape=stencil(lVnLchw3DPyavbJIgs+z4/yHqyxHqiiSS5aT+O/dzIajmeZOK7lJu+hZggAaDczFPny7//T17hL9t9eX59/v/nr4/Hp/sV8uMT483d+9PLzir4t9vNiHL88vd7+9PH9/+nz9/+unYTn++uP5z/GEv6+4Xp0vAxX9j+snyfX2zwe/Xu0fH5729t6VeLDPztdz+1ZcCmRvJuyDK0b2uZ/bVzzfk31Pwj44nw/2xVk+ty/ZRSP7Vs7tc3fh+PzqUhT25lI92LcZkJv2CV9Hsi/i+Sm61g/2OKC4H2suJrIv4jxmrh+fH7x0AM9rxoB/Q3gbEF1uDKjC5VCcJwCCLn4BXxfyITovkq65dryjgKQTRVA5BjG4JO4I9seaQVIHVQSuHR3GJUdVZJxDiKJJf+34fKszS26TBPubTOZEMFcJkOUPBCTlscpSciWIJKrLL6DwBM9ZnM/bAHFm+m3AVuc7gKocfB2MAYoqUnG1MMCE0zm4uPig4pzzfN4OkEUcwHbEvoNvhNOluEyA5IIqhTgrZQMUF0Qx1zpLZQO0mY5nHSdRx4muimtt2aVj+ecqj9RAucdrLfpa+0ZwGyBrQGTKK81V1cZtaVPBdZF8ANRj4CpKVDgNQDweCRdt6hf8/HoDFFlxDUrl6EMPUivgAHSkrnkPuURE2fGbgliRrZR8vcwavF0PlUsUgkxRNzKHAtfB5gKQl3oAQLVPZH8gBYBuooisskQC4B1NQpEGoCkyriw6g/eypaOhrU4oXTh6emNAFbkBnVzr4rVQktAIuS6BEKohJOYZAJLqimhpFOo6xdZtQGQtNsYBpZTAWwSA2FJHWtpoz1OAn/lATIaSU4IVgEbXalJP4lo7ZR86uwJsDWcHqApQnS0AGYdFYA32VIIJFZkZ0NW1dtY/uFZ5pD4V7S5wTTDZ+AU6UpEtCIBAv1B1AbWFvpvsKIhDWABycsiL0007jUv0DMjKaZt3sqdvLY392iAEL4VlXEIcTNHMpkV2kTblQ1yoMk0JdeYDH8lkg8C15iW9VZND4OpaogoAaREWgEq+MjniPwLGyObZh6wHY26jSBY1qttCMza9OmujTDNJ0n0KC2uYbNTQ5twfbHa9sxHFL7+gRt2ceTZGHJToK37e+k4lqpqG1Gbp4CW3ls6NvXU5cVTjptja3EDcBnQuUUjjKAqoLayBT7IaUfKyVvKzxZwOQUenq1YCUOuU3mMVp3wIrtBMk6Veqo1nyxKk1qiJ6X6IZXEkyHtPy0Y9vZbGmxCoa6+SL3Fjz172uNxYGqcuh9FRccdcwnxcFAlUdhqALI409h7LBK4au7VlE9Jc10vHUtlpU+q+L0uBLjUf1D31OMRBEVn0rlHgwlQfZ12UFqcAKL1UljB0KTUQBYrz1lVvH4h3DmB/tV0Kc++/WwqqduWZ9EYURZA976IQRKUyPJ/nnaWp5/vEJ2oD4nm/B0mgxKTNjNytreX+gwf7oueeRfIkPeBGlzLbq41pZ3WRZMUMNUI1KYeksS9tZK924mNdyvaK3MdWgpbWckMMYqYXT6Z5tPHqM8rhHMyeKX90N/PcYMOcl27bZxaoXj6/Ba4vL8sLiiOwvZpDIJpocevlJgxTCrVKveHpy05Iv3cas+JyfpE/sO9G9opue+c1spY3Y71Eb6n0irfP97Jv+aa0ym5D9gZQfDV2cEfCMsn/sKeEttkCz+w9E5B8fls2/7PrnyVEZYJQhPW/33y/a48/3l6zf3l4fLy+pd9/z6/l8dH1lb59/Ak=);lineShape=1;" parent="90" vertex="1">
                    <mxGeometry x="70.38296834016433" y="0.828010581381676" width="5.164332558997705" height="6.296789995903465" as="geometry"/>
                </mxCell>
                <mxCell id="102" value="" style="shape=stencil(lVfLctswDPwaXTEkQPBxTtP/yEycWlPXzjhOH39fqIpUE7a205tMYUVigV3Cgzy87Z9edwOHt8v59HX3Y3y+7Af5NDCPx/3uPF7saZDHQR5eTufdl/Pp/fg8/359miKnp2+n79MXfs44bhTChOLwa16JlNufhc9z/GE8XsWnStzH20Lejs9MjfvvJ5K4DSiJtHQADtTADrVRkw4gSkm3AU0p1g6QBAMqaZ+zRiq8DYgheFbVTgmybo24T8J4SCDrZiz2OzSmkgCAKWsPUGIAMF6DAxRKAQCEal+5tjbX/VIXyskDPj5xHxApiAc0UIicqNwAIii1lUmaTzoLAKhvV6NVwZFUKPfd12Qhegvw0TkrIFACLGle6rpKtFJAGrXv9RqtGQPstQMk6BqFF4FdAQICNF9pAwigtSqFnlZbEUDrZBt94WqBR7IyOduwT6AdJom6SkeqFe6QXLemZeU+IHhaW4YmYJwUpzjzNgCwOhSnh0YZSVS8kV2Z4VYzFfVbJFCIHH33WRIMzNUE4X3GJIIUlHwzWWkayME0qo6mSIJs478BhaqTXFgOuSVq7WnNhRh5ZfA3uwp0Y3tdeoA0eFPbNZv73rDhIYPu4xtRR9yuuuhrjWfYe+KvuBiogJTjYotr1aApBW9iBY4NN0MDdmEbi/oWwhMD+zGJF/wGlcXNbYtM71sRxf4wgSogPpqZJhePJBwLiY9HhbXTqo+PIFtLV6OLR40wjc3R0YMuwH+P2fbwd0Z/GQ+HecS/fu9nelua/w/I428=);lineShape=1;" parent="90" vertex="1">
                    <mxGeometry x="81.73346392057704" y="4.853638236714033" width="1.0100155849164085" height="2.5896104742271864" as="geometry"/>
                </mxCell>
                <mxCell id="103" value="" style="shape=stencil(lVnLUhwxDPyavapsy88zIf9BFUvYCgEKyOvv01MbD2t5phNuC6jXltRqSeagV6/3N8/HQ3Cvby9PX48/T7dv9wf9dAjh9Hh/fDm94dNBrw96dff0cvzy8vT98fb88/PNYrl8+vb0Y/mGX2dccRLSggru99/fiDv/4vPZ/uH0eGGfg8Rg7XXfPgXJ0dgHv28ftR//bp/cvr0mSW2wr5LCvj3+XPxg74OkSABJ1ADgMTvB9wt0QFDRug/A9+URoE5cJoBkc4YoKANod7EDopNKsgaAzyMgiye0AKCOV0LifeE+jFdKTQo7ARcYE51VSiOAJs6NTPKUesFJqSMgiWOAIMXUAthF8gAuxzGsNUokJ6hKLCOgSGPlAx90ADQUOCFfRLmMJzREiYQ1VesDAIVkOlfJM4D4UEovlwsfWKYr6stEqdHE1YlLyAMjHwDBUKP1MGwDoqTR6QIhZCcEq3s5iyO6BKrpeEJ2klhYVfJYDylLI9KaS6/gFYCKI1cCNYzTyUskMgPyWZlpVJcUUjnSG1/BAJBeU9MAZFbTXvIEUCZkuPHYH2LpNbgNqJat0FYWVr92wBWQaI8DQA0giucdyEYpSGVO186cFeCp09DWjQ5EToC2JrUAJSIQopWZBcAaO6LuLIDpEkaHmKzTkYQ1NNsfENZEVAN931IDfZX4oKuLF9RgmcaVzDgG8kWiS3BaTR4KlRmENZko1T6u7CUuNgtILNNhilKlMyLIF531obHRofZ+cwHw5ISlgILNQ+M1HcwJsUvbrgiYxGmv8j0fTJ8G+RwTgSZtorfng26dappSQ6cTXB+udwHTCQygTcKkGplUXHJT4riQpWL79FLT5EpZJzFW2oFyEz/VNFs4SpzEOFNtxbxk6gF9mpUo5i8/9geMDpVwqUUbVoShEqdbsWschnVP8tDq1rBO6qG13mQvRjjHepxzdoFA4AIp6jb1XQSOeY0x1fC7ZVGS6uq6DK2ASveBhUxm+F7LfI/fZpG7iMP2EJd7X744IvKV3WgfAsdmY6zgpvGCX4wcyyZnAL4Pv3vLpZkFau1daW/fjePUh4m/Mf1ex50VwGtu3SRXuhZKjTzRW7sWbie6k3+t0EYXRbVdOuMbWJe2Sc7rer0dIBtQSAxbK6fixOoQuL1R1dBzvnMf84qjuevyTnzq6C9mM3afYocYzEEsnt5vvEOx9uwxgYwKCQ6yiSFMT2+xD4vbHq8b7XoAF4ogcUyBo31tfjrkQjQ/TTo6C89Pn66L5ba9t+stvoDZBztFOjr9o2CNRHj6tFqiVTlPZbQk+2IQ6Lsk7PN4H+3PJv9pH/ncMt0n0l1+9jd9MJ6Z82HKV6az48yHTFvrR5/a/22PD+/v+nenh4fzvwUu/27/D4Bfnf+HoNd/AA==);lineShape=1;" parent="90" vertex="1">
                    <mxGeometry x="88.47077252882423" y="0.3467708037160122" width="3.299143452887819" height="5.230356675310703" as="geometry"/>
                </mxCell>
                <mxCell id="104" value="" style="shape=stencil(lVfbbtswDP0avxKiqOtz1/1HgaaLsSwp0nRb/740DCUWHZ+ib77wiCLPIUUN8vC2f3rdDd69Xc6n37t/4/NlP8iPwfvxuN+dx4s+DfI4yMPL6bz7dT69H5/n99enyXJ6+nP6O63wf8ZJICcTyruP+QtTmT/8nO0P43FhH4Vy7uwLOd62T4Vy7dePFOo2IFfi0gF8IJ+2ASWR5w4gQiVvA6qj0gOCJiECQGg7boD4BSBTSR0gKcABQKXcs5B9W+IugJ1rC155cBQAIlVy/Z7UafQA4CkYZdyc3tdGpJitiwK4DtVSpwAPPIRgo64Fbik4igaQKICoRdNkYgiUMKDEHqDUoS15yr3AKxMHAMgUQ091bQreqtHUM1cKVaQNlQ5bQCoAkInrygOqaiEvqxjAlnKm6m2WkDRU/qYxTTyANlC41cuC6Qw8aGeqPQ+TllDQicR4KK0I7wNUCEatWg9AGum64wWgohLNrbsvASCGyJY4BaCgw7oJFAqgWQZuvxdprUB8WnFigo5tk5sA40EooBJliqsSTYA4DdrWtGutbSut5kjRemDMw/cAWtPeABwJyFJiW9NatAKCjqqcnmmVI9RSItdnSU8MRh54dVLH1qnu85Ba673OAhF2Pj0fpK9pn6E0vCqnj4H1fABtJlh1F3j+MFUzCJCAWnBtsSsFUHaroSE0CjfMTXfR4Q90Ix0Yej14SqgX2c7C0Hw1SDp4zLJvxN/s0RjJ2U4KeNjR4DhYe5ScRImNvYDci6MUjT3sit8c5L+214fbreFlPBzmS8fyv71l6Kf5hiKPnw==);lineShape=1;" parent="90" vertex="1">
                    <mxGeometry x="96.02281471324568" y="4.646391411003137" width="0.8335662861962162" height="3.117849017307224" as="geometry"/>
                </mxCell>
                <mxCell id="105" value="" style="shape=stencil(lVfLbuMwDPwaXwlJpF7ntvsfBZpujKZJkab7+Pul15AbyvEUvTkKRxQ5Q1Ia+O59//i2G4J7v5xPL7vf49NlP/D9EMJ43O/O40W/Bn4Y+O75dN79PJ8+jk/z77fHyXL6ej39mnb4M+OEkkyg4P7OC1FX0v+VH7P9YTxe2XshDj3A121AcJSiBXiqBQAyCRuAFMphG8DSexAhB2KQQJIMgAsV3gZER8EeiZlCBoBCzhmARhXBkVKkYHkIvjFzE5A1iTZon0gADzlTKRbgqIC0Fm5/N0AiBjFXbjls9po1B+wjxdLZcwT2eUUCeUBaLZS8sS8U0P61MbQkKJIHQvXOrVhmWAvqomQbgicBLCsgWA9cyYEzadDO6khUWehIiWJXbbXV322AULFp1Xp2WBfO8qzl5JAHT9EGLSptoNSqQrPMiTYd4KHUVQNgqA0FBBt0iLDFKCDa4tHyrDgGttKolBDRvrXpJWZyiGfuc+Qoo2qIvbYXsW/pKNsMeRxvaZVy1V08rAS25/GhedwCVMuARiC4/qvVacBzRwFiAZzg7NSYxXIsjIWdm8iuRiHMUiSxWYq4yX8bkCvl7sJQWkO4DeDW4RaimTJQakr9oEqZKgDE2vcL9ZmAVrVhJas9jQqlVWkqNoYiVAGAYy++qUeBRj/Npq78pR3yNsCT7zxk8sCDXty6casAVKFLhJ/3BdwClFYr1qlAUAh9B9MDZbD/ijVNEapPR9X1HGQwFbQDdyQri6Cclym22DtI2eq2kHU0w/MHe8NLtVXGhn3u7JVCMJhXYzbpDuhi3t/Lo95pQUPlfv8YW//bENz3niJf2+vH57vneTwc5mfT9f/9O0mX5jcWP/wD);lineShape=1;" parent="90" vertex="1">
                    <mxGeometry x="98.82909322276066" y="1.99714469956389" width="3.4336997713883948" height="0.7257739822496962" as="geometry"/>
                </mxCell>
                <mxCell id="106" value="" style="shape=stencil(lVfbchsxCP2afWWEkJB4TtP/yEyceqeunXGctvn7sN3ZxmhjNnrbC0cScDigge5e9g/PuyGGl8v59HP3Z3y87Af6NsQ4Hve783jRp4HuB7p7Op13P86n1+Pj/P78MFlOT79Ov6cV/s44yZDChIrhbf4SIcV/H77P9ofxeG1PEKuxR/3iARBKthskSMUFIBkARSAPEADFABJCdo5UBbL1OeOyxC1AQAPgAMU5Uq3A1mkWYA8gUNkASgHMjtMRqo1SJcjJAWSQaAHiZhpDgGDDJAXIS7X+ttyQClh9r0MLEMeJUiHYMIm4XjMt1LkCCN4GpALRkukqDp8iCCFJu0V1tsACTC3AI7gygdsoFedESubG5wLi2IfWZbUP5MQI2DJJ2C0fVYjSpFlVx+FFZMjNiRKIUw1a8A25FeDVW1Zihh5AIUjUc6TKQNjjtP5uq4chOmlT1pRmBz9vSptGMzaIMYlM6mFeVaVe1adHba6tFG8UT47AnfXJwNhu4UmA1o+s6tMTGVw1oA0Zi6sT+TrZK8S99gmCZd5GayitwGz0nilAlkcb3Q0RqKt/6g5iU7DRoRXQNwP8p+VXhwyoNkYbU0yF2DUmMRSreBtzmMpbz5y3mhZw0Y5b0QmNefQ6AkOwy4dlgc8LJkHExj45JUy06NqHPToETQkyNfaepuS85OZr9sxtu/HPUzIU6fBX609qRzx1ZI49+ZKVQuDSGW71sr5bxaa9PnxcYZ7Gw2G+AV3/b688+mm+LtH9Ow==);lineShape=1;" parent="90" vertex="1">
                    <mxGeometry x="103.57857669771056" y="0.30149961047283114" width="0.26955134233666156" height="5.023994457256384" as="geometry"/>
                </mxCell>
                <mxCell id="107" value="" style="shape=stencil(lVfbcloxDPwaXjW25Otzmv5HZkIKUwoZQm9/X1HGgHTOWSZvB6O1Le3q4pU8fWxe3tcrDh+n4+H7+vf29bRZyZcV83a/WR+3J/1ayfNKnt4Ox/W34+Hn/vXy+/3lbHn++nH4dd7hzwUXM/V2RnH4e1kJVPr/ha8X+912f2cvQj0Ye90gLdunTLEb+04pLtvn7PePQlyXAaWQVAuoVIEHNVMrBsA8zpwFNHVZLKBRA4AeKLIBSBpbzAMycTaAFCkhQKNir5R0hZcBMQQKjrdCsYAjOmXrRBF4RNewWyJqoIoAGhQrjVopNQCIxFarSk0G2miFsqW6dQrgSqo+jlZMt8DNI+K48lXfnQqIqxLFlggls2WYQdUSoZEuQBwp+TB1pRrlaKJg5afUZHRCngB4lJF5QKVotaFcFuB0DpOyoXUJUJ1lpOQdADmdNYhxAgBOF1WfTK4ETihTHtRpoCUtZSlNwoquVCfiS5RQsawkLkqFAiCuaDl2Uaow5bRIJJtyHRfLEnzKnRMIEadRstJ4mKM8WtrdEQ3puxOzB0TgdZoy1yggQPIFXIlACZHEF0ttGg9OyE4bAqur+iCTpA6okmlMJinXUVIz5ewBDE5QqiV5AJLrpwGa1Mn60Nrwan560P0scS1SBE5X8XXmPICAK9UyYnJtvJ0qiJJ2zWaZ1iQUII2qLchqSePWEKAOqV0BgQT5kEjcfHJdmeeh++FB2igkS8XVzYk6mTKSRhv9426KEzAnqot+7BNYjXVmcykaO5xEdT8/bTCslWlMFlcpUQcxYqrZmTO4TvSquBa1WXNVgL1Mhq1nMn8mOOFqYbCJLJCs6AXKI68XIpMstXEMuwtxdxkZqIE3TPG7h9F156fU0Ytu5mhGjZGEvT3YXt9PTgZhDDLz9p98ET6214/b8/Ntu9tdXq/3//vnqi5dnrry/A8=);lineShape=1;" parent="90" vertex="1">
                    <mxGeometry x="106.24357383771144" y="3.6282946303004024" width="1.6199130225619982" height="3.844148272513778" as="geometry"/>
                </mxCell>
                <mxCell id="108" value="" style="shape=stencil(lVjLchtBCPwaXakZmBdnJ/kPV1mOVXEsl+28/j5sVLMWrNQp3+Q17DLQNM3s5Ob14fZ5v+P0+vZy/Lb/dbh7e9jJpx3z4elh/3J4s187+byTm/vjy/7ry/HH093p7+fbxXL59f34c3nD75NfJ+XFidOf0wNu1Pq/J19O9o+HpzN7pdycvQjJuG6fE9Xg0EkKcGBKPqKSiRk4yAx4dajEDThUquodlBJy6FS8Q2VSAQ5KIt6hUwKH5ky5OIeWKYG0MlMf3qHQUOBQSHxa26ABDs2Vuj90Z+zQiat3aNRBlnhQT85hGFgA9iTFtI4ywXLZgYmDgwWZgEOh7LOkiTI4g4E5wFstJFCHYkf0XxiDUgYO6/tWByZBX7D3hTpUEnBoA7NkD41GCupgYM6+cPZkgC80q0No0TG/edmhxxYVa1FQB8Nm9ZU2sBRwhr6y0Ep81tPgDCNT8WnNBm/QD4bNQK05UwchGTYDkVklkb2S+ogqBLcKZf/+PB9csx8e24kaKJohf3Cwh/FU0hLsUSeowS5He4AJHcTRngGnqm7fj/jL7LuEfAoaVMni9X3D88G1DwwN9h3bF18AgaPWEtSi/aiwAM3Hb3QJmEhbbJkCu94AwWEwzwpeAxyXGD+KR6hIzA+y5404gh2vm6HMsIEtnuQBl6GWMvuQ/zQ/eC0/ZQR7BFDLf40NnxAeWmyAhPHct4SSUfymUCJBVJR/jfHn2dHX7AOBYoJe7D2BMpwxZt98fQWKiQ/byxTGq/igjs6b4tw27YwSNKyBQ0L75OzLDhyVsrUwgpCN4eFTKpkqcpBI0gUrNJO5yTeBqX3U9U0iC9UBaaVqbOP3b152qDOAM6VckcNGoQ0hRaLRJoc/tImFAQpXeoSekQeaHSZLQ+GW6YCUcotnOJuHl/cDG2e+/Y1w0Nq1rCyhHzIpWlkkKpCBS70QeiiE1RJQwMK4Qb1namjX1KgRlhZBqmIzlK1FFDm0SborXBVmKRfqniZtP0D4NlYJm6AtAFAZ5c2CPebGcOUWovu61TI3vcusQeqPXBMsW4s7V2lQuZS4fRSmDFhM5gXFynoDTkKetwerfYGtk+IdimVAQDxbYdqgskhRWZs9gwKnSQ2rfYVKNsf8LKsNarO5CJyNHcgUG2FX4OSUSKdmj8jOyHETT0MEH/HMK71ewWetMT9Iia+3Hmf2aJXbbKL2RSQUPnqL+H97+/F+ZXl/eHw83Xie/z9ecdqj0/WofP4L);lineShape=1;" parent="90" vertex="1">
                    <mxGeometry y="18.86965428972313" width="3.481049393311488" height="5.830677152800279" as="geometry"/>
                </mxCell>
                <mxCell id="109" value="" style="shape=stencil(rVfLbttADPwaXYldcp/nNP2PAHFqoa4dOO7r78utoNTcjSYO0JuiDNckZzhcTXL3sn943k3sXi7n09fdz/nxsp/k08Q8H/e783zRp0nuJ7l7Op13X86n78fH5e/nh4ZsT99OP9oJv5a4SCm3IHa/lxeFQv374vMCP8zHK7hnqj3e5208M8Vg8Ilc2sYLE1eDDyRlGx+YAhu8kA/b+KjnJ4NnciD/xCTe4D0xwGemYs93VPw2vggF1+FD3MZXLU86vHMAH0mkqzcxwOe+/94Rox8oVCwB2qEKGKiVsu2QJEoCJOdeS1wjlMUMmqo/EW1OqVBEAYWkUzWvb94O0JSLCahKPKo6ULI6ao0DVet5YolojUM1KE920hr3YHRK6aVXEgmgumRy0QRkVS8St55nU4qFHEppCAgqpndS6sY5UQTEjUV7oQQMr7XVFh3wAA28uXWibhSGh4Y6Ki+TB4bapG3xPlPC89kNj3iKgIM35jPk1TVvtIAka9duNJlcoG2PNlYq9OHRJ/UImNJgxFd9+E8R43Jo5IDtMG4fDfCginG9aaszsKVxf2qfKggYF7QquHzoBqDcoIkbrxjaabSBxjtM9dCLhzuS4tE6CauNvuIdNFYhZ0lQH8yAZs3WjnTxcBpcX6/6dgQ27PpZSIEyYGDczxHqevSLQBWodMhHIjHMv6tXl0IA+Q/99AVqWvmyktYdwkBwox4og/Z88Er+Llwf/t3+n+bDYfl4uP5//7Wgr5YvDbn/Aw==);lineShape=1;" parent="90" vertex="1">
                    <mxGeometry x="6.794122106855298" y="20.747252296648483" width="2.7770734389588534" height="0.38201688748284013" as="geometry"/>
                </mxCell>
                <mxCell id="110" value="" style="shape=stencil(lVfLctswDPwaXTEkwOc5Tf8jM3FqTV0747ivvy9UjRQDqraTmyxjRQLYXZCDPLwdn14PA4e32/Xy9fBzfL4dB/k0MI/n4+E63vRpkMdBHl4u18OX6+X7+Xn+/fo0RU5P3y4/pi/8mnFCpU0gDr/nF1yp8983n+f403i+i49MORhALFQyADQqxQA6jOdM3E18ohL344WXz60ZUAbxKZDY70eYcGoUqouvaT8+52X59/gM4ovuX1w8g/2X7vcfqMp+fNX9VBcfwn580+WTi+8gvmff30KtgPhKzDbfQK0BQKNsG6yUqgjQPUWVchVQTgHdiiCtTdkF2BxyWViyBxCbQ1llsZe0WBbVThG1ofgttUKMtpRJLO9apwSI2tUqLPFaI0Z9YIoOwNQ6ACjTLFWrUEONCxQtQNUUgXg0xWYBKm9IvrBUfQHIqqc9QLPyUYvNqNNMwflFgjloH5Jlq7YBCzTaBQoltKFC1TKpU8D6jE6fmSpaoHuHUc9vWG7NZiwNemQMq8etAo1UgMtPnmG5WhIcU5p1tSuo0XYkn0rJCTSR4L45rqreoLMm4o2iI8rhowC1FHHUY2gB2+FT1zLsTbfkyqp0RONQnTp5APK9aT6LBwRQVnWIyB4QAV31hJE3OWRQJT3CdNlUCRil6qVbttZGHQmi+yGtjYuArVGoW1Fr7xE11GQsMyZFgTYkb0p3mv13kZYmrQvoiARMUlu1JVK2o5muxx5XIayFsJxK7ysKehZ8gaqWANBu42BFiQvyDYtJ3x1J0CkpULL7V56j8b+ZzSnCfq2n5NWz0+JnO/1yDBXdIejXRy8u/4/Xh/db0st4Os2XrPv//a1KX803Mnn8Aw==);lineShape=1;" parent="90" vertex="1">
                    <mxGeometry x="6.413417681970145" y="22.859273649372113" width="3.2286787114376887" height="0.3942779474389551" as="geometry"/>
                </mxCell>
                <mxCell id="111" value="" style="shape=stencil(lZfdbtswDIWfxrcERf3yuuveo0DTJViWFGm6rW9feoaTiHbO0DvH0WeJR4cUNcSHt+3T62YQfjufjj83f3bP5+0Qvw0iu8N2c9qd7WmIj0N8eDmeNj9Ox/fD8/T79WkcOT79Ov4ev/B34qRSayMl/DG9CaT134vv0/j97nAzPiYqbjxTDPeBFKjEHmhUMgAqsXSAJMoAyDZD6oAY5kWuA5ma9oBSATGUS4gzYIvMQKUSSUsH2JyCgEbSL6kIVRBDFUr9PhSLoQCg+H2omTTdBxpTyx3QAiUFQCHmHigUQAxq36sdoDy/WQfUx6AFWsMA526teIZG0c1gbxCQKfRutTlDBABTYQ8gtzZzTvIAStGqKzMoskYiaYslAcCs1hZBM7BGKVR5IasAwIJ2+2Abh4HcJ9BoDQZApepiyHMdWVfJ3NoXAU0wgSzjpHoAmc/yq6oHBFmjUlwAEWXcomoYgMrMKGLyKiVkb3N/8vsgIEUDsy8bttUBuG/0mpuiEeMgYvZAA3Y1mWTh7wyito1g9YCCE6UtSt+NDutusmq9SNIKgjC/huoBdFJbRuTiZcooqy3nnEyWVECmLwNZF9U1zJa/d7Sn3ht2BimQNYtXybZGUXtiqvczWJ5HUAZS8RtXeTbwOhCp9EuydiKgnky9+0wG1M9YE6e9rNbPKJBV1NfvhGOwli32MUSBMYRLB3bp+i4n6zpQfBWwT6AWq81F5aZxRRvNXlSBbeuiigk8EXn2/bXtzkhPfxwGYmRSf1RZ0wG0rL5m89yN3inZvl9gWH9D9G0bLnWhei0ZRmt/B/XrR2JGYr8eKH6eE/w6HjlHypxM191K6PtfvIP9f7w9XC98L7v9frov3v7vL4j2arpcxsdP);lineShape=1;" parent="90" vertex="1">
                    <mxGeometry x="15.43546115770539" y="19.547443132849068" width="0.7631626914997989" height="4.639726427607944" as="geometry"/>
                </mxCell>
                <mxCell id="112" value="" style="shape=stencil(nVjLctswDPwaXzF8gzyn6X9kJk7jaRpnnKSPv++qHiomJK/j3myJK4IAdgFwE29eH+9etpvgXt8O++/bX7v7t8dN/LIJYff8uD3s3vBrE2838eZhf9h+O+zfn++P/1/uppXTrx/7n9MXfh9xPom6CRXcn+MTJ83/e/D1uP5p93y6XkXrsD5L0fPrQ5Q4rvdeaiMAlVpGQKE7xCA1D4AQJGQCqJLHHQKehPOAlKSMPoqp77kKyE5UB0CCVxMBFMnjDml+sgoovls8h8FLInErWdQAcnfDOqCJG72U8YQEToPENgAK4kBM0mxTD0Y6BqjSxkgXlUIANXSLO0CdBOLWikgbQBAlgatFmgFkCZEAmvg0AsAocobmJYwEqk4cydYWJY1uhRvYoVu2XoIbPEnvhtyMIyBLIxRt2l/PgMoBVXSMNNwQSba2JnFMb7iBpQYAOh4abmCc9g5uH/0KK33lNi0Ayg6hNtT4RGA7zHE6ARTC0Yb0TxbAhGkKrFHjDz+sI/widE0qiTVY7RaAzABgWLEATxihsReQk0DQHUChMcGnDGbalyQ3C0jMJO1KNwOgJEw3nKRkAZnkBjhsKgQAkZwBlKzxGkAL0hY7MJOm7+VrDj3xRa9x65TNwQJY4D748snUwGsjlheSD7JiVYCnN5SueAtgBKpqBf8iR6P4xRZMBrT1CvJJodEiTi2ASRkYZFWAiyU4apOJy/H/AEyfOJUIZlLqhfmTRWiSDbMDyhyXPm9qO5oywqBJK0fZQMfCmoHJpNFLEJLEADjieAa0G5kdOog3ANcpsg5wUka3qtLuocw+OWnKaDe9YBBOxXosNKqGozCSjRAlSjDNsXapOtfguzFw2DMQxuW66KaDJJKteUHRPDdR6wC0wqNbMUJU4tZU7VSDIaUQkxLq7ph8GIOUjXJqK3vy4omXou/1Yx7lMp1qMN6angzDIpsIfLO9A8bRRGQGE7jZAQMvSw2UjzEzPBhFNCBaRnMVW7S5vmvOueXj192Fr5uuBOQmtnt7e+DolBvsoD73u+v5Zmu5o0fNthvhg5jaOPGivJgWXFeAM/OIHYYdzQK/GM/hGyKiPtohz1E5QRrHRWTZ96+9eLq4Hj8+brkedk9Px0uy0/f2VgyPjjdq8fYv);lineShape=1;" parent="1" vertex="1">
                    <mxGeometry x="641.1956413693015" y="6.6300333735895265" width="1.2487901612915382" height="9.145326826251999" as="geometry"/>
                </mxCell>
                <mxCell id="113" value="" style="shape=stencil(lVdJchsxDHyNrigCBBecneQfrrIcq+JYLtnZfh9MVJREjNRJbqMReogGGgs3+e7t6f51u5H09n7Yf9n+2D28P23yh43I7uVpe9i9+9Mmf9zku8f9Yfv5sP/28nD8/Xq/WC5PX/ffly/8POIq1bKAJP06vkjU858Xn47mz7uXC3OulNpk3ykBexFSmexZ4AH+PeMZ0In7bUAulNMEEB1nXgUoR8rZORcAcIp1BjSqgENR4tklVcoVAIzaHNXC48yrgKrUdQY0yoBDNdI8AWqmBAAtk84caidJAFDJZg5NKLfbgJ4p2wwwYgOATiVo7xToqwBzDnOm/RMMSFunOpM2rFaz6JIpJeASpzT+PyEKzJwf0Wf1WaWmEMAza6eVQEFYIwsAg9pwB0LmHABd0lEvp6I+x+E6QkZJXhzRGQCYRCMA6bVb1KuHScAJDuAWE2FI4N7KZtae6oIE7h6HVCsJylxapdqrGkdJexR4At3Vv8eBA1NBFaFkEgGoHXsQa42Ahos05kGoIC1ZnBDOqiDStuLg/RYkztZaqiT4BA1q9ZGCEtdjO/Y3sORcm6t6KCisZUjtAmBgBi3dNa8ASBo8PL4AKHIpUdZIGiYujVb6j4Auq9bnagU13U6t9DRSPNNAGj4EQ/v2KWcgcT6pSxiLBYqvugNzHhqPuF0HCLUw2itcscpKfDWRArWWHDksKxHgsKxYcwGp1wPgoLJasRg2Ml8T67xXZoWZFov14Kspg3qQPCieAAKbgO/SNjdjbrB7M0fx+TKNXOJIoUCtphgipQY6dxrz9WyOdtbV4uP7H+gWadwrTtEcu9ktZ+bgM3UQ+0StBnMBcuMh9/MtqYFEyVgkzuYZmLtwonkCytR4HcGrVIlxT+O4G+a9B3MFX//P++Nfzf3hfFV93D0/H2+6l//Hq62/Ol6L88ff);lineShape=1;" parent="1" vertex="1">
                    <mxGeometry x="639.6473419539419" y="13.096957288431497" width="2.7710569463624037" height="3.5758865812300895" as="geometry"/>
                </mxCell>
                <mxCell id="114" value="" style="shape=stencil(lVfLchpBDPwarqqR5n12nP9wlXGgQowLk9ffRxtqFqRl28kNdtWrkdRqaTbx4X339LbdSHg/n45ftz/3z+fdJn7aiOxfd9vT/qy/NvFxEx9ejqftl9Px++vz5f/b02Q5/fp2/DF94dcF1zsVmVASfl+eJIrt74PPF/vD/vXWPlFnY9+pA/vWqHdjz4WCAECmbB1IoNABgMfrGZCo5XVAzVSaBWgMdR1Q9HU2gJhhDCUR2xiSxsDrgNyoJQtIVBMAaJWch04B1CHrAWwMOZKAoFOmZrOUK0VQh8RUrYfClABAk5hs4UqDXIpMLRqAlrKVdYDWVYIBNKEI0iqVio1B+RuQB2WrBfSCPSQS1z/qE2RJeLyeAUoWQD5uJJZL1x6/D9AjWQngoGwJABFGUm5cdNQQvg5qj7gUKUQfcwJlCNS6T6qAKszhzfYZSkYY3mf7RCmCovmM9kiM2tlLWBdiUIBGtVp7bTXwfRbfzAoQIEgq0k62P/CgKSp1EQKghNY4L3MEaqBJkmURMKC6VtMqA8mb5oajRR0+7wPEy8XEU6Bg3Cm5LOkT1GmqL90DUKcxD2L+azNXSuI9FECNODT6Vo8QlRYh10GVlV7jpaKCiNV+QYsGtOWefUcl8MO/Bzhp41DneYTorAbfL5StXNc6Vqw18XUDoQaqQIy0lx2gCMyQpqjaPtD9BB1JO41tzLqfNKSPM8VmgPoERY46o2wVkuYNeIid2NI0CZTgaeGyR4q67wAPemInYFFGK90HFM887T0UQ1n08iQ4CFD8HOE62Hu/98Ni9EcoL9PubI/U8KAKY8mcQ4A7YWO/HjHkhe5zpTh7tK9pL7puC7AErQz3V3sG4tX6SMfVHomvTtXsvx/AeXRGtuLs0YTSide9PRJf1WYXL8NFSmdF8PYd27sRK1i7wmJV070BBfy/99kP7fXH9fL8sj8cLnfv2/f+sq2PLhf1+PgH);lineShape=1;" parent="1" vertex="1">
                    <mxGeometry x="642.7946975315971" y="12.713038205526388" width="1.3280027870261637" height="3.8787610683348457" as="geometry"/>
                </mxCell>
                <mxCell id="115" value="&lt;span style=&quot;font-size: 5px;&quot;&gt;bada he 7 , 1 se to directly push&lt;/span&gt;" style="text;html=1;align=center;verticalAlign=middle;resizable=0;points=[];autosize=1;strokeColor=none;fillColor=none;" parent="1" vertex="1">
                    <mxGeometry x="588.84" y="35" width="90" height="30" as="geometry"/>
                </mxCell>
            </root>
        </mxGraphModel>
    </diagram>
</mxfile>